<svg width="21" height="21" viewBox="0 0 21 21" fill="none" xmlns="http://www.w3.org/2000/svg">
<path d="M19.3322 5.41386C18.4057 3.82639 17.1489 2.56958 15.5616 1.64317C13.9741 0.7167 12.2409 0.253586 10.3609 0.253586C8.48122 0.253586 6.74751 0.716842 5.16027 1.64317C3.5728 2.56954 2.31609 3.82639 1.38958 5.41386C0.463209 7.00128 0 8.73476 0 10.6142C0 12.8719 0.65869 14.9021 1.9764 16.7053C3.29397 18.5086 4.99607 19.7564 7.08257 20.4489C7.32544 20.494 7.50524 20.4623 7.62214 20.3546C7.73909 20.2468 7.79749 20.1117 7.79749 19.95C7.79749 19.923 7.79517 19.6803 7.79068 19.2215C7.78605 18.7628 7.78388 18.3625 7.78388 18.0211L7.47358 18.0747C7.27573 18.111 7.02615 18.1263 6.72483 18.122C6.42364 18.1178 6.11098 18.0862 5.78726 18.0275C5.46339 17.9694 5.16216 17.8345 4.88333 17.6231C4.60464 17.4117 4.4068 17.1351 4.28985 16.7936L4.15494 16.4831C4.06502 16.2764 3.92346 16.0468 3.73006 15.7952C3.53665 15.5433 3.34108 15.3725 3.14324 15.2826L3.04878 15.215C2.98584 15.17 2.92744 15.1158 2.87343 15.0529C2.81947 14.99 2.77907 14.9271 2.75209 14.8641C2.72506 14.801 2.74745 14.7493 2.81951 14.7087C2.89157 14.6681 3.0218 14.6484 3.21076 14.6484L3.48047 14.6887C3.66036 14.7247 3.88287 14.8324 4.14828 15.0124C4.41355 15.1922 4.63162 15.426 4.80253 15.7137C5.00949 16.0826 5.25884 16.3636 5.55128 16.557C5.84349 16.7504 6.1381 16.8469 6.43484 16.8469C6.73158 16.8469 6.98788 16.8245 7.20382 16.7797C7.41952 16.7347 7.6219 16.6671 7.81086 16.5772C7.8918 15.9744 8.11218 15.5113 8.47182 15.1876C7.95923 15.1337 7.49838 15.0526 7.08904 14.9447C6.67994 14.8367 6.25717 14.6614 5.82104 14.4183C5.38467 14.1756 5.02268 13.8741 4.73496 13.5146C4.4472 13.1548 4.21103 12.6825 4.0268 12.098C3.84247 11.5133 3.75028 10.8388 3.75028 10.0744C3.75028 8.98595 4.10561 8.05972 4.81614 7.29519C4.4833 6.47688 4.51472 5.55954 4.9105 4.54324C5.17133 4.46221 5.55813 4.52302 6.07072 4.72531C6.5834 4.92768 6.95877 5.10105 7.1972 5.24479C7.43563 5.38848 7.62667 5.51025 7.7706 5.60901C8.60719 5.37525 9.47053 5.25835 10.3608 5.25835C11.2512 5.25835 12.1147 5.37525 12.9513 5.60901L13.464 5.28538C13.8145 5.06944 14.2285 4.87155 14.7049 4.69166C15.1816 4.51187 15.5461 4.46235 15.798 4.54339C16.2026 5.55972 16.2386 6.47702 15.9057 7.29533C16.6162 8.05986 16.9717 8.98633 16.9717 10.0745C16.9717 10.839 16.8791 11.5156 16.6951 12.1048C16.5108 12.694 16.2726 13.1659 15.9804 13.5213C15.6879 13.8767 15.3236 14.1758 14.8874 14.4184C14.4512 14.6613 14.0283 14.8366 13.6192 14.9446C13.2099 15.0527 12.749 15.1338 12.2365 15.1878C12.704 15.5924 12.9378 16.231 12.9378 17.1033V19.9496C12.9378 20.1113 12.994 20.2463 13.1066 20.3542C13.219 20.4619 13.3965 20.4936 13.6394 20.4485C15.7261 19.7561 17.4283 18.5082 18.7458 16.7049C20.0632 14.9017 20.7221 12.8716 20.7221 10.6139C20.7216 8.73462 20.2582 7.00128 19.3322 5.41386Z" fill="url(#paint0_linear_2336_2176)"/>
<defs>
<linearGradient id="paint0_linear_2336_2176" x1="0" y1="0.253586" x2="17.6678" y2="7.97715" gradientUnits="userSpaceOnUse">
<stop stop-color="#F67448"/>
<stop offset="0.351285" stop-color="#EE6644"/>
<stop offset="1" stop-color="#DF371B"/>
</linearGradient>
</defs>
</svg>
