<svg width="20" height="21" viewBox="0 0 20 21" fill="none" xmlns="http://www.w3.org/2000/svg">
<path d="M19.9356 5.91293C19.9244 5.07177 19.7669 4.23898 19.4702 3.4518C19.213 2.78782 18.82 2.1848 18.3165 1.68129C17.813 1.17777 17.21 0.784819 16.546 0.527543C15.7689 0.235848 14.948 0.0781223 14.1182 0.061084C13.0498 0.0133275 12.711 0 9.99889 0C7.28676 0 6.93914 7.44727e-08 5.8785 0.061084C5.04904 0.0782475 4.22851 0.235971 3.4518 0.527543C2.78771 0.784639 2.18461 1.17753 1.68107 1.68107C1.17753 2.18461 0.784639 2.78771 0.527543 3.4518C0.235263 4.22827 0.07788 5.04899 0.0621946 5.8785C0.014438 6.94802 0 7.28676 0 9.99889C0 12.711 -8.27475e-09 13.0575 0.0621946 14.1193C0.0788538 14.95 0.235451 15.7697 0.527543 16.5482C0.785071 17.2121 1.17825 17.8149 1.68196 18.3183C2.18567 18.8216 2.78883 19.2143 3.45291 19.4713C4.22749 19.7748 5.04817 19.9438 5.87961 19.9711C6.94913 20.0189 7.28787 20.0333 10 20.0333C12.7121 20.0333 13.0598 20.0333 14.1204 19.9711C14.9502 19.9548 15.7712 19.7974 16.5482 19.5058C17.212 19.2482 17.8149 18.8551 18.3183 18.3517C18.8218 17.8482 19.2149 17.2453 19.4725 16.5815C19.7646 15.8041 19.9211 14.9845 19.9378 14.1526C19.9856 13.0842 20 12.7454 20 10.0322C19.9978 7.32008 19.9978 6.97579 19.9356 5.91293ZM9.99223 15.1277C7.15571 15.1277 4.85784 12.8299 4.85784 9.99334C4.85784 7.15682 7.15571 4.85895 9.99223 4.85895C11.354 4.85895 12.6599 5.39989 13.6228 6.36278C14.5857 7.32566 15.1266 8.63161 15.1266 9.99334C15.1266 11.3551 14.5857 12.661 13.6228 13.6239C12.6599 14.5868 11.354 15.1277 9.99223 15.1277ZM15.331 5.86628C15.1737 5.86643 15.0179 5.83556 14.8726 5.77544C14.7273 5.71533 14.5953 5.62715 14.4841 5.51594C14.3729 5.40474 14.2847 5.2727 14.2246 5.12737C14.1644 4.98205 14.1336 4.8263 14.1337 4.66904C14.1337 4.51188 14.1647 4.35627 14.2248 4.21108C14.285 4.06589 14.3731 3.93397 14.4842 3.82285C14.5953 3.71173 14.7273 3.62358 14.8725 3.56344C15.0176 3.5033 15.1733 3.47235 15.3304 3.47235C15.4876 3.47235 15.6432 3.5033 15.7884 3.56344C15.9336 3.62358 16.0655 3.71173 16.1766 3.82285C16.2877 3.93397 16.3759 4.06589 16.436 4.21108C16.4961 4.35627 16.5271 4.51188 16.5271 4.66904C16.5271 5.33096 15.9918 5.86628 15.331 5.86628Z" fill="#E43D32"/>
<path d="M9.99241 13.3286C11.8344 13.3286 13.3276 11.8354 13.3276 9.99339C13.3276 8.15142 11.8344 6.6582 9.99241 6.6582C8.15044 6.6582 6.65723 8.15142 6.65723 9.99339C6.65723 11.8354 8.15044 13.3286 9.99241 13.3286Z" fill="#E43D32"/>
</svg>
