<svg width="20" height="20" viewBox="0 0 20 20" fill="none" xmlns="http://www.w3.org/2000/svg">
<path d="M3.33333 1.5C2.44928 1.5 1.60143 1.85821 0.976311 2.49584C0.351189 3.13346 0 3.99826 0 4.9V5.2417L10 10.7344L20 5.7434V5.4C20 4.49826 19.6488 3.63346 19.0237 2.99584C18.3986 2.35821 17.5507 2 16.6667 2H3.33333ZM20 7.6729L10.395 12.948C10.2736 13.0147 10.1379 13.0496 10 13.0496C9.86212 13.0496 9.7264 13.0147 9.605 12.948L0 7.6729V15.6C0 16.5017 0.351189 17.3665 0.976311 18.0042C1.60143 18.6418 2.44928 19 3.33333 19H16.6667C17.5507 19 18.3986 18.6418 19.0237 18.0042C19.6488 17.3665 20 16.5017 20 15.6V7.6729Z" fill="#E43D32"/>
</svg>
