<svg width="20" height="17" viewBox="0 0 20 17" fill="none" xmlns="http://www.w3.org/2000/svg">
<path id="Vector" d="M3.33333 0C2.44928 0 1.60143 0.358213 0.976311 0.995837C0.351189 1.63346 0 2.49826 0 3.4V3.7417L10 9.2344L20 3.7434V3.4C20 2.49826 19.6488 1.63346 19.0237 0.995837C18.3986 0.358213 17.5507 0 16.6667 0H3.33333ZM20 5.6729L10.395 10.948C10.2736 11.0147 10.1379 11.0496 10 11.0496C9.86212 11.0496 9.7264 11.0147 9.605 10.948L0 5.6729V13.6C0 14.5017 0.351189 15.3665 0.976311 16.0042C1.60143 16.6418 2.44928 17 3.33333 17H16.6667C17.5507 17 18.3986 16.6418 19.0237 16.0042C19.6488 15.3665 20 14.5017 20 13.6V5.6729Z" fill="#E43D32"/>
</svg>
