<?xml version="1.0" encoding="UTF-8"?>
<svg fill="none" viewBox="0 0 74 19" xmlns="http://www.w3.org/2000/svg">
    <g clip-path="url(#a)">
        <path
            d="m7.2051 1.8069c0-0.99793-0.80646-1.8069-1.8013-1.8069-0.99482 0-1.8013 0.80898-1.8013 1.8069v15.386c0 0.9979 0.80646 1.8069 1.8013 1.8069 0.99481 0 1.8013-0.809 1.8013-1.8069v-15.386z"
            fill="#3F6499" />
        <path
            d="m13.438 3.6108c0.9957 0 1.8028-0.80829 1.8028-1.8054 0-0.99708-0.8071-1.8054-1.8028-1.8054h-11.636c-0.99566 0-1.8028 0.8083-1.8028 1.8054 0 0.99709 0.80714 1.8054 1.8028 1.8054h11.636z"
            fill="#3F6499" />
        <path
            d="m15.531 8.1647c-1.0687 0.00181-2.1129 0.32108-3.0006 0.91749-0.8877 0.5964-1.5791 1.4431-1.9868 2.4332s-0.5135 2.0792-0.3039 3.1295 0.7252 2.0148 1.4815 2.7715c0.7563 0.7568 1.7195 1.2719 2.7677 1.4802 1.0483 0.2083 2.1347 0.1004 3.1219-0.3099 0.9871-0.4103 1.8308-1.1047 2.4243-1.9954 0.5936-0.8908 0.9104-1.9378 0.9104-3.009 0-0.7122-0.1401-1.4174-0.4124-2.0753-0.2722-0.6579-0.6712-1.2556-1.1741-1.7588-0.5029-0.50319-1.0998-0.90207-1.7567-1.1738-0.6568-0.27172-1.3607-0.41097-2.0713-0.40976zm0 7.2245c-0.3555-0.0048-0.7016-0.1148-0.9949-0.3163-0.2932-0.2014-0.5205-0.4853-0.6532-0.8158-0.1327-0.3306-0.165-0.6931-0.0927-1.042s0.2459-0.6686 0.499-0.9188c0.253-0.2503 0.5743-0.42 0.9233-0.4877 0.349-0.0678 0.7103-0.0306 1.0383 0.1068 0.328 0.1375 0.6081 0.3691 0.8051 0.6657 0.1971 0.2965 0.3022 0.6449 0.3022 1.0012 1e-4 0.2394-0.0474 0.4764-0.1395 0.6972s-0.2271 0.4211-0.3971 0.5892-0.3716 0.3007-0.5931 0.3901c-0.2216 0.0893-0.4586 0.1337-0.6974 0.1304z"
            fill="#3F6499" />
        <path
            d="m63.186 0.048828v17.147c0.0191 0.466 0.2173 0.9065 0.553 1.2295 0.3357 0.3229 0.783 0.5032 1.2483 0.5032s0.9126-0.1803 1.2483-0.5032c0.3357-0.323 0.5339-0.7635 0.553-1.2295v-17.147h-3.6026z"
            fill="#E43D32" />
        <path
            d="m27.064 0.036636h3.6025v17.16c0 0.2372-0.0466 0.4722-0.1372 0.6914-0.0906 0.2193-0.2234 0.4184-0.3908 0.5862s-0.3661 0.3009-0.5849 0.3917c-0.2187 0.0908-0.4531 0.1376-0.6899 0.1376-0.4781 0-0.9366-0.1904-1.2747-0.5293-0.3381-0.3388-0.5281-0.7984-0.5281-1.2776v-17.16h0.0031z"
            fill="#E43D32" />
        <path
            d="m72.596 8.9949c0.441-0.50925 0.782-1.0975 1.005-1.7336 0.2873-0.81613 0.3755-1.6894 0.2572-2.5466-0.1183-0.85729-0.4397-1.6737-0.9373-2.381s-1.1569-1.2849-1.9229-1.6845c-0.7659-0.39961-1.6161-0.6096-2.4796-0.61242h-7.2477c-0.4723-0.0044972-0.928 0.17449-1.2715 0.49942s-0.5481 0.77054-0.5709 1.2434c-0.0102 0.24184 0.0281 0.48327 0.1128 0.70996s0.2139 0.43402 0.3801 0.60967c0.1662 0.17566 0.3659 0.31606 0.5872 0.41287 0.2214 0.09681 0.4599 0.14807 0.7014 0.15071h7.2477c0.4769-0.0059 0.9372 0.17532 1.2825 0.50495 0.3454 0.32963 0.5485 0.78154 0.566 1.2592v0.11903c-0.0267 0.47121-0.2338 0.91391-0.5782 1.2358-0.3444 0.32186-0.7995 0.49804-1.2703 0.49177h-5.317c-0.4718-0.00453-0.9271 0.17404-1.2705 0.49832s-0.5484 0.76914-0.5719 1.2414c-9e-3 0.24262 0.0308 0.48457 0.1172 0.7114s0.2175 0.43393 0.3855 0.60883c0.1679 0.1749 0.3694 0.3141 0.5922 0.4093 0.2229 0.0951 0.4626 0.1443 0.7048 0.1445h5.5089c0.2339-0.0049 0.4665 0.0372 0.6839 0.1238 0.2175 0.0865 0.4154 0.2158 0.5823 0.3802 0.1669 0.1643 0.2992 0.3605 0.3893 0.577 0.09 0.2164 0.136 0.4487 0.1351 0.6832v4.5447c-4e-4 0.237 0.0459 0.4718 0.1362 0.6908 0.0903 0.2191 0.2229 0.4181 0.3901 0.5857 0.1672 0.1675 0.3657 0.3004 0.5843 0.3909 0.2185 0.0905 0.4527 0.1369 0.6892 0.1365 0.2366 4e-4 0.4709-0.046 0.6897-0.1364 0.2187-0.0905 0.4174-0.2233 0.5849-0.3909 0.1674-0.1675 0.3003-0.3665 0.3909-0.5855 0.0906-0.2191 0.1373-0.4539 0.1373-0.6911v-4.5569c0.0017-1.3477-0.499-2.6474-1.4039-3.6443z"
            fill="#E43D32" />
        <path
            d="m37.457 3.6627c-0.3709-1.0594-1.0608-1.9773-1.9745-2.6268-0.9137-0.64953-2.0061-0.99867-3.1263-0.9992h-7.2904c-0.4781 0-0.9367 0.19037-1.2748 0.52923s-0.528 0.79845-0.528 1.2777c0 0.47923 0.1899 0.93882 0.528 1.2777s0.7967 0.52923 1.2748 0.52923h7.2904c0.2427-0.01001 0.485 0.02928 0.7123 0.1155 0.2272 0.08622 0.4347 0.21759 0.61 0.38622 0.1754 0.16863 0.3148 0.37104 0.4101 0.59507s0.1444 0.46506 0.1444 0.70859c0 0.24354-0.0491 0.48456-0.1444 0.70859s-0.2347 0.42644-0.4101 0.59508c-0.1753 0.16863-0.3828 0.3-0.61 0.38622-0.2273 0.08622-0.4696 0.1255-0.7123 0.1155h-5.4054c-0.4781 0-0.9367 0.19036-1.2748 0.52923-0.338 0.33886-0.528 0.79845-0.528 1.2777s0.19 0.93878 0.528 1.2777c0.3381 0.3389 0.7967 0.5292 1.2748 0.5292h5.4054c0.8633-0.0012 1.7138-0.2095 2.4804-0.6074 0.7667-0.3979 1.4272-0.97386 1.9265-1.6798 0.4992-0.70593 0.8227-1.5213 0.9434-2.3781s0.0352-1.7301-0.2495-2.547z"
            fill="#E43D32" />
        <path
            d="m55.796 0.11905c-0.4776 8.09e-4 -0.9354 0.19154-1.2728 0.53031-0.3375 0.33877-0.527 0.7979-0.527 1.2766v11.656c0.01 0.2434-0.0292 0.4862-0.1152 0.714-0.086 0.2277-0.2171 0.4357-0.3854 0.6114-0.1682 0.1757-0.3702 0.3156-0.5937 0.4111s-0.464 0.1447-0.707 0.1447c-0.2429 0-0.4834-0.0492-0.7069-0.1447-0.2236-0.0955-0.4255-0.2354-0.5938-0.4111-0.1682-0.1757-0.2993-0.3837-0.3853-0.6114-0.086-0.2278-0.1252-0.4706-0.1152-0.714v-8.6988c-0.0192-0.46597-0.2173-0.90649-0.553-1.2294-0.3357-0.32293-0.783-0.50325-1.2483-0.50325s-0.9126 0.18032-1.2483 0.50325c-0.3357 0.32292-0.5339 0.76344-0.553 1.2294v8.708c0.01 0.2433-0.0292 0.4862-0.1152 0.7139-0.086 0.2278-0.2171 0.4358-0.3854 0.6115-0.1682 0.1757-0.3702 0.3155-0.5937 0.411s-0.464 0.1448-0.707 0.1448c-0.2429 0-0.4834-0.0493-0.7069-0.1448-0.2236-0.0955-0.4255-0.2353-0.5938-0.411-0.1682-0.1757-0.2993-0.3837-0.3853-0.6115-0.086-0.2277-0.1252-0.4706-0.1152-0.7139v-11.656c0.0099-0.24333-0.0293-0.48617-0.1153-0.71394-0.086-0.22776-0.2171-0.43575-0.3853-0.61146-0.1683-0.17571-0.3702-0.31552-0.5937-0.41102-0.2236-0.095505-0.464-0.14474-0.707-0.14474s-0.4835 0.049231-0.707 0.14474-0.4255 0.23531-0.5937 0.41102c-0.1683 0.17571-0.2993 0.38369-0.3854 0.61146-0.086 0.22777-0.1252 0.47061-0.1152 0.71394v11.656c7e-4 1.1206 0.3478 2.2136 0.9934 3.1285s1.5582 1.6069 2.6122 1.9809c0.914 0.324 1.8981 0.3954 2.8492 0.207 0.951-0.1885 1.834-0.6301 2.5562-1.2783 0.7781 0.6993 1.7419 1.1576 2.7746 1.3192 1.0327 0.1617 2.09 0.0198 3.0439-0.4085 0.9538-0.4283 1.7634-1.1246 2.3305-2.0045 0.5671-0.88 0.8676-1.9059 0.8649-2.9535v-11.656c1e-4 -0.23831-0.047-0.47428-0.1383-0.6943-0.0914-0.22003-0.2253-0.41976-0.394-0.58771-0.1687-0.16795-0.3689-0.30079-0.589-0.39087-0.2201-0.090085-0.4559-0.13563-0.6936-0.13402z"
            fill="#E43D32" />
    </g>
    <defs>
        <clipPath id="a">
            <rect width="74" height="19" fill="#fff" />
        </clipPath>
    </defs>
</svg>