<svg width="20" height="20" viewBox="0 0 20 20" fill="none" xmlns="http://www.w3.org/2000/svg">
<path d="M9.0879 9.0875C8.58387 9.59153 8.58387 10.4085 9.0879 10.9121C9.59153 11.4161 10.4089 11.4161 10.9125 10.9121C11.4165 10.4081 11.4165 9.59113 10.9125 9.0875C10.4085 8.58387 9.59153 8.58387 9.0879 9.0875ZM10 0C4.47702 0 0 4.47702 0 10C0 15.523 4.47702 20 10 20C15.523 20 20 15.523 20 10C20 4.47702 15.523 0 10 0ZM15.0863 5.96976L12.4262 11.7903C12.2975 12.0718 12.0718 12.2975 11.7903 12.4262L5.97016 15.0863C5.29879 15.3931 4.60685 14.7012 4.91371 14.0298L7.57419 8.20927C7.70286 7.92779 7.92859 7.70205 8.21008 7.57339L14.0302 4.91331C14.7016 4.60685 15.3931 5.29839 15.0863 5.96976Z" fill="#E43D32"/>
</svg>
