<svg width="20" height="20" viewBox="0 0 20 20" fill="none" xmlns="http://www.w3.org/2000/svg">
<path d="M10 0C15.523 0 20 4.477 20 10C20 15.523 15.523 20 10 20C4.477 20 0 15.523 0 10C0 4.477 4.477 0 10 0ZM12 11.4L10.436 12.651C10.3811 12.6949 10.3361 12.75 10.3039 12.8125C10.2717 12.875 10.2531 12.9436 10.2492 13.0138C10.2453 13.084 10.2563 13.1543 10.2814 13.22C10.3066 13.2856 10.3453 13.3453 10.395 13.395L11.634 14.634C11.8739 14.8742 12.0487 15.1715 12.142 15.498L12.317 16.111C12.3896 16.3682 12.5185 16.606 12.6944 16.8072C12.8703 17.0083 13.0888 17.1678 13.334 17.274C14.2906 16.8345 15.1513 16.211 15.867 15.439L15.633 13.562C15.5921 13.2354 15.4711 12.924 15.281 12.6554C15.0909 12.3868 14.8374 12.1692 14.543 12.022L13.073 11.286C12.902 11.2004 12.71 11.1657 12.5198 11.1859C12.3296 11.2061 12.1492 11.2804 12 11.4ZM10 2C8.77605 1.99896 7.56823 2.27922 6.46981 2.81916C5.37139 3.35909 4.41175 4.14425 3.665 5.114L3.5 5.335V7.02C3.49987 7.6305 3.68601 8.22651 4.03355 8.72844C4.38109 9.23036 4.87349 9.61431 5.445 9.829L5.623 9.889L6.913 10.284C8.286 10.704 9.623 9.587 9.49 8.188L9.471 8.043L9.296 6.994C9.25733 6.76163 9.30193 6.52307 9.42194 6.32037C9.54195 6.11767 9.72967 5.96384 9.952 5.886L10.06 5.856L10.672 5.716C11.0192 5.63663 11.3471 5.48851 11.6361 5.28038C11.9252 5.07225 12.1696 4.80833 12.355 4.50419C12.5404 4.20005 12.663 3.86185 12.7155 3.50955C12.7681 3.15726 12.7496 2.79801 12.661 2.453C11.8061 2.15212 10.9063 1.99894 10 2Z" fill="#E43D32"/>
</svg>
