<svg width="20" height="14" viewBox="0 0 20 14" fill="none" xmlns="http://www.w3.org/2000/svg">
<path d="M15.8463 -3.05176e-05H4.15374C1.85969 -3.05176e-05 0 1.83962 0 4.10895V9.89099C0 12.1603 1.85969 14 4.15374 14H15.8463C18.1403 14 20 12.1603 20 9.89099V4.10895C20 1.83962 18.1403 -3.05176e-05 15.8463 -3.05176e-05ZM13.0371 7.28129L7.56814 9.86155C7.42241 9.9303 7.25408 9.8252 7.25408 9.6655V4.34371C7.25408 4.18174 7.42684 4.07677 7.57287 4.14998L13.0418 6.89152C13.2044 6.97302 13.2016 7.20369 13.0371 7.28129Z" fill="url(#paint0_linear_224_990)"/>
<defs>
<linearGradient id="paint0_linear_224_990" x1="0.647808" y1="-1.15916" x2="0.691192" y2="-1.15916" gradientUnits="userSpaceOnUse">
<stop stop-color="#E43D32"/>
</linearGradient>
</defs>
</svg>
