<svg width="100%" height="100%" viewBox="0 0 36 36" version="1.1" xmlns="http://www.w3.org/2000/svg" xmlns:xlink="http://www.w3.org/1999/xlink" xml:space="preserve"><path d="M16.929,17.86c-0.125,0.726 -0.089,1.242 -0.05,1.791c0.021,0.277 0.042,0.564 0.041,0.887c-1.29,-0.414 -2.583,-1.708 -3.225,-2.824c-0.595,-1.032 -0.924,-4.221 -0.005,-5c0.146,-0.048 0.278,-0.074 0.394,-0.074c0.376,0 0.934,-0.376 0.934,-0.376c0.289,-0.148 0.519,-0.261 0.682,-0.261c0.202,0 0.395,0.185 0.679,1.085c0.243,0.768 0.449,1.194 0.6,1.503c0.332,0.687 0.383,0.793 -0.05,3.269M26.494,25.256c0.918,0.176 1.785,0.342 2.109,0.342c0.034,0 0.063,-0.001 0.084,-0.005c0.044,-0.007 0.086,-0.03 0.111,-0.066l0.092,-0.135c0,-0.001 0.04,-0.07 0.042,-0.072l0.033,-0.09c0.032,-0.081 -0.008,-0.17 -0.089,-0.203l-2.326,-0.914l1.533,-0.635c0.063,-0.024 0.103,-0.089 0.098,-0.156c-0.005,-0.068 -0.052,-0.124 -0.119,-0.142c-0.246,-0.063 -0.479,-0.094 -0.711,-0.094c-0.563,0 -1.019,0.188 -1.461,0.369c-0.466,0.192 -0.948,0.392 -1.586,0.392c-0.266,0 -0.537,-0.033 -0.831,-0.102c0.594,-0.732 3.171,-2.506 4.993,-2.506c0.407,0 0.742,0.093 0.972,0.253c0.173,0.195 0.216,0.458 0.258,0.714c0.041,0.231 0.079,0.472 0.215,0.661c0.03,0.042 0.079,0.066 0.129,0.065c0.007,0 0.014,0 0.021,-0.002c0.059,-0.007 0.107,-0.045 0.127,-0.1c0.199,-0.528 0.364,-1.066 0.493,-1.601c0.019,-0.082 -0.086,-0.181 -0.166,-0.205c-0.367,-0.111 -0.718,-0.218 -0.908,-0.522c0.183,-0.289 0.541,-0.436 1.178,-0.484c0.075,-0.005 0.136,-0.063 0.145,-0.137c0.038,-0.31 0.063,-0.617 0.082,-0.928c0.003,-0.059 -0.025,-0.113 -0.075,-0.145c-0.025,-0.015 -0.054,-0.022 -0.082,-0.022c-0.029,0 -0.058,0.008 -0.083,0.023c-0.102,0.063 -0.209,0.124 -0.321,0.188l-0.22,0.126c-1.369,0.796 -2.6,1.271 -3.846,1.479l2.151,-1.636c0.068,-0.051 0.082,-0.148 0.033,-0.217l-0.221,-0.305c-0.03,-0.042 -0.079,-0.065 -0.128,-0.065c-0.031,0 -0.062,0.009 -0.089,0.027l-0.853,0.57l0.421,-2.026c0.008,-0.047 -0.005,-0.098 -0.035,-0.135c-0.03,-0.035 -0.076,-0.055 -0.121,-0.055l-0.008,0c-0.758,0.037 -0.821,0.634 -0.877,1.163c-0.015,0.137 -0.028,0.277 -0.056,0.417c-0.055,0.295 -0.3,0.627 -0.536,0.947c-0.112,0.153 -0.223,0.302 -0.313,0.447c-0.232,0.372 -0.396,0.64 -0.516,0.842c-0.349,0.583 -0.349,0.583 -0.828,0.944c-0.189,0.141 -0.446,0.335 -0.814,0.629c-0.411,0.329 -0.89,0.653 -1.354,0.969c-0.464,0.314 -0.945,0.64 -1.357,0.971c-0.223,0.177 -0.459,0.542 -0.709,0.93c-0.368,0.568 -0.826,1.277 -1.208,1.277c-0.082,0 -0.164,-0.035 -0.217,-0.07c-0.065,-0.11 -0.029,-0.478 0.009,-0.865c0.075,-0.748 0.176,-1.773 -0.174,-2.761c-0.413,-1.162 -0.333,-2.197 0.234,-2.997c0.627,-0.888 1.795,-1.397 3.202,-1.397c0.182,0 0.365,0.008 0.554,0.025c0.352,0.033 0.811,0.378 1.255,0.712c0.466,0.351 0.908,0.682 1.272,0.682c0.166,0 0.391,-0.068 0.526,-0.393c0.028,-0.07 0.005,-0.151 -0.06,-0.193l-1.741,-1.144c0.426,-0.508 2.769,-1.923 3.601,-2.063c0.06,-0.012 0.117,-0.016 0.172,-0.016c0.402,0 0.689,0.265 0.994,0.543c0.208,0.192 0.424,0.391 0.69,0.516c0.183,0.085 0.453,0.104 0.646,0.104c0.285,0 0.604,-0.037 0.901,-0.104c0.079,-0.018 0.133,-0.092 0.123,-0.171c-0.025,-0.22 -0.058,-0.438 -0.093,-0.654c-0.012,-0.076 -0.075,-0.132 -0.15,-0.133l-1.217,-0.029c-0.154,-0.047 -0.695,-0.407 -0.969,-0.638l1.896,-0.47c0.042,-0.009 0.075,-0.036 0.097,-0.074c0.022,-0.037 0.027,-0.081 0.016,-0.122c-0.119,-0.422 -0.259,-0.839 -0.416,-1.236c-0.02,-0.055 -0.073,-0.093 -0.134,-0.099c-0.004,0 -0.009,0 -0.012,0c-0.056,0 -0.107,0.03 -0.136,0.079c-0.074,0.123 -0.171,0.281 -0.292,0.418c-0.316,0.359 -0.55,0.39 -0.873,0.432c-0.211,0.028 -0.447,0.06 -0.739,0.181c-0.189,0.079 -0.338,0.205 -0.482,0.328c-0.228,0.192 -0.442,0.375 -0.81,0.375c-0.079,0 -0.162,-0.008 -0.25,-0.025c-0.11,-0.331 -0.11,-0.602 -0.001,-0.829c0.223,-0.465 0.88,-0.677 1.458,-0.865c0.482,-0.156 0.864,-0.281 1.002,-0.537c0.025,-0.048 0.023,-0.106 -0.003,-0.153c-0.027,-0.048 -0.077,-0.077 -0.133,-0.08l-1.386,-0.04l0.129,-0.461c0.015,-0.053 0.002,-0.111 -0.037,-0.151c-0.03,-0.033 -0.072,-0.049 -0.114,-0.049c-0.012,0 -0.023,0 -0.033,0.003c-0.681,0.146 -0.805,0.473 -0.977,0.926c-0.049,0.133 -0.107,0.284 -0.187,0.453c-0.258,0.551 -0.392,0.566 -0.405,0.566c-0.063,0 -0.168,-0.132 -0.245,-0.228c-0.108,-0.134 -0.221,-0.275 -0.375,-0.344c-0.021,-0.009 -0.044,-0.014 -0.065,-0.014c-0.021,0 -0.044,0.005 -0.063,0.014l-0.227,0.101c-0.08,0.034 -0.115,0.128 -0.08,0.208l0.881,2.004c-0.249,0.168 -0.434,0.271 -0.602,0.362c-0.291,0.163 -0.543,0.304 -1.002,0.702c-0.36,0.313 -0.883,0.485 -1.47,0.485c-0.14,0 -0.281,-0.009 -0.426,-0.027c0,-0.505 0.315,-0.857 0.61,-1.187c0.426,-0.475 0.595,-0.774 0.567,-1.003c-0.021,-0.171 -0.142,-0.254 -0.223,-0.309c-0.01,-0.006 -0.021,-0.015 -0.031,-0.021l0.558,-0.732c0.037,-0.05 0.044,-0.113 0.017,-0.168c-0.026,-0.053 -0.08,-0.087 -0.141,-0.087l-0.003,0c-1.01,0.015 -1.998,2.313 -2.328,3.237c-0.021,-0.006 -0.039,-0.011 -0.059,-0.011c-0.027,0 -0.056,0.007 -0.081,0.022l-2.656,1.571c-0.072,-0.64 0.212,-2.154 0.423,-2.777c0.095,-0.271 0.465,-0.67 0.825,-1.056c0.293,-0.313 0.595,-0.638 0.787,-0.932c0.182,-0.276 0.336,-0.523 0.475,-0.743c0.712,-1.137 0.929,-1.48 1.923,-1.48c0.529,0 1.305,0.108 2.264,0.248c0.007,0.001 0.014,0.001 0.021,0.001c0.042,0 0.082,-0.016 0.112,-0.045l0.093,-0.092c0.03,-0.03 0.045,-0.07 0.045,-0.112c0,-0.042 -0.015,-0.083 -0.045,-0.111l-0.62,-0.615c0.66,-0.589 1.109,-0.748 2.34,-1.012c0.167,-0.037 0.378,-0.091 0.591,-0.149c0.053,-0.014 0.094,-0.056 0.111,-0.108c0.015,-0.054 0.001,-0.11 -0.035,-0.151c-0.231,-0.251 -0.475,-0.493 -0.728,-0.728c-0.028,-0.027 -0.067,-0.042 -0.107,-0.042c-0.005,0 -0.01,0 -0.014,0c-0.045,0.003 -0.085,0.027 -0.112,0.062c-0.285,0.371 -0.566,0.537 -0.915,0.537c-0.075,0 -0.154,-0.008 -0.237,-0.023l0.152,-1.455c0.007,-0.057 -0.019,-0.112 -0.064,-0.145l-0.169,-0.118c-0.026,-0.018 -0.059,-0.027 -0.091,-0.027c-0.012,0 -0.023,0 -0.035,0.003c-0.485,0.109 -0.569,0.745 -0.658,1.418c-0.065,0.503 -0.141,1.073 -0.397,1.275c-0.32,0.25 -1.126,0.4 -1.838,0.532c-0.348,0.064 -0.678,0.125 -0.95,0.196c-0.306,-1.988 0.352,-3.744 1.662,-4.403c0.056,-0.028 0.089,-0.084 0.087,-0.146c-0.002,-0.061 -0.038,-0.115 -0.094,-0.14c-0.283,-0.123 -0.569,-0.235 -0.856,-0.336c-0.019,-0.006 -0.035,-0.009 -0.054,-0.009c-0.038,0 -0.075,0.014 -0.105,0.041c-0.047,0.042 -0.092,0.083 -0.136,0.122l0.021,-0.031c0.029,-0.041 0.035,-0.093 0.021,-0.141c-0.017,-0.047 -0.054,-0.084 -0.103,-0.1c-0.258,-0.084 -0.518,-0.158 -0.779,-0.224c-0.012,-0.003 -0.024,-0.004 -0.038,-0.004c-0.044,0 -0.087,0.019 -0.117,0.053c-0.039,0.044 -0.051,0.106 -0.028,0.162c0.223,0.578 0.09,2.155 -0.243,2.861c-0.023,0.051 -0.047,0.092 -0.069,0.126l-0.482,-1.539c-0.014,-0.042 -0.044,-0.076 -0.082,-0.095c-0.021,-0.01 -0.045,-0.015 -0.068,-0.015c-0.021,0 -0.039,0.003 -0.058,0.01c-0.55,0.211 -0.363,0.9 -0.129,1.772c0.417,1.546 1.044,3.872 -1.583,5.578c-0.686,-0.754 -1.195,-3.546 -0.969,-5.436c0.107,-0.887 0.369,-1.478 0.741,-1.662c0.293,-0.146 0.962,-0.576 1.607,-0.991c0.402,-0.258 0.787,-0.505 1.035,-0.654c0.058,-0.034 0.086,-0.098 0.076,-0.163c-0.012,-0.063 -0.061,-0.115 -0.124,-0.127c-0.252,-0.052 -0.503,-0.097 -0.755,-0.135c-0.007,-0.001 -0.04,-0.001 -0.048,0c-0.016,-0.007 -0.032,-0.013 -0.051,-0.014c-0.189,-0.028 -0.381,-0.05 -0.571,-0.068c-0.005,-0.001 -0.01,-0.001 -0.016,-0.001c-0.065,0 -0.124,0.04 -0.146,0.102l-0.108,0.291c-0.143,0.394 -0.714,0.893 -1.274,1.017l0.041,-1.302c0.001,-0.044 -0.014,-0.085 -0.045,-0.117c-0.028,-0.029 -0.07,-0.046 -0.11,-0.046l-0.005,0c-0.245,0.006 -0.487,0.022 -0.732,0.042c-0.042,0.003 -0.081,0.024 -0.108,0.057c-0.028,0.033 -0.04,0.076 -0.036,0.117c0.127,1.188 -0.078,2.253 -0.191,2.355c-0.008,-0.005 -0.234,-0.146 -0.481,-1.724c-0.012,-0.076 -0.082,-0.134 -0.16,-0.134c-0.167,0 -0.304,0.089 -0.438,0.173c-0.115,0.075 -0.225,0.145 -0.335,0.145c-0.145,0 -0.314,-0.131 -0.503,-0.388l-0.114,0.083c-0.001,-0.002 -0.004,-0.005 -0.005,-0.008l0.071,-0.155c-0.03,-0.047 -0.081,-0.075 -0.134,-0.075c-0.014,0 -0.028,0.002 -0.043,0.006c-0.216,0.061 -0.429,0.127 -0.641,0.198c-0.055,0.02 -0.096,0.066 -0.105,0.124c-0.01,0.058 0.013,0.116 0.059,0.151c0.707,0.545 1.548,1.336 1.79,1.792c0.249,0.469 0.457,0.64 0.606,0.766c0.261,0.213 0.319,0.261 0.037,2.823l-0.895,-0.091l-0.788,0.178c-0.088,0.008 -0.171,0.012 -0.25,0.012c-0.625,0.001 -1.07,-0.264 -1.22,-0.726c-0.127,-0.39 -0.003,-0.843 0.311,-1.076l0.812,-0.88c0.039,-0.042 0.051,-0.1 0.034,-0.154c-0.031,-0.096 -0.031,-0.127 -0.031,-0.138c0,-0.064 -0.059,-0.147 -0.119,-0.172c-0.012,-0.004 -0.033,-0.014 -0.069,-0.034l-0.023,-0.131c-0.009,-0.059 -0.053,-0.106 -0.109,-0.124c-0.016,-0.004 -0.031,-0.007 -0.045,-0.007c-0.043,0 -0.084,0.018 -0.114,0.049l-1.312,1.379l-0.178,-2.234c-0.004,-0.064 -0.049,-0.12 -0.111,-0.138c-0.016,-0.005 -0.031,-0.008 -0.046,-0.008c-0.047,0 -0.093,0.021 -0.123,0.06l-0.448,0.563l-0.04,-0.646c-0.004,-0.055 -0.036,-0.104 -0.085,-0.13c-0.023,-0.012 -0.048,-0.018 -0.073,-0.018c-0.028,0 -0.056,0.008 -0.082,0.022c-0.199,0.121 -0.395,0.247 -0.588,0.379c-0.06,0.041 -0.083,0.116 -0.06,0.183c-0.116,0.073 -0.222,0.112 -0.321,0.117c-0.032,0.001 -0.061,0.013 -0.086,0.031c-0.106,0.08 -0.21,0.164 -0.314,0.247l-0.065,0.053c-0.042,0.034 -0.065,0.088 -0.057,0.143c0.006,0.054 0.041,0.101 0.092,0.124l1.521,0.686c0.068,0.425 -0.013,0.61 -0.079,0.762c-0.133,0.302 -0.141,0.492 0.336,1.042l0.135,0.152c0.295,0.333 0.662,0.748 0.848,1.148c0.317,0.689 0.083,1.501 -0.167,2.361c-0.11,0.38 -0.223,0.771 -0.291,1.163l-1.759,-0.645l-1.907,-3.854c-0.028,-0.055 -0.083,-0.088 -0.142,-0.088c-0.013,0 -0.025,0 -0.038,0.004c-0.289,0.071 -0.445,0.378 -0.572,0.623c-0.034,0.067 -0.066,0.13 -0.099,0.184c-0.031,0.052 -0.03,0.118 0.003,0.169l1.788,2.704c-0.082,0.021 -0.183,0.033 -0.294,0.033c-0.863,0 -2.307,-0.649 -2.773,-1.866c-0.023,-0.061 -0.079,-0.1 -0.143,-0.102l-0.005,0c-0.062,0 -0.118,0.036 -0.144,0.093c-0.13,0.284 -0.245,0.572 -0.353,0.864c-0.028,0.077 0.007,0.164 0.083,0.198c0.397,0.18 0.716,0.542 0.85,0.774c-0.556,0.307 -0.802,0.343 -1.26,0.41c-0.064,0.009 -0.115,0.056 -0.131,0.118c-0.074,0.306 -0.135,0.613 -0.186,0.922c-0.01,0.059 0.016,0.118 0.064,0.152c0.026,0.02 0.059,0.029 0.092,0.029c0.025,0 0.051,-0.006 0.073,-0.019l0.3,-0.16c0.398,-0.215 0.81,-0.438 1.155,-0.546c0.216,-0.068 0.491,-0.103 0.816,-0.103c1.033,0 2.297,0.338 2.951,0.537l1.033,0.49c0.793,0.518 1.172,1.202 1.813,2.438c0.213,0.411 2.185,2.159 2.528,2.363l0.256,0.151c1.232,0.723 1.306,0.767 1.388,2.725c0.044,1.045 -0.296,2.915 -0.747,3.65c-0.779,-0.186 -2.906,-1.937 -3.311,-2.401l0.148,-1.379l0.866,-0.385c0.073,-0.032 0.11,-0.114 0.086,-0.192l-0.074,-0.23c-0.021,-0.065 -0.082,-0.109 -0.15,-0.109l-0.007,0c-0.123,0.005 -0.252,0.018 -0.386,0.03c-0.178,0.018 -0.36,0.034 -0.538,0.034c-0.148,0 -0.274,-0.012 -0.383,-0.038l-0.178,-2.367c-0.005,-0.064 -0.051,-0.121 -0.114,-0.139c-0.015,-0.006 -0.029,-0.007 -0.044,-0.007c-0.049,0 -0.096,0.023 -0.126,0.064l-0.426,0.575l-0.471,-0.722c-0.024,-0.036 -0.062,-0.061 -0.105,-0.068c-0.009,-0.002 -0.019,-0.003 -0.027,-0.003c-0.034,0 -0.067,0.012 -0.095,0.032c-0.548,0.404 -0.171,1.044 0.266,1.786c0.417,0.704 0.929,1.573 0.805,2.479l-0.004,0c-0.626,0 -1.054,-0.216 -1.506,-0.444c-0.257,-0.131 -0.524,-0.265 -0.837,-0.367c-0.99,-0.321 -1.389,-0.505 -1.333,-1.809c0.02,-0.463 0.369,-2.476 0.496,-2.869c0.103,-0.309 0.345,-0.468 0.625,-0.652c0.373,-0.243 0.792,-0.521 0.949,-1.199c0.015,-0.063 -0.011,-0.129 -0.065,-0.166c-0.027,-0.018 -0.058,-0.026 -0.089,-0.026c-0.03,0 -0.062,0.008 -0.089,0.026l-1.513,1.034l-0.081,-0.05l-0.49,-2.466c-0.011,-0.053 -0.048,-0.098 -0.099,-0.117c-0.018,-0.007 -0.037,-0.01 -0.056,-0.01c-0.034,0 -0.069,0.011 -0.097,0.032c-0.729,0.564 -0.406,1.555 -0.122,2.428c0.197,0.605 0.4,1.231 0.214,1.597c-0.061,0.119 -0.163,0.212 -0.312,0.281l-0.508,-1.16c-0.014,-0.032 -0.039,-0.06 -0.071,-0.076l-1.719,-0.899c-0.023,-0.012 -0.048,-0.018 -0.073,-0.018c-0.05,0 -0.098,0.023 -0.127,0.065c-0.138,0.193 -0.188,0.368 -0.153,0.535c0.063,0.293 0.361,0.468 0.707,0.672c0.377,0.223 0.808,0.475 0.964,0.914c0.2,0.56 0.344,0.813 0.449,0.995c0.182,0.318 0.218,0.382 0.203,1.893c-0.142,0.05 -0.317,0.073 -0.519,0.073c-0.362,0 -0.817,-0.081 -1.317,-0.232c-0.016,-0.005 -0.031,-0.008 -0.045,-0.008c-0.043,0 -0.086,0.018 -0.116,0.051c-0.041,0.043 -0.054,0.107 -0.031,0.164c0.12,0.317 0.251,0.629 0.396,0.938c0.02,0.043 0.058,0.074 0.104,0.086c0.225,0.058 0.473,0.112 0.75,0.122c0.093,0.003 0.176,0.005 0.25,0.005c0.307,0 0.48,-0.024 0.595,-0.04c0.051,-0.007 0.089,-0.014 0.126,-0.014c0.093,0 0.204,0.063 0.656,0.321c0,0 0.424,0.237 0.559,0.312c0.397,0.218 0.842,0.461 1.154,0.694c-0.49,0.82 -0.91,0.918 -1.187,0.918c-0.382,0 -0.771,-0.216 -1.181,-0.444c-0.172,-0.096 -0.344,-0.191 -0.516,-0.271c-0.021,-0.01 -0.043,-0.015 -0.066,-0.015c-0.045,0 -0.09,0.02 -0.121,0.057c-0.046,0.056 -0.05,0.133 -0.009,0.191c0.348,0.498 0.723,0.964 1.114,1.388c0.03,0.032 0.071,0.051 0.116,0.051c0.002,0 0.786,-0.033 0.786,-0.033l-0.292,0.408c-0.045,0.063 -0.037,0.152 0.02,0.206c0,0 0.182,0.176 0.247,0.234c0.029,0.025 0.068,0.041 0.105,0.041c0.02,0 0.04,-0.004 0.059,-0.011c0.538,-0.218 0.787,-0.671 1.029,-1.109c0.206,-0.374 0.419,-0.761 0.814,-1.046c0.213,0.002 0.334,0.044 0.488,0.095c0.116,0.039 0.245,0.082 0.426,0.117c0.175,0.033 0.295,0.053 0.382,0.066c0.066,0.011 0.129,0.021 0.145,0.047c0.078,0.147 0.26,0.491 1.289,1.397c0.102,0.09 0.269,0.221 0.471,0.379c0.69,0.544 1.979,1.558 2.099,2.121c0.086,0.39 0.146,0.795 0.189,1.103c0.01,0.072 0.069,0.129 0.143,0.135c0.396,0.035 0.797,0.053 1.193,0.053c0.257,0 0.513,-0.007 0.768,-0.021c0.042,-0.004 0.082,-0.022 0.109,-0.055c0.028,-0.032 0.042,-0.073 0.04,-0.115c-0.037,-0.506 -0.098,-0.965 -0.15,-1.378c-0.131,-1.001 -0.225,-1.725 0.141,-2.14c0.325,-0.37 1.028,-0.535 2.284,-0.535c0.152,0 0.313,0.002 0.482,0.007l0.005,0c0.042,0 0.082,-0.015 0.11,-0.045l0.103,-0.103c0.03,-0.029 0.047,-0.069 0.047,-0.111c0,-0.042 -0.017,-0.082 -0.047,-0.111l-0.622,-0.626c0.565,-1.333 0.76,-1.526 1.155,-1.526c0.166,0 0.372,0.036 0.635,0.083c0.344,0.06 0.771,0.137 1.345,0.176c0.45,0.033 1.368,0.208 2.257,0.377M32.67,17.873c0,8.152 -6.61,14.762 -14.762,14.762c-8.152,0 -14.762,-6.61 -14.762,-14.762c0,-8.152 6.61,-14.762 14.762,-14.762c8.152,0 14.762,6.609 14.762,14.762M35.846,17.989c0,-1.275 -0.147,-2.516 -0.4,-3.716l-1.718,0.71c-0.388,-2.035 -1.163,-3.995 -2.305,-5.758l1.713,-0.71c-1.402,-2.257 -3.3,-4.176 -5.536,-5.611l-0.71,1.715c-0.063,-0.041 -0.119,-0.083 -0.182,-0.124c-1.741,-1.137 -3.623,-1.888 -5.544,-2.284l0.713,-1.717c-1.085,-0.247 -2.201,-0.404 -3.353,-0.444c-0.209,-0.012 -0.407,-0.012 -0.616,-0.012c-0.209,0 -0.406,0 -0.615,0.012c-0.985,0.037 -1.958,0.148 -2.907,0.346c-0.148,0.027 -0.294,0.066 -0.441,0.098l0.71,1.717c-2.03,0.418 -3.979,1.225 -5.725,2.396l-0.223,-0.527l-0.491,-1.183c-2.233,1.436 -4.128,3.352 -5.53,5.606l1.131,0.467l0.581,0.246c-1.175,1.81 -1.938,3.769 -2.316,5.767l-1.719,-0.711c-0.009,0.03 -0.024,0.064 -0.024,0.1c-0.247,1.168 -0.37,2.387 -0.37,3.617c0,1.402 0.166,2.759 0.471,4.063l1.573,-0.652l0.145,-0.059c0.432,2.027 1.253,3.972 2.438,5.712l-1.715,0.708c1.41,2.169 3.276,4.009 5.476,5.381l0.706,-1.7c0.016,0.01 0.029,0.021 0.045,0.03c1.791,1.169 3.728,1.931 5.704,2.317l-0.71,1.715c1.028,0.225 2.094,0.372 3.193,0.41c0.196,0.016 0.406,0.016 0.615,0.016c0.209,0 0.407,0 0.616,-0.016c1.1,-0.036 2.169,-0.183 3.208,-0.405l-0.716,-1.726c2.035,-0.402 3.989,-1.191 5.747,-2.348l0.707,1.713c2.19,-1.376 4.056,-3.218 5.464,-5.391l-1.72,-0.713c0.061,-0.088 0.123,-0.173 0.183,-0.263c1.115,-1.71 1.859,-3.553 2.261,-5.437l1.715,0.709c0.303,-1.305 0.471,-2.667 0.471,-4.064"></path>
</svg>