<svg width="100%" height="100%" viewBox="0 0 41 36" version="1.1" xmlns="http://www.w3.org/2000/svg" xmlns:xlink="http://www.w3.org/1999/xlink" xml:space="preserve"><path d="M26.643,27.604c0.25,-0.229 0.5,-0.476 0.765,-0.75l0.149,-0.065c1.968,0.086 3.592,-0.249 4.709,-0.951c-1.768,2.423 -4.295,4.227 -7.189,5.116c-0.356,0.107 -0.722,0.203 -1.093,0.286c1.072,-0.649 1.98,-1.885 2.659,-3.636M18.234,31.25c0.581,0 1.176,-0.055 1.772,-0.163c0.336,0.207 0.674,0.369 1.011,0.479l-0.051,0c-1.002,0 -1.995,-0.107 -2.966,-0.319c0.079,0.001 0.156,0.003 0.234,0.003M15.443,27.815c0.585,0.155 1.195,0.279 1.812,0.371c0.718,1.117 1.494,1.99 2.308,2.599c-1.822,0.258 -3.547,-0.018 -5.048,-0.802c-0.501,-0.264 -0.981,-0.585 -1.426,-0.962c0.608,-0.123 1.398,-0.528 2.354,-1.206M10.094,25.158c0.344,0.993 0.808,1.892 1.381,2.675c-1.478,-1.371 -2.636,-3.043 -3.404,-4.907c0.532,0.811 1.208,1.559 2.023,2.232M7.908,13.967c-0.31,0.542 -0.562,1.097 -0.756,1.661c0.125,-0.878 0.333,-1.741 0.625,-2.583c0.014,0.299 0.057,0.607 0.131,0.922M8.185,13.51c-0.085,-0.583 -0.055,-1.125 0.09,-1.618c0.093,0.25 0.248,0.527 0.464,0.826c-0.193,0.251 -0.379,0.517 -0.554,0.792M15.143,7.763c0.71,-1.921 1.703,-3.236 2.867,-3.81c0.652,-0.143 1.321,-0.239 1.986,-0.288c0.47,0.084 0.946,0.273 1.418,0.56c-2.185,0.52 -4.387,1.763 -6.271,3.538M21.896,4.124c-0.273,-0.196 -0.552,-0.36 -0.827,-0.491c0.978,0.003 1.948,0.11 2.897,0.318c-0.673,-0.019 -1.372,0.039 -2.07,0.173M26.525,7.382c-0.665,-0.174 -1.37,-0.311 -2.097,-0.407c-0.665,-1.063 -1.382,-1.918 -2.136,-2.544c1.862,-0.285 3.629,-0.015 5.16,0.785c0.502,0.262 0.98,0.585 1.427,0.963c-0.609,0.123 -1.398,0.526 -2.354,1.203M31.875,10.041c-0.346,-0.995 -0.81,-1.893 -1.383,-2.677c1.478,1.372 2.636,3.044 3.405,4.906c-0.533,-0.81 -1.21,-1.556 -2.022,-2.229M31.392,20.549c0.242,-0.635 0.454,-1.29 0.626,-1.954c0.726,1.017 1.213,1.994 1.45,2.912c-0.143,0.221 -0.299,0.447 -0.467,0.672c-0.398,-0.494 -0.938,-1.042 -1.609,-1.63M33.029,22.73c0.318,0.485 0.454,0.892 0.394,1.172c-0.028,0.078 -0.062,0.153 -0.088,0.214c-0.246,0.374 -0.975,0.517 -2.082,0.403c0.664,-0.553 1.258,-1.154 1.776,-1.789M32.926,24.771c-0.866,1.074 -2.512,1.673 -4.695,1.703c0.976,-0.486 1.884,-1.058 2.703,-1.701c0.843,0.121 1.516,0.121 1.992,-0.002M12.234,26.576c0.885,0.467 1.842,0.85 2.848,1.141c-1.007,0.678 -1.813,1.022 -2.344,0.988c-0.238,-0.227 -0.466,-0.472 -0.679,-0.729c-0.041,-0.356 0.019,-0.826 0.175,-1.4M8.049,14.47c0.313,0.971 0.88,1.994 1.688,3.046c-0.501,2.455 -0.45,4.854 0.147,6.976c-1.504,-1.397 -2.444,-3.1 -2.728,-4.943l-0.01,-0.067c-0.012,-0.085 -0.026,-0.17 -0.035,-0.254c-0.177,-1.593 0.146,-3.231 0.938,-4.758M10.576,14.651c-0.309,0.804 -0.562,1.627 -0.75,2.451c-0.777,-1.065 -1.294,-2.093 -1.537,-3.06c0.206,-0.352 0.433,-0.695 0.678,-1.022c0.398,0.494 0.938,1.041 1.609,1.631M8.939,12.469c-0.356,-0.541 -0.479,-0.982 -0.365,-1.27c0.042,-0.07 0.083,-0.142 0.12,-0.196c0.218,-0.235 0.678,-0.361 1.326,-0.361c0.211,0 0.444,0.013 0.695,0.039c-0.664,0.553 -1.26,1.152 -1.776,1.788M9.255,10.384c0.835,-0.725 2.105,-1.153 3.719,-1.251c-0.693,0.39 -1.343,0.824 -1.938,1.293c-0.418,-0.06 -0.797,-0.09 -1.127,-0.09c-0.243,0 -0.462,0.016 -0.654,0.048M29.732,8.622c-0.884,-0.467 -1.84,-0.85 -2.847,-1.14c1.01,-0.678 1.817,-1.019 2.346,-0.989c0.237,0.225 0.465,0.47 0.678,0.729c0.04,0.356 -0.019,0.825 -0.177,1.4M32.085,10.705c1.504,1.397 2.442,3.098 2.728,4.939l0.012,0.095c0.012,0.078 0.024,0.155 0.033,0.232c0.191,1.724 -0.204,3.491 -1.145,5.13c-0.304,-0.933 -0.837,-1.913 -1.594,-2.917c0.621,-2.63 0.606,-5.205 -0.034,-7.479M30.766,24.455c-0.387,-0.059 -0.806,-0.142 -1.251,-0.247c0.353,-0.536 0.679,-1.089 0.968,-1.646c0.293,-0.558 0.561,-1.141 0.799,-1.735c0.652,0.584 1.165,1.119 1.53,1.599c-0.576,0.725 -1.265,1.408 -2.046,2.029M30.454,24.696c-0.747,0.562 -1.563,1.063 -2.437,1.495c0.473,-0.544 0.921,-1.125 1.333,-1.733c0.386,0.096 0.755,0.175 1.104,0.238M17.683,28.243c1.509,0.188 3.08,0.186 4.628,-0.009c1.418,-0.177 2.804,-0.511 4.12,-0.991c-0.015,0.042 -0.03,0.084 -0.047,0.126c-1.935,1.759 -4.118,2.911 -6.322,3.333c-0.834,-0.536 -1.633,-1.36 -2.379,-2.459M14.419,21.872c0.092,0.064 0.183,0.129 0.276,0.192c0.444,1.708 1.023,3.271 1.721,4.651c-0.336,0.274 -0.66,0.523 -0.963,0.742c-1.108,-0.3 -2.154,-0.713 -3.114,-1.229c0.373,-1.169 1.089,-2.672 2.08,-4.356M10.02,17.875c1.083,1.328 2.521,2.65 4.178,3.84c-0.988,1.673 -1.718,3.177 -2.12,4.37c-0.6,-0.341 -1.163,-0.725 -1.674,-1.143c-0.719,-2.113 -0.851,-4.55 -0.384,-7.067M11.201,10.744c0.383,0.058 0.803,0.141 1.251,0.247c-0.353,0.535 -0.677,1.088 -0.969,1.646c-0.292,0.557 -0.559,1.141 -0.797,1.735c-0.65,-0.581 -1.164,-1.117 -1.53,-1.6c0.576,-0.724 1.264,-1.405 2.045,-2.028M13.865,9.11c-0.445,0.519 -0.863,1.066 -1.248,1.631c-0.384,-0.096 -0.754,-0.176 -1.103,-0.239c0.69,-0.519 1.441,-0.986 2.234,-1.393c0.04,0.001 0.078,0.001 0.117,0.001M24.252,7.3c0.249,0.405 0.491,0.843 0.721,1.306c-0.783,0.67 -1.619,1.459 -2.482,2.346c-2.661,-1.201 -5.315,-1.931 -7.691,-2.118c0.024,-0.083 0.048,-0.165 0.072,-0.246c1.52,-0.642 3.143,-1.073 4.829,-1.283c1.519,-0.191 3.066,-0.192 4.551,-0.005M15.397,8.004c1.937,-1.816 4.2,-3.049 6.435,-3.494c0.768,0.568 1.502,1.379 2.184,2.416c-1.431,-0.155 -2.905,-0.143 -4.358,0.038c-1.479,0.184 -2.908,0.534 -4.261,1.04M27.327,13.698c-0.101,-0.07 -0.2,-0.141 -0.304,-0.21c-0.419,-1.763 -0.983,-3.391 -1.677,-4.834c0.41,-0.343 0.803,-0.649 1.169,-0.912c1.107,0.298 2.153,0.711 3.113,1.229c-0.401,1.257 -1.193,2.887 -2.301,4.727M27.549,13.857c1.104,-1.824 1.91,-3.458 2.342,-4.745c0.599,0.341 1.162,0.725 1.675,1.143c0.758,2.234 0.858,4.915 0.281,7.578c-1.099,-1.374 -2.579,-2.744 -4.298,-3.976M28.998,24.367c-0.508,0.735 -1.074,1.437 -1.686,2.088c-0.091,-0.005 -0.183,-0.012 -0.276,-0.018c0.226,-0.771 0.405,-1.607 0.535,-2.49c0.498,0.159 0.978,0.3 1.427,0.42M27.717,17.797c-0.036,-0.418 -0.075,-0.797 -0.12,-1.158c-0.094,-0.747 -0.22,-1.504 -0.375,-2.253c0.056,-0.091 0.112,-0.179 0.165,-0.269c1.777,1.278 3.283,2.699 4.366,4.116c-0.174,0.709 -0.386,1.407 -0.636,2.079c-0.946,-0.804 -2.089,-1.649 -3.4,-2.515M27.745,18.139c1.267,0.847 2.362,1.67 3.265,2.448c-0.244,0.619 -0.522,1.23 -0.829,1.815c-0.307,0.59 -0.65,1.168 -1.017,1.719c-0.486,-0.125 -1.005,-0.276 -1.552,-0.45c0.236,-1.743 0.28,-3.602 0.133,-5.532M27.273,23.849c-0.135,0.909 -0.324,1.77 -0.563,2.562c-2.278,-0.211 -4.809,-0.924 -7.331,-2.062c0.815,-0.833 1.646,-1.739 2.472,-2.703c1.898,0.894 3.768,1.653 5.422,2.203M13.859,17.14c0.036,0.431 0.077,0.83 0.126,1.216c0.122,0.963 0.291,1.927 0.506,2.87c-0.046,0.075 -0.091,0.151 -0.136,0.226c-1.715,-1.239 -3.182,-2.615 -4.253,-3.988c0.183,-0.873 0.436,-1.738 0.75,-2.578c0.846,0.719 1.857,1.477 3.007,2.254M13.96,11.403c-0.226,1.702 -0.27,3.515 -0.129,5.393c-1.104,-0.757 -2.069,-1.49 -2.872,-2.183c0.245,-0.624 0.524,-1.233 0.828,-1.817c0.309,-0.59 0.652,-1.167 1.018,-1.718c0.367,0.092 0.753,0.202 1.155,0.325M12.97,10.833c0.409,-0.593 0.859,-1.167 1.341,-1.71c0.027,0 0.052,0.002 0.08,0.005c-0.16,0.627 -0.292,1.298 -0.393,2c-0.35,-0.108 -0.693,-0.208 -1.028,-0.295M20.118,13.551c-2.056,-0.967 -4.064,-1.771 -5.819,-2.331c0.105,-0.722 0.243,-1.419 0.415,-2.072c2.324,0.165 4.93,0.868 7.552,2.036c-0.707,0.734 -1.43,1.53 -2.148,2.367M26.911,14.374c-0.424,0.677 -0.883,1.37 -1.363,2.062c-0.982,-0.586 -2.013,-1.16 -3.063,-1.709c-0.688,-0.358 -1.398,-0.713 -2.117,-1.056c0.723,-0.841 1.447,-1.637 2.157,-2.369c0.49,0.223 0.946,0.446 1.395,0.679c0.981,0.514 1.935,1.083 2.835,1.693c0.054,0.231 0.106,0.464 0.156,0.7M23.531,19.606c0.73,-0.926 1.436,-1.873 2.095,-2.813c0.623,0.375 1.228,0.755 1.799,1.132c0.165,1.973 0.127,3.872 -0.112,5.648c-1.612,-0.532 -3.431,-1.271 -5.282,-2.139c0.515,-0.604 1.018,-1.217 1.5,-1.828M16.42,18.763c0.985,0.587 2.016,1.162 3.064,1.709c0.69,0.359 1.402,0.715 2.116,1.057c-0.828,0.963 -1.663,1.871 -2.482,2.7c-0.427,-0.197 -0.853,-0.406 -1.27,-0.624c-1.001,-0.523 -1.971,-1.104 -2.885,-1.725c-0.056,-0.215 -0.108,-0.431 -0.158,-0.649c0.489,-0.8 1.031,-1.628 1.615,-2.468M18.647,15.757c0.498,-0.629 1.015,-1.261 1.54,-1.877c0.736,0.35 1.468,0.714 2.175,1.083c1.035,0.541 2.056,1.109 3.033,1.693c-0.652,0.929 -1.35,1.865 -2.075,2.786c-0.494,0.628 -1.013,1.26 -1.54,1.878c-0.739,-0.353 -1.471,-0.717 -2.172,-1.083c-1.036,-0.54 -2.056,-1.11 -3.035,-1.693c0.651,-0.931 1.349,-1.866 2.074,-2.787M14.26,11.497c1.709,0.541 3.667,1.323 5.678,2.266c-0.516,0.606 -1.019,1.222 -1.499,1.829c-0.735,0.932 -1.439,1.879 -2.097,2.815c-0.754,-0.456 -1.491,-0.924 -2.19,-1.393c-0.156,-1.925 -0.121,-3.781 0.108,-5.517M16.19,18.625c-0.523,0.752 -1.017,1.501 -1.47,2.23c-0.18,-0.83 -0.326,-1.682 -0.434,-2.535c-0.038,-0.305 -0.073,-0.621 -0.104,-0.963c0.635,0.422 1.309,0.848 2.008,1.268M25.779,16.573c0.424,-0.611 0.829,-1.22 1.209,-1.816c0.124,0.638 0.227,1.282 0.308,1.92c0.036,0.286 0.069,0.583 0.099,0.907c-0.523,-0.34 -1.065,-0.679 -1.616,-1.011M24.059,11.713c-0.419,-0.22 -0.86,-0.435 -1.31,-0.643c0.812,-0.828 1.602,-1.57 2.349,-2.208c0.63,1.315 1.15,2.786 1.55,4.375c-0.83,-0.548 -1.7,-1.06 -2.589,-1.524M17.707,23.872c0.385,0.201 0.783,0.397 1.184,0.585c-0.774,0.773 -1.522,1.463 -2.225,2.051c-0.631,-1.247 -1.164,-2.651 -1.584,-4.183c0.842,0.555 1.723,1.077 2.625,1.547M25.221,8.396c-0.181,-0.362 -0.37,-0.711 -0.562,-1.041c0.51,0.077 1.012,0.176 1.499,0.295c-0.299,0.226 -0.613,0.474 -0.937,0.746M16.548,26.967c0.152,0.288 0.308,0.565 0.466,0.83c-0.409,-0.07 -0.813,-0.153 -1.205,-0.249c0.241,-0.181 0.488,-0.375 0.739,-0.581M17.431,27.863c-0.21,-0.332 -0.424,-0.703 -0.634,-1.103c0.743,-0.622 1.534,-1.356 2.355,-2.182c2.56,1.167 5.133,1.907 7.462,2.142c-0.01,0.033 -0.022,0.066 -0.032,0.1c-1.373,0.528 -2.824,0.889 -4.313,1.076c-1.625,0.201 -3.271,0.19 -4.838,-0.033M31.326,9.613c-0.414,-0.303 -0.858,-0.586 -1.327,-0.847c0.126,-0.42 0.204,-0.795 0.235,-1.119c0.43,0.594 0.796,1.254 1.092,1.966M10.643,25.587c0.412,0.301 0.857,0.585 1.326,0.847c-0.125,0.42 -0.203,0.794 -0.234,1.118c-0.433,-0.595 -0.797,-1.254 -1.092,-1.965M26.08,28.095c-0.897,1.934 -2.143,3.088 -3.538,3.265c-0.65,0.08 -1.327,-0.047 -2.001,-0.381c1.915,-0.453 3.814,-1.443 5.539,-2.884M34.814,19.579c-0.15,1.061 -0.424,2.098 -0.816,3.104c-0.007,-0.352 -0.056,-0.718 -0.147,-1.097c0.406,-0.65 0.731,-1.321 0.963,-2.007M16.982,4.217c-0.977,0.854 -1.781,2.24 -2.349,4.051l-0.073,0.076c-0.345,0.15 -0.653,0.295 -0.938,0.44c-1.78,0 -3.227,0.356 -4.241,1.036c1.765,-2.634 4.376,-4.592 7.426,-5.55c0.056,-0.016 0.115,-0.036 0.175,-0.053M33.606,23.106c-0.094,-0.196 -0.217,-0.404 -0.377,-0.626c0.112,-0.147 0.226,-0.303 0.342,-0.471c0.06,0.383 0.073,0.75 0.035,1.097M35.227,15.858l-0.002,-0.035c-0.003,-0.025 -0.007,-0.051 -0.013,-0.076l-0.007,-0.044c-0.111,-0.823 -0.29,-1.63 -0.53,-2.397c-1.149,-3.665 -3.648,-6.66 -7.043,-8.432c-2.036,-1.065 -4.325,-1.627 -6.615,-1.627c-0.35,0 -0.705,0.014 -1.026,0.041c-0.343,-0.057 -0.679,-0.066 -0.998,-0.025c-0.364,0.046 -0.728,0.156 -1.053,0.318c-0.433,0.094 -0.854,0.207 -1.252,0.33c-3.664,1.147 -6.658,3.647 -8.431,7.042c-1.353,2.588 -1.876,5.488 -1.517,8.389l0.017,0.118c0.111,0.838 0.292,1.657 0.537,2.438c1.148,3.664 3.648,6.657 7.042,8.429c2.037,1.063 4.324,1.627 6.612,1.627l0.001,0c1.413,0 2.817,-0.209 4.178,-0.62c3.734,-1.124 6.785,-3.641 8.585,-7.085c1.348,-2.585 1.873,-5.479 1.515,-8.391M38.545,29.514c0,2.264 -1.835,4.096 -4.097,4.096l-27.855,0c-2.262,0 -4.096,-1.832 -4.096,-4.096l0,-22.938c0,-2.261 1.834,-4.097 4.096,-4.097l27.854,0c2.262,0 4.097,1.835 4.097,4.097l0,22.938l0.001,0ZM35.266,0.023l-29.491,0c-3.167,0 -5.734,2.566 -5.734,5.733l0,24.579c0,3.166 2.567,5.733 5.734,5.733l29.492,0c3.168,0 5.734,-2.567 5.734,-5.733l0,-24.579c0,-3.167 -2.567,-5.733 -5.735,-5.733"></path>
</svg>