<svg width="8" height="8" viewBox="0 0 8 8" fill="none" xmlns="http://www.w3.org/2000/svg">
<path d="M3.24365 2.43916H4.85358V2.01665H3.83899V1.51102H4.76396V1.08851H3.83899V0.627651H4.81831V0.205139H3.24365V2.43916Z" fill="#64AD5C"/>
<path d="M1.33017 1.53981L1.61821 0.66603H1.62463L1.89024 1.53981H1.33017ZM1.98945 0.20517H1.25973L0.411621 2.43919H1.01646L1.19253 1.96233H2.03105L2.19754 2.43919H2.8504L1.98945 0.20517Z" fill="#64AD5C"/>
<path d="M6.21728 1.99745H5.98694V0.646886H6.21728C6.65255 0.646886 6.91182 0.877316 6.91182 1.32217C6.91182 1.76702 6.66213 1.99745 6.21728 1.99745ZM6.20453 0.2052H5.3916V2.43914H6.20453C6.96626 2.43914 7.52633 2.14785 7.52633 1.31258C7.52633 0.448384 6.98227 0.2052 6.20453 0.2052Z" fill="#64AD5C"/>
<path d="M3.25115 7.02021L3.87807 5.53114H2.97296L4.64537 3.66168L3.95768 5.13106H4.86895L3.25115 7.02021ZM5.27965 2.9133C4.7076 2.9133 4.21653 3.25792 4.00013 3.75062C3.78297 3.25792 3.29224 2.9133 2.72027 2.9133C1.9498 2.9133 1.3252 3.53765 1.3252 4.30846C1.3252 5.83801 2.77377 7.24841 4.00013 7.87191C5.22616 7.24841 6.67439 5.83801 6.67439 4.30846C6.67439 3.53765 6.05004 2.9133 5.27965 2.9133Z" fill="#64AD5C"/>
</svg>
