<svg width="10" height="9" viewBox="0 0 10 9" fill="none" xmlns="http://www.w3.org/2000/svg">
<path d="M0.833496 3.33334V5.00043H1.25016V7.50001H0.833496V8.75001H7.50016L8.75016 8.75043V8.75001H9.16683V7.50001H8.75016V5.00043H9.16683V3.33334L5.00016 0.833344L0.833496 3.33334ZM2.50016 7.50001V5.00043H3.3335V7.50001H2.50016ZM4.5835 7.50001V5.00043H5.41683V7.50001H4.5835ZM7.50016 7.50001H6.66683V5.00043H7.50016V7.50001ZM5.8335 3.33334C5.83347 3.44281 5.81188 3.55119 5.76997 3.65231C5.72805 3.75343 5.66663 3.8453 5.58921 3.92269C5.51179 4.00007 5.41989 4.06144 5.31874 4.10331C5.2176 4.14517 5.10921 4.1667 4.99975 4.16668C4.89028 4.16665 4.7819 4.14506 4.68078 4.10315C4.57966 4.06123 4.48779 3.99981 4.4104 3.92239C4.33302 3.84497 4.27165 3.75307 4.22978 3.65193C4.18792 3.55078 4.16639 3.44239 4.16641 3.33293C4.16647 3.11186 4.25434 2.89987 4.4107 2.74358C4.56706 2.5873 4.77909 2.49954 5.00016 2.49959C5.22123 2.49965 5.43322 2.58752 5.58951 2.74388C5.74579 2.90024 5.83355 3.11227 5.8335 3.33334Z" fill="#293241"/>
</svg>
