<svg width="10" height="8" viewBox="0 0 10 8" fill="none" xmlns="http://www.w3.org/2000/svg">
<path d="M4.68196 7.24429C4.36361 6.87051 3.83221 6.47072 3.31756 6.21779C2.7979 5.96236 2.30431 5.82051 1.7439 5.76565C1.63341 5.75494 1.5418 5.74494 1.54033 5.74351C1.53891 5.74351 1.54176 4.58986 1.54748 3.18308L1.55691 0.625364L1.65893 0.635364C2.28542 0.697507 2.98466 0.934221 3.51371 1.26415C3.96966 1.54844 4.44049 1.98743 4.74067 2.40808L4.81621 2.51394V4.94351C4.81621 6.27972 4.8105 7.37279 4.80364 7.37258C4.7965 7.37236 4.74183 7.31458 4.68196 7.24429ZM5.20093 4.93736V2.49765L5.34681 2.30272C5.53308 2.05386 5.90773 1.67894 6.15547 1.49358C6.81771 0.997935 7.53608 0.717864 8.36081 0.633578L8.46543 0.622864V3.18415V5.74551L8.34406 5.75693C7.1957 5.86379 6.20013 6.33758 5.42141 7.14772L5.20093 7.37715V4.93736ZM5.91243 7.21129C6.36315 6.78843 6.95982 6.45244 7.55918 6.28379C7.87283 6.19558 8.2807 6.13401 8.55146 6.13401C8.69341 6.13401 8.77215 6.10329 8.81657 6.03036C8.85 5.97536 8.85036 5.95172 8.85043 3.87629L8.85048 1.77758L8.91327 1.78901C8.94777 1.79615 9.04573 1.82329 9.1309 1.85044L9.28576 1.89972V4.51894C9.28576 5.95951 9.28004 7.13815 9.27297 7.13815C9.26583 7.13815 9.16233 7.11601 9.04278 7.08886C8.57033 6.98244 8.18125 6.94586 7.67026 6.95965C7.05046 6.97679 6.56877 7.06322 5.99615 7.26108L5.77852 7.33629L5.91243 7.21129ZM4.00394 7.25201C3.76614 7.16686 3.37341 7.06651 3.10829 7.02322C2.74781 6.96465 2.49911 6.94908 2.05729 6.95894C1.61831 6.96822 1.35278 6.99893 0.990548 7.08115C0.889263 7.10401 0.785677 7.12758 0.760355 7.13258L0.714355 7.14258L0.714434 4.51636L0.71452 1.89008L0.911155 1.83294C1.0193 1.80151 1.11721 1.77222 1.12871 1.76865C1.14536 1.76151 1.14964 2.18936 1.14964 3.86501C1.14964 6.15479 1.14464 6.02715 1.24234 6.09136C1.27634 6.11351 1.34698 6.12351 1.54872 6.13565C2.35048 6.18136 3.11123 6.45058 3.73231 6.90865C3.86623 7.00743 4.18766 7.27872 4.20608 7.30851C4.21893 7.32922 4.21036 7.32708 4.00399 7.25279L4.00394 7.25201Z" fill="#815934"/>
</svg>
