<svg width="8" height="10" viewBox="0 0 8 10" fill="none" xmlns="http://www.w3.org/2000/svg">
<path d="M4.8467 1.62187C4.8467 2.07023 4.8467 2.59923 4.8467 2.88077C4.8467 2.988 4.83111 3.10808 4.79309 3.22661C4.73611 3.40245 4.63391 3.57368 4.45227 3.72095H5.25701L5.27031 3.69804C5.41971 3.41849 5.47227 3.13009 5.47242 2.88077C5.47242 2.60702 5.47242 2.09862 5.47242 1.65868C5.47242 1.58384 5.47242 1.51235 5.47242 1.44314L6.10041 1.26364L5.83797 0.345245L4.07861 0.848136L4.34107 1.76638L4.8467 1.62187Z" fill="#D44C4C"/>
<path d="M5.84699 4.08069H2.03805C1.3925 4.08069 0.553223 5.59684 0.553223 7.04041C0.553223 8.48399 1.3925 10 2.03805 10H5.84699C6.49256 10 7.33184 8.48401 7.33184 7.04043C7.33184 5.59686 6.49256 4.08069 5.84699 4.08069ZM1.39479 7.47977C1.37416 7.33618 1.36148 7.18922 1.36148 7.04043C1.36148 6.00838 1.91984 5.04813 2.16945 4.93692H3.51727V7.47977H1.39479ZM6.49025 7.47977H4.22117V4.93692H5.71562C5.96523 5.04813 6.52357 6.00838 6.52357 7.04043C6.52355 7.18922 6.5109 7.33618 6.49025 7.47977Z" fill="#D44C4C"/>
<path d="M7.95408 0.54168L7.79934 0L6.34521 0.415508L6.49996 0.957031L7.95408 0.54168Z" fill="#D44C4C"/>
<path d="M3.56998 1.20844L0.0458984 2.21527L0.200616 2.75681L3.7247 1.74998L3.56998 1.20844Z" fill="#D44C4C"/>
</svg>
