<svg xmlns="http://www.w3.org/2000/svg" width="36" height="36" viewBox="0 0 36 36">
  <g id="guide-dog-pictogram" transform="translate(6.939 0.614)">
    <rect id="Rectangle_2" data-name="Rectangle 2" width="36" height="36" transform="translate(-6.939 -0.614)" fill="rgba(255,255,255,0)"/>
    <path id="Path_26" data-name="Path 26" d="M193.532-467.77a1.381,1.381,0,0,0,.028.539,11.807,11.807,0,0,1,.123,1.474c.019.917,0,1.087-.142,1.191a3.636,3.636,0,0,1-1.03.17,6.175,6.175,0,0,0-1.437.246,1.863,1.863,0,0,1-1.162.1c-.558-.076-.681-.142-1.541-.794-.8-.624-.983-.718-1.314-.718-.359,0-.416.038-.841.577a4.184,4.184,0,0,0-.709,1.389,3.4,3.4,0,0,0-.208,1.682,2.679,2.679,0,0,0,.34,1.352,3.591,3.591,0,0,0,2.372,1.607c1.219.369,1.389.454,1.72.888l.246.312-.189.643a19.756,19.756,0,0,1-1.229,2.58c-.567,1.068-1.04,1.975-1.04,2.013a11.864,11.864,0,0,0,2.694-.1,34.847,34.847,0,0,0,6.238-1.238l.945-.284-.161-3.6c-.151-3.393-.151-3.639,0-4.064a1.45,1.45,0,0,1,.406-.643,2.561,2.561,0,0,0,.548-.7c.284-.491.293-.567.293-1.6a4.13,4.13,0,0,0-.293-1.89,8.057,8.057,0,0,0-.321-.794c-.019.019-.161.34-.321.718-.435,1.04-1.163,1.985-1.541,2-.047,0-.076-.217-.076-.473a3.138,3.138,0,0,0-1.786-2.6C193.636-467.959,193.608-467.959,193.532-467.77Zm-1.059,4.8a.769.769,0,0,1,.444.874.769.769,0,0,1-.775.6.981.981,0,0,1-.747-.794.937.937,0,0,1,.737-.8,1.48,1.48,0,0,1,.342.121Z" transform="translate(-185.28 467.913)" fill="#E43D32"/>
    <path id="Path_27" data-name="Path 27" d="M332.142-392.483c-.633.227-.709.283-3.091,2.145L327-388.74v.482a1.679,1.679,0,0,0,.095.614c.076.113.113.1.3-.057.123-.113.577-.473,1.021-.813s1.418-1.1,2.174-1.682c1.522-1.181,1.777-1.323,2.42-1.323a1.658,1.658,0,0,1,1.415.821,1.658,1.658,0,0,1,.022,1.636c-.217.425-.813.917-5.066,4.2l-.851.662.293.435.293.444.822-.643c.454-.35,1.285-.992,1.852-1.427,2.958-2.287,3.166-2.467,3.488-2.977a2.708,2.708,0,0,0,.339-2.254,2.708,2.708,0,0,0-1.5-1.715A2.6,2.6,0,0,0,332.142-392.483Z" transform="translate(-313.606 399.733)" fill="#E43D32"/>
    <path id="Path_28" data-name="Path 28" d="M217.388-310.155c-.18.076-.879.3-1.559.51a35.5,35.5,0,0,1-7.533,1.276l-1.1.066.038.482c.028.265.255,3.9.51,8.09s.491,7.8.52,8.024a1.592,1.592,0,0,0,.709,1.191,2.086,2.086,0,0,0,.766.142.851.851,0,0,0,.851-.378,1.3,1.3,0,0,0,.406-.775c.038-.227.17-2.089.3-4.14s.274-3.884.331-4.073a1.482,1.482,0,0,1,1.427-1.125,1.73,1.73,0,0,1,1.229.709c.1.18.454,1.909.955,4.641a39.035,39.035,0,0,0,.964,4.6,1.264,1.264,0,0,0,1.172.539.97.97,0,0,0,.794-.274,1.635,1.635,0,0,0,.406-.6,37.9,37.9,0,0,0-.113-4.612c-.113-2.363-.189-4.31-.18-4.329a1.253,1.253,0,0,1,.406.076c.359.095.388.132.482.548.142.662.369,3.374.482,5.661.142,3.024.274,3.45,1.03,3.506.378.028.4.009.548-.331.142-.312.17-.879.2-4.4.047-5.34-.085-6.956-.8-9.659a11.937,11.937,0,0,0-1.266-3.317,11.665,11.665,0,0,0-1.522-2.1C217.757-310.268,217.625-310.259,217.388-310.155Z" transform="translate(-205.128 325.146)" fill="#E43D32"/>
  </g>
</svg>
