<svg xmlns="http://www.w3.org/2000/svg" width="36" height="36" viewBox="0 0 36 36">
  <g id="braille-pictogram" transform="translate(1.587 -3)">
    <rect id="Rectangle_4" data-name="Rectangle 4" width="36" height="36" transform="translate(-1.587 3)" fill="#fff"/>
    <path id="Path_1" data-name="Path 1" d="M172.776-496.746a3.341,3.341,0,0,0-2.218,1.794,3.292,3.292,0,0,0,.066,2.946,3.292,3.292,0,0,0,2.4,1.713,3.306,3.306,0,0,0,2.905-1.018,3.306,3.306,0,0,0,.807-2.971,3.288,3.288,0,0,0-2.487-2.464A2.652,2.652,0,0,0,172.776-496.746Z" transform="translate(-162.546 500.451)"/>
    <path id="Path_2" data-name="Path 2" d="M314.551-496.743a3.4,3.4,0,0,0-2.587,2.472,3.3,3.3,0,0,0,.788,2.985,3.3,3.3,0,0,0,2.912,1.027,3.245,3.245,0,0,0,2.764-3.234,3.282,3.282,0,0,0-2.749-3.257,2.447,2.447,0,0,0-1.128.007Z" transform="translate(-293.279 500.417)"/>
    <path id="Path_3" data-name="Path 3" d="M172.333-382.662a3.445,3.445,0,0,0-2.333,3.18,3.775,3.775,0,0,0,.485,1.656,4.147,4.147,0,0,0,1.494,1.355,2.517,2.517,0,0,0,1.332.208,2.16,2.16,0,0,0,1.4-.262,3.375,3.375,0,0,0,1.848-3.488,3.474,3.474,0,0,0-1.856-2.472,2.3,2.3,0,0,0-1.271-.262,3.685,3.685,0,0,0-1.1.085Z" transform="translate(-162.327 395.137)"/>
    <path id="Path_4" data-name="Path 4" d="M314.482-382.632a3.967,3.967,0,0,0-1.425.824,3.357,3.357,0,0,0-.616,3.95,3.593,3.593,0,0,0,1.5,1.4,2.193,2.193,0,0,0,1.386.262,2.213,2.213,0,0,0,1.44-.293,3.262,3.262,0,0,0,1.555-1.594,2.288,2.288,0,0,0,.239-1.355,2.2,2.2,0,0,0-.293-1.432,3.364,3.364,0,0,0-1.563-1.555,2.276,2.276,0,0,0-1.224-.246A4.907,4.907,0,0,0,314.482-382.632Z" transform="translate(-293.448 395.069)"/>
    <path id="Path_5" data-name="Path 5" d="M172.682-269.612a3.678,3.678,0,0,0-2.079,1.6,3.289,3.289,0,0,0-.331,2.372,3.3,3.3,0,0,0,3.789,2.464,3.3,3.3,0,0,0,2.672-2.772,3.321,3.321,0,0,0-1.917-3.45,2.5,2.5,0,0,0-1.17-.262,4.744,4.744,0,0,0-.964.048Z" transform="translate(-162.491 290.758)"/>
    <path id="Path_6" data-name="Path 6" d="M314.509-269.62a4.066,4.066,0,0,0-.724.277,3.289,3.289,0,0,0-1.779,2.484,3.289,3.289,0,0,0,1.032,2.875,3.265,3.265,0,0,0,2.873.8,3.265,3.265,0,0,0,2.327-1.867,2.316,2.316,0,0,0,.246-1.371,2.2,2.2,0,0,0-.254-1.363,3.172,3.172,0,0,0-1.525-1.563,2.335,2.335,0,0,0-1.247-.316,5.3,5.3,0,0,0-.949.04Z" transform="translate(-293.368 290.759)"/>
    <path id="Path_7" data-name="Path 7" d="M75-136.3v2.7h1.679c2.094-.008,2.364-.085,2.718-.785a1.375,1.375,0,0,0,.147-1.156,1.375,1.375,0,0,0-.794-.854c-.123-.046-.108-.085.123-.285a1.146,1.146,0,0,0,.424-1.1,1.142,1.142,0,0,0-.716-1.047c-.316-.146-.477-.162-1.964-.162H75Zm3.08-1.656a.768.768,0,0,1,.054.839c-.131.177-.585.27-1.34.277h-.639v-1.332l.886.038c.716.02.908.058,1.039.174Zm.054,2.156a.7.7,0,0,1,.3.762c-.077.424-.323.508-1.394.508h-.886v-1.486l.893.046a2.812,2.812,0,0,1,1.087.17Z" transform="translate(-74.642 172.009)"/>
    <path id="Path_8" data-name="Path 8" d="M147-136.3v2.7h1.078v-2.233h.347a1.63,1.63,0,0,1,.57.108,5.368,5.368,0,0,1,.893,1.117l.685,1.009h.639a3.5,3.5,0,0,0,.639-.031,14.541,14.541,0,0,0-.824-1.324,4.55,4.55,0,0,0-.631-.739l-.308-.262.377-.131a1.52,1.52,0,0,0,.935-.986,1.52,1.52,0,0,0-.227-1.339c-.354-.508-.624-.57-2.533-.57L147-139Zm3.134-1.6a.729.729,0,0,1,.031.916c-.146.185-.708.285-1.64.293l-.447.008v-1.386h.939c.855-.007.955.008,1.117.162Z" transform="translate(-141.098 172.009)"/>
    <path id="Path_9" data-name="Path 9" d="M214.213-138.8c-.054.085-1.971,5-2.025,5.182-.039.123.023.139.531.139h.57l.223-.616.223-.616h2.172l.223.616.231.616h.6a3.5,3.5,0,0,0,.593-.023c0-.008-.477-1.217-1.063-2.672l-1.063-2.657-.585-.023A1.375,1.375,0,0,0,214.213-138.8Zm.978,2.2.339.924-.693.023a5.43,5.43,0,0,1-.716-.008c-.015-.015.285-.909.624-1.817.023-.062.054-.092.077-.077s.184.446.368.955Z" transform="translate(-201.257 171.881)"/>
    <path id="Path_10" data-name="Path 10" d="M290-136.3v2.7h1.078V-139H290Z" transform="translate(-273.086 172.009)"/>
    <path id="Path_11" data-name="Path 11" d="M318-136.3v2.7h3.85v-.924h-2.772V-139H318Z" transform="translate(-298.93 172.009)"/>
    <path id="Path_12" data-name="Path 12" d="M378-136.3v2.7h3.85v-.924h-2.772V-139H378Z" transform="translate(-354.31 172.009)"/>
    <path id="Path_13" data-name="Path 13" d="M438-136.3v2.7h4.158v-.924h-3.08V-136h2.772v-.924h-2.772v-1.155h3V-139H438Z" transform="translate(-409.69 172.009)"/>
  </g>
</svg>
