<svg xmlns="http://www.w3.org/2000/svg" width="36" height="36" viewBox="0 0 36 36">
  <g id="emergency-chairs-pictogram" transform="translate(-570.936 3570.763)">
    <rect id="Rectangle_953" data-name="Rectangle 953" width="36" height="36" transform="translate(570.936 -3570.762)" fill="none"/>
    <path id="Path_1221" data-name="Path 1221" d="M1412.438-3571.747a1.15,1.15,0,0,0-.352.08,2.564,2.564,0,0,0-.744.393,1.087,1.087,0,0,0-.3.3,2.594,2.594,0,0,0-.38.712,1.173,1.173,0,0,0-.089.411,1.533,1.533,0,0,0,0,.437,1.292,1.292,0,0,0,.088.417,2.119,2.119,0,0,0,.677,1.007,1.722,1.722,0,0,0,.35.233,1.721,1.721,0,0,0,.377.155,1.536,1.536,0,0,0,.411.077,1.507,1.507,0,0,0,.422,0,1.831,1.831,0,0,0,.409-.077,1.461,1.461,0,0,0,.391-.155,1.311,1.311,0,0,0,.339-.233,3.642,3.642,0,0,0,.292-.292,1.276,1.276,0,0,0,.238-.348,1.567,1.567,0,0,0,.154-.395,1.767,1.767,0,0,0,.076-.4,1.576,1.576,0,0,0,0-.4,1.573,1.573,0,0,0-.076-.4,1.674,1.674,0,0,0-.155-.388,1.632,1.632,0,0,0-.234-.353,2.066,2.066,0,0,0-1.026-.683,1.322,1.322,0,0,0-.385-.087A2,2,0,0,0,1412.438-3571.747Z" transform="translate(-828.609 1)"/>
    <path id="Path_1222" data-name="Path 1222" d="M753.037-3194.86a1.916,1.916,0,0,0-1.151.841,1.6,1.6,0,0,0-.118.218c-.011.034-.5,1.432-1.077,3.107-1.2,3.446-1.125,3.216-1.1,3.5a16.577,16.577,0,0,0,.481,2.034c.508,2.019.494,1.957.448,2.069a.514.514,0,0,1-.185.237c-.036.022-1.021.473-2.188,1-1.322.6-2.178,1-2.27,1.048a1.358,1.358,0,0,0-.616.7,1.07,1.07,0,0,0-.077.283,1.586,1.586,0,0,0,.147.909.837.837,0,0,0,.172.246,2.72,2.72,0,0,0,.227.217.73.73,0,0,0,.257.154,1.391,1.391,0,0,0,.3.089.866.866,0,0,0,.317.02l.153-.01,3.112-1.31,3.127-1.315c.01,0,.014.508.014,2.539,0,2.459,0,2.55.021,2.7a1,1,0,0,0,.083.306.761.761,0,0,0,.155.26,2.053,2.053,0,0,0,.212.21.736.736,0,0,0,.264.157,1.034,1.034,0,0,0,.3.08.825.825,0,0,0,.309,0,.833.833,0,0,0,.295-.079,1.161,1.161,0,0,0,.481-.373.912.912,0,0,0,.147-.263c.1-.251.093.023.09-3.474l0-3.073-.033-.114c-.029-.1-.144-.318-1.066-2.035-.568-1.056-1.042-1.95-1.053-1.984a.3.3,0,0,1-.016-.136c0-.044.1-.418.258-.981l.253-.91.146.188c.2.253.241.3.341.34s4.813,1.454,4.832,1.448a.681.681,0,0,1,.119.018.513.513,0,0,0,.25,0,1.1,1.1,0,0,0,.277-.07,1.015,1.015,0,0,0,.6-.549.766.766,0,0,0,.078-.266.683.683,0,0,0,0-.287,1.173,1.173,0,0,0-.2-.5.741.741,0,0,0-.189-.211.6.6,0,0,0-.245-.137c-.075-.026-.943-.29-1.931-.586-1.224-.366-1.819-.55-1.871-.576a.389.389,0,0,1-.128-.1.28.28,0,0,1-.071-.156c-.01-.052-.105-.943-.211-1.978-.223-2.181-.214-2.118-.345-2.392-.042-.087-.119-.229-.172-.314a1,1,0,0,0-.235-.283,1.871,1.871,0,0,0-.614-.387,1.377,1.377,0,0,0-.358-.1,1.669,1.669,0,0,0-.374-.032A.989.989,0,0,0,753.037-3194.86Z" transform="translate(-170.757 -371.579)"/>
    <path id="Path_1223" data-name="Path 1223" d="M2272.686-2706.758a1.763,1.763,0,0,0-.38.077,1.287,1.287,0,0,0-.365.153,2.4,2.4,0,0,0-.637.522,1.254,1.254,0,0,0-.233.341,1.6,1.6,0,0,0-.155.385,1.824,1.824,0,0,0-.078.41,1.493,1.493,0,0,0,0,.417,1.832,1.832,0,0,0,.078.411,1.614,1.614,0,0,0,.155.385,1.25,1.25,0,0,0,.231.338,2.421,2.421,0,0,0,.641.524,1.357,1.357,0,0,0,.366.153,1.766,1.766,0,0,0,.4.079,1.573,1.573,0,0,0,.437,0,1.457,1.457,0,0,0,.414-.078,1.793,1.793,0,0,0,.38-.156,1.547,1.547,0,0,0,.35-.233,2.09,2.09,0,0,0,.679-1.023,1.316,1.316,0,0,0,.088-.41,1.486,1.486,0,0,0,0-.406,1.314,1.314,0,0,0-.091-.417,2.075,2.075,0,0,0-.677-1.016,1.724,1.724,0,0,0-.345-.23,1.675,1.675,0,0,0-.38-.155,1.5,1.5,0,0,0-.4-.08A1.627,1.627,0,0,0,2272.686-2706.758Z" transform="translate(-1679.118 -854.178)"/>
    <path id="Path_1224" data-name="Path 1224" d="M1960.686-2404.7a1.729,1.729,0,0,1-.516.348.888.888,0,0,1-.286.09c-.161.028-.2.038-.2.056s1.716,2.487,3.815,5.509,3.817,5.5,3.821,5.514-.229.152-.709.435c-.392.23-.721.419-.729.419s-1.25-1-2.761-2.222l-2.747-2.222-.125-.053a.519.519,0,0,0-.257-.06.49.49,0,0,0-.253.032.857.857,0,0,0-.392.263.566.566,0,0,0-.131.216.613.613,0,0,0-.059.251.45.45,0,0,0,.033.25.892.892,0,0,0,.112.23l.071.108,6.168,5c5.7,4.617,6.18,5,6.327,5.092a3.42,3.42,0,0,0,.306.159,1.169,1.169,0,0,0,.312.093,1.875,1.875,0,0,0,1.287-.231,1.709,1.709,0,0,0,.484-.465,1.843,1.843,0,0,0,.321-.959,1.062,1.062,0,0,0-.023-.326c-.016-.091-.051-.24-.078-.33a.833.833,0,0,0-.135-.3,1.966,1.966,0,0,0-.209-.268,1.613,1.613,0,0,0-1.157-.587,1.045,1.045,0,0,0-.357,0,1.025,1.025,0,0,0-.308.073c-.1.038-.14.049-.149.038s-2.987-4.3-2.987-4.312.611-.372,1.356-.814,1.386-.826,1.424-.854a.585.585,0,0,0,.213-.484.574.574,0,0,0-.618-.561.349.349,0,0,0-.178.041.637.637,0,0,0-.117.061c-.031.026-2.752,1.625-2.769,1.626s-1.727-2.466-3.822-5.481c-3.136-4.514-3.813-5.483-3.836-5.485S1960.779-2404.79,1960.686-2404.7Zm8.536,14.232c.657.951,1.227,1.774,1.264,1.827l.067.1-.175-.143c-.1-.078-.924-.751-1.84-1.493l-1.663-1.351.11-.066c.6-.353,1.031-.6,1.035-.6S1968.564-2391.417,1969.222-2390.464Z" transform="translate(-1370.983 -1152.72)"/>
    <path id="Path_1225" data-name="Path 1225" d="M2323.233-2300.866a1.693,1.693,0,0,0-.408.138,1.325,1.325,0,0,0-.372.227,1.865,1.865,0,0,0-.314.3.68.68,0,0,0-.139.186c0,.033,5.383,7.79,5.409,7.8.01,0,.7-.4,1.546-.9s1.532-.9,1.536-.9.549.937,1.214,2.082c1.36,2.346,1.317,2.275,1.536,2.444a.67.67,0,0,0,.283.147,1.424,1.424,0,0,0,.307.069l.149.018.157-.029a1.017,1.017,0,0,0,.3-.1.958.958,0,0,0,.268-.168.79.79,0,0,0,.208-.237,1.034,1.034,0,0,0,.136-.282.834.834,0,0,0,.058-.313.746.746,0,0,0-.028-.315,1.251,1.251,0,0,0-.1-.283c-.1-.2-2.969-5.139-3.074-5.292a.689.689,0,0,0-.211-.222.908.908,0,0,0-.269-.149.987.987,0,0,0-.294-.077.843.843,0,0,0-.3,0c-.254.033-.215.013-2.24,1.208-.985.581-1.792,1.053-1.8,1.05s-.82-2.571-.815-2.576.256.184.565.414.613.449.679.486a1.186,1.186,0,0,0,.786.146.807.807,0,0,0,.247-.077c.175-.08,4.19-2.436,4.337-2.545a1.091,1.091,0,0,0,.351-.431.638.638,0,0,0,.08-.281.768.768,0,0,0,0-.291,1.19,1.19,0,0,0-.069-.278.6.6,0,0,0-.139-.246,1.014,1.014,0,0,0-.455-.329.77.77,0,0,0-.288-.06,1.058,1.058,0,0,0-.5.063.178.178,0,0,1-.076.027c-.009,0-.69.4-1.515.889-1.624.968-1.6.955-1.87,1.018a.6.6,0,0,1-.247.017,1.081,1.081,0,0,1-.494-.158c-.073-.043-.644-.466-1.388-1.026l-1.264-.952-.2-.087a1.4,1.4,0,0,0-.427-.128,1.75,1.75,0,0,0-.436-.04A1.318,1.318,0,0,0,2323.233-2300.866Z" transform="translate(-1729.713 -1255.438)"/>
    <path id="Path_1226" data-name="Path 1226" d="M574-1682.756l0,1.245,3.228,0,3.229,0,0,2.01,0,2.009,3.636,0,3.637,0,0,2.021,0,2.021,3.636,0,3.637,0,0,2.016,0,2.015h9.739l0-1.234,0-1.232h-7.279l0-2.027,0-2.026-3.636,0-3.637,0v-4.025h-7.256V-1684H574Z" transform="translate(-1.532 -1865.36)"/>
    <path id="Path_1227" data-name="Path 1227" d="M2423-1641.927a1.139,1.139,0,0,0,.022.139,1.05,1.05,0,0,1,.023.138,1.585,1.585,0,0,0,.028.176c.016.079.041.238.057.354s.042.266.058.334.033.158.039.2a.946.946,0,0,0,.083.262.348.348,0,0,1,.032.083.746.746,0,0,0,.091.172c.043.065.091.143.106.173a1.763,1.763,0,0,0,.323.34l.108.078a.859.859,0,0,0,.283.107c.037.007.178.014.313.017.284.006.284.006.218-.089l-.89-1.288C2423.03-1641.981,2423-1642.021,2423-1641.927Z" transform="translate(-1829.568 -1906.924)"/>
  </g>
</svg>
