<svg xmlns="http://www.w3.org/2000/svg" width="36" height="36" viewBox="0 0 36 36">
  <g id="induction-loop-pictogram" transform="translate(0 0.076)">
    <rect id="Rectangle_1" data-name="Rectangle 1" width="36" height="36" transform="translate(0 -0.076)" fill="rgba(255,255,255,0)"/>
    <path id="Path_29" data-name="Path 29" d="M405.523-508.469c-1.387,1.387-2.523,2.547-2.523,2.57a4.475,4.475,0,0,0,.556.5,12.912,12.912,0,0,1,2.131,2.468,4.35,4.35,0,0,0,.439.611c.031.008,1.238-1.175,2.7-2.641l2.641-2.656V-511h-3.409Z" transform="translate(-375.715 511.137)"/>
    <path id="Path_30" data-name="Path 30" d="M158.137-454.545a10.042,10.042,0,0,0-2.437.713,10.74,10.74,0,0,0-5.462,5.07,11.77,11.77,0,0,0-.94,2.586c-.055.282-.243.212,1.489.564l.721.141.055-.321a8.237,8.237,0,0,1,1.262-2.86,8.234,8.234,0,0,1,3.354-2.876,8.079,8.079,0,0,1,4.741-.791,8.33,8.33,0,0,1,4.78,2.218,8.556,8.556,0,0,1,1.019,11.385,11.194,11.194,0,0,1-1.262,1.34,17.581,17.581,0,0,0-2.743,2.97,16.008,16.008,0,0,0-1.755,3.557,4.085,4.085,0,0,1-1.285,2.155,2.906,2.906,0,0,1-2.006.666,2.916,2.916,0,0,1-1.967-.619l-.353-.274-.776.8a9.582,9.582,0,0,0-.784.846,5.405,5.405,0,0,0,1.379.979,5.634,5.634,0,0,0,4.216.329,5.5,5.5,0,0,0,3.659-3.918,12.749,12.749,0,0,1,1.489-3.1,15.472,15.472,0,0,1,2.186-2.429,14.725,14.725,0,0,0,2.186-2.421,11.381,11.381,0,0,0,1.63-3.941,15.684,15.684,0,0,0,.031-4.02,10.967,10.967,0,0,0-8.51-8.674A12.422,12.422,0,0,0,158.137-454.545Z" transform="translate(-141.861 459.219)"/>
    <path id="Path_31" data-name="Path 31" d="M209.819-397.8a6.416,6.416,0,0,0-4.067,2.962A6.693,6.693,0,0,0,205-392.9c0,.094.462.227,1.011.3.071.008.149-.118.2-.353a5.411,5.411,0,0,1,1.661-2.594,5.253,5.253,0,0,1,6.848.086,4.948,4.948,0,0,1,1.724,3.9,4.866,4.866,0,0,1-1.52,3.691l-.462.486.329.431a3.109,3.109,0,0,0,.368.439,8,8,0,0,0,1.371-1.442,6.4,6.4,0,0,0,.486-6.37,6.5,6.5,0,0,0-4.419-3.51,7.377,7.377,0,0,0-2.778.036Z" transform="translate(-193.229 406.943)"/>
    <path id="Path_32" data-name="Path 32" d="M61.913-221.079,57-216.166v3.409h3.416l4.921-4.944,4.929-4.944-1.677-1.677C67.664-225.248,66.9-226,66.873-226S64.624-223.79,61.913-221.079Z" transform="translate(-56.826 248.469)"/>
    <path id="Path_33" data-name="Path 33" d="M399-203.06v.94h3.291v9.246h2.272v-9.246h3.291V-204H399Z" transform="translate(-372.028 228.193)"/>
  </g>
</svg>
