<svg xmlns="http://www.w3.org/2000/svg" width="36" height="36" viewBox="0 0 36 36">
  <g id="large-font-pictogram" transform="translate(1242 262.807)">
    <rect id="Rectangle_954" data-name="Rectangle 954" width="36" height="36" transform="translate(-1242 -262.807)" fill="none"/>
    <path id="Path_15" data-name="Path 15" d="M167.5-459.986v1.015l-.464-.455c-.415-.415-.481-.448-.575-.336s-.048.184.328.567l.424.431h-.376c-.56,0-.455.152.128.176l.5.024.024,11.706.016,11.7-.439-.431c-.415-.408-.448-.424-.575-.3s-.112.16.3.575l.431.439h-.376c-.56,0-.455.152.128.176l.5.024.04,1.119c.048,1.391.184,1.487.24.176l.04-.943.391.4c.328.336.415.384.536.3s.1-.137-.312-.567l-.448-.488,1.055-.024c1.463-.032,1.373-.176-.1-.176h-1.158v-23.365l.431.424c.384.376.455.424.567.328s.069-.16-.376-.618l-.5-.5h1.095a3.282,3.282,0,0,0,1.095-.08,3.664,3.664,0,0,0-1.158-.08h-1.158v-1.119c0-.943-.016-1.119-.12-1.119S167.5-460.833,167.5-459.986Z" transform="translate(-1399.974 201.919)"/>
    <path id="Path_16" data-name="Path 16" d="M234.476-434.265c-.024.408-.088,1.551-.128,2.541s-.1,1.934-.112,2.094l-.032.3h.679l.1-.607a4.145,4.145,0,0,1,1.222-2.581c.847-.839,1.43-.967,4.355-.967h2.094v9.525c0,5.434-.04,9.869-.08,10.316a4.313,4.313,0,0,1-.232,1.119c-.352.791-1.151,1.175-2.445,1.175h-.759v.639h10.387v-.624l-.893-.032c-1.294-.048-1.942-.367-2.254-1.1-.264-.647-.288-1.439-.288-11.275v-9.741h2.142c2.278,0,2.845.064,3.564.408a4.088,4.088,0,0,1,1.551,1.494,6.681,6.681,0,0,1,.575,2.03c0,.206.024.224.36.224h.36v-.3c0-.16-.056-1.342-.12-2.613s-.12-2.413-.12-2.541V-435H234.521Z" transform="translate(-1462.342 177.997)"/>
    <path id="Path_17" data-name="Path 17" d="M87.034-390.6v1.4H82v.719h5.673V-392h-.639Z" transform="translate(-1322.304 138.433)"/>
    <path id="Path_18" data-name="Path 18" d="M86.515-328.145c-.567.415-1.222.887-1.454,1.039l-.407.288-1.111-.831c-.607-.464-1.2-.9-1.318-.975L82-328.763v.8l.775.583c.431.327.919.687,1.087.8.24.168.279.224.176.264-.069.024-.56.36-1.087.735l-.951.676v.879l.663-.455c.36-.255.967-.687,1.351-.967l.695-.5,1.279.951c.7.527,1.373,1.015,1.487,1.087l.2.128v-.879l-1.135-.815a10.57,10.57,0,0,1-1.143-.879,9,9,0,0,1,1.119-.855L87.634-328l.024-.455c.016-.248-.008-.455-.04-.448S87.09-328.557,86.515-328.145Z" transform="translate(-1322.304 80.378)"/>
    <path id="Path_19" data-name="Path 19" d="M86.595-252.144c-.567.415-1.236.893-1.487,1.071l-.448.32-1.334-1-1.326-1v.839l1.023.759c.56.415,1.03.767,1.055.783s-.024.069-.1.12-.549.384-1.055.735l-.927.639v.919l.584-.415c.312-.224.927-.663,1.358-.967l.775-.549L86.18-248.8l1.454,1.079.024-.4a1.1,1.1,0,0,0-.056-.5c-.048-.056-.584-.455-1.2-.887l-1.111-.783,1.191-.831,1.191-.831v-.481a3.443,3.443,0,0,0-.016-.463C87.642-252.9,87.17-252.556,86.595-252.144Z" transform="translate(-1322.304 10.449)"/>
  </g>
</svg>
