<svg xmlns="http://www.w3.org/2000/svg" width="36.037" height="36" viewBox="0 0 36.037 36">
  <g id="micronavigation-system-pictogram" transform="translate(-17.866 3952.009)">
    <path id="Path_1204" data-name="Path 1204" d="M2006.529-3573.55a8.415,8.415,0,0,0-.615.961,5.06,5.06,0,0,0-.345.725,5.026,5.026,0,0,0-.239.685,8.362,8.362,0,0,0-.295,1.467,5.49,5.49,0,0,0-.035.787,5.5,5.5,0,0,0,.035.787,8.356,8.356,0,0,0,.295,1.464,5.907,5.907,0,0,0,.25.724,5.522,5.522,0,0,0,.329.7,6.519,6.519,0,0,0,.63.976,2.324,2.324,0,0,0,.385-.307,2.195,2.195,0,0,0-.188-.32,9.008,9.008,0,0,1-.66-1.255,3.381,3.381,0,0,1-.24-.674c-.053-.193-.13-.5-.171-.688a3.5,3.5,0,0,1-.1-.68,8.684,8.684,0,0,1,0-1.432,3.856,3.856,0,0,1,.106-.7c.043-.2.12-.5.172-.683a4.15,4.15,0,0,1,.239-.664,8.5,8.5,0,0,1,.661-1.266,3.361,3.361,0,0,0,.188-.311c0-.014-.061-.066-.183-.156C2006.545-3573.563,2006.554-3573.556,2006.529-3573.55Z" transform="translate(-1968.873 -378.451)"/>
    <path id="Path_1205" data-name="Path 1205" d="M2577.811-3573.812a.491.491,0,0,0-.195.078.333.333,0,0,0-.158.158.5.5,0,0,0-.08.207c-.014.073-.11,1.368-.3,4.04l-.279,3.931.019.119a.483.483,0,0,0,.079.219.329.329,0,0,0,.161.161c.171.1.019.1,2.147.1s1.98.006,2.147-.1a.338.338,0,0,0,.159-.157.765.765,0,0,0,.116-.354c0-.133-.568-7.817-.586-7.93a.478.478,0,0,0-.083-.23.331.331,0,0,0-.159-.164c-.17-.1-.1-.1-1.6-.1A13.279,13.279,0,0,0,2577.811-3573.812Z" transform="translate(-2534.196 -378.175)"/>
    <path id="Path_1206" data-name="Path 1206" d="M3404.184-3573.879c-.14.1-.184.142-.184.161a2.921,2.921,0,0,0,.191.322c.105.164.267.439.363.614a4.945,4.945,0,0,1,.3.643c.08.2.171.456.237.666a4.419,4.419,0,0,1,.173.7,5.064,5.064,0,0,1,.1.716,7.7,7.7,0,0,1,0,1.375,4.767,4.767,0,0,1-.1.707,6.929,6.929,0,0,1-.717,2c-.1.175-.259.449-.363.61a2.913,2.913,0,0,0-.188.317c0,.019.043.06.183.168a1.4,1.4,0,0,0,.2.144,2.029,2.029,0,0,0,.246-.344,7.354,7.354,0,0,0,1.142-2.783,5.7,5.7,0,0,0,.115-.737,5.273,5.273,0,0,0,.039-.781,5.269,5.269,0,0,0-.04-.788,7.918,7.918,0,0,0-.3-1.467,5.083,5.083,0,0,0-.249-.713,7.541,7.541,0,0,0-.72-1.333c-.177-.265-.231-.338-.251-.333Z" transform="translate(-3352.023 -377.992)"/>
    <path id="Path_1207" data-name="Path 1207" d="M2212.618-3451.991c-.007,0-.093.135-.193.291a5.178,5.178,0,0,0-.334.6,3.63,3.63,0,0,0-.263.652,4.4,4.4,0,0,0-.175.677,3.275,3.275,0,0,0-.085.691,4.342,4.342,0,0,0,0,.7,3.329,3.329,0,0,0,.085.674,5.343,5.343,0,0,0,.17.653,3.044,3.044,0,0,0,.266.656,6.489,6.489,0,0,0,.337.6,2.365,2.365,0,0,0,.2.287,2.507,2.507,0,0,0,.4-.272.044.044,0,0,0,.008-.036c0-.01-.083-.135-.176-.278a4.213,4.213,0,0,1-.3-.545,3.206,3.206,0,0,1-.226-.578c-.059-.187-.117-.407-.16-.6a2.7,2.7,0,0,1-.086-.62,3.694,3.694,0,0,1,0-.628,2.68,2.68,0,0,1,.086-.619,5.315,5.315,0,0,1,.393-1.186,3.105,3.105,0,0,1,.307-.547c.135-.2.171-.264.163-.28a4.123,4.123,0,0,0-.4-.3A.059.059,0,0,0,2212.618-3451.991Z" transform="translate(-2173.089 -498.626)"/>
    <path id="Path_1208" data-name="Path 1208" d="M3236.372-3451.209c-.164.123-.2.152-.192.172a3.215,3.215,0,0,0,.175.28,3.014,3.014,0,0,1,.3.538,5.412,5.412,0,0,1,.394,1.2,2.826,2.826,0,0,1,.084.623,3.792,3.792,0,0,1,0,.629,2.731,2.731,0,0,1-.086.606c-.038.176-.1.41-.159.6a3.146,3.146,0,0,1-.233.588,4.409,4.409,0,0,1-.305.543,1.9,1.9,0,0,0-.167.287,1.066,1.066,0,0,0,.2.156c.149.1.2.134.215.127a2.055,2.055,0,0,0,.2-.29,6.125,6.125,0,0,0,.333-.588,2.966,2.966,0,0,0,.261-.646,5.459,5.459,0,0,0,.175-.674,3.266,3.266,0,0,0,.087-.689,4.342,4.342,0,0,0,0-.708,3.332,3.332,0,0,0-.087-.691,4.757,4.757,0,0,0-.172-.657,3.715,3.715,0,0,0-.256-.637,5.072,5.072,0,0,0-.336-.606l-.183-.29-.023-.008C3236.574-3451.355,3236.52-3451.321,3236.372-3451.209Z" transform="translate(-3186.104 -499.269)"/>
    <path id="Path_1209" data-name="Path 1209" d="M811.942-3375.717a2.592,2.592,0,0,0-.82.2,2.728,2.728,0,0,0-.752.462c-.089.08-.229.219-.31.31a1.932,1.932,0,0,0-.263.358,3.078,3.078,0,0,0-.347.816,1.518,1.518,0,0,0-.069.438,4.223,4.223,0,0,0,0,.45,1.505,1.505,0,0,0,.068.447,3.056,3.056,0,0,0,.35.826,2.023,2.023,0,0,0,.261.355c.08.091.219.229.306.307a2.052,2.052,0,0,0,.357.26,2.686,2.686,0,0,0,1.254.408,1.786,1.786,0,0,0,.451,0,2.738,2.738,0,0,0,1.622-.673,2.614,2.614,0,0,0,.9-1.474,2.016,2.016,0,0,0,.081-.457,1.809,1.809,0,0,0,0-.436,3.256,3.256,0,0,0-.213-.863,2.485,2.485,0,0,0-.779-1.073,2.734,2.734,0,0,0-1.164-.593,2.977,2.977,0,0,0-.434-.069A1.641,1.641,0,0,0,811.942-3375.717Z" transform="translate(-786.794 -574.026)"/>
    <path id="Path_1210" data-name="Path 1210" d="M398.43-2792.914a2.137,2.137,0,0,0-.331.084l-.176.059-.163.124c-.3.229-.16.029-2.342,3.238-1.065,1.566-1.97,2.907-2.012,2.98a.9.9,0,0,0-.114.29c-.085.335-.082.117-.048,3.355.027,2.536.033,2.9.049,2.995a1,1,0,0,0,.369.589.54.54,0,0,0,.215.12,1.543,1.543,0,0,0,.238.058.537.537,0,0,0,.244,0,.951.951,0,0,0,.75-.6l.046-.107.008-.187c0-.1-.007-1.313-.023-2.691-.033-2.8-.035-2.616.045-2.944a.9.9,0,0,1,.118-.3c.044-.077.421-.64.838-1.252.835-1.224.818-1.2.938-1.217a.281.281,0,0,1,.241.072.189.189,0,0,1,.072.131c.019.082.017.138-.574,10.573-.664,11.726-.612,10.647-.528,10.888a1.516,1.516,0,0,0,.306.505.649.649,0,0,0,.227.176,2.478,2.478,0,0,0,.261.116.842.842,0,0,0,.283.058,1.34,1.34,0,0,0,.586-.079,1.277,1.277,0,0,0,.637-.564c.13-.243.069.13.826-5.054.374-2.559.689-4.7.7-4.75a.526.526,0,0,1,.078-.2.727.727,0,0,1,.3-.277l.088-.051h.363l.108.055a.609.609,0,0,1,.291.26c.091.18.06-.016.786,4.951.759,5.2.7,4.823.829,5.064a1.337,1.337,0,0,0,.371.42.67.67,0,0,0,.283.15,1.276,1.276,0,0,0,.549.072.862.862,0,0,0,.283-.06,2.487,2.487,0,0,0,.266-.119.769.769,0,0,0,.235-.176,1.235,1.235,0,0,0,.287-.491.736.736,0,0,0,.062-.3c.006-.133-.083-1.573-.651-10.588-.361-5.74-.658-10.467-.659-10.508a.217.217,0,0,1,.059-.169.175.175,0,0,1,.239.02c.023.022.342.558.713,1.192s.734,1.25.809,1.373l.137.222,2.031,2.27c1.91,2.137,2.037,2.276,2.149,2.361a.686.686,0,0,1,.119.1c0,.006.489,3.305,1.088,7.331.995,6.69,1.091,7.325,1.118,7.378.034.069.044.076.126.087a.126.126,0,0,0,.109-.021c.061-.036.061-.035.075-.109.01-.052-.1-1.022-.855-7.3-.477-3.982-.869-7.259-.873-7.281l-.006-.041.1-.044a.879.879,0,0,0,.458-.476.531.531,0,0,0,.066-.229.952.952,0,0,0-.161-.675c-.042-.06-.944-1.08-2.1-2.381-1.844-2.07-2.039-2.293-2.149-2.453-.091-.132-.487-.826-1.593-2.793l-1.473-2.616-.114-.134a1.4,1.4,0,0,0-.256-.238,1.216,1.216,0,0,0-.309-.176c-.268-.112-.091-.106-2.684-.1h-2.213Z" transform="translate(-375.357 -1150.218)"/>
  </g>
</svg>
