<svg xmlns="http://www.w3.org/2000/svg" width="36" height="37" viewBox="0 0 36 37">
  <g id="orientation-path-pictogram" transform="translate(6.213 1.5)">
    <rect id="Rectangle_2" data-name="Rectangle 2" width="36" height="37" transform="translate(-6.213 -1.5)" fill="rgba(255,255,255,0)"/>
    <path id="Path_34" data-name="Path 34" d="M184.791-468.443a1.536,1.536,0,0,0-.791,1.186,1.749,1.749,0,0,0,.65,1.2,1.687,1.687,0,0,0,1.459-.019,1.379,1.379,0,0,0,.627-1.11,1.379,1.379,0,0,0-.552-1.15,1.332,1.332,0,0,0-1.393-.107Z" transform="translate(-181.587 468.826)"/>
    <path id="Path_35" data-name="Path 35" d="M242.181-468.554a1.4,1.4,0,0,0-.954,1.121,1.4,1.4,0,0,0,.577,1.355,1.441,1.441,0,0,0,1.968-.508,1.432,1.432,0,0,0-.452-1.789,1.9,1.9,0,0,0-1.139-.179Z" transform="translate(-233.412 468.815)"/>
    <path id="Path_36" data-name="Path 36" d="M298.876-468.524a1.491,1.491,0,0,0-.584.433,1.019,1.019,0,0,0-.292.829,1.249,1.249,0,0,0,.351.993,1.249,1.249,0,0,0,.986.371,1.306,1.306,0,0,0,1.153-.6,1.306,1.306,0,0,0,.062-1.3,1.382,1.382,0,0,0-1.676-.727Z" transform="translate(-284.853 468.823)"/>
    <path id="Path_37" data-name="Path 37" d="M355.2-468.727a1.455,1.455,0,0,0-.9.942,1.324,1.324,0,0,0,.217,1.158,1.324,1.324,0,0,0,1.054.527,1.254,1.254,0,0,0,1.016-.354,1.254,1.254,0,0,0,.368-1.011,1.024,1.024,0,0,0-.282-.819,1.437,1.437,0,0,0-.64-.452,1.1,1.1,0,0,0-.833.009Z" transform="translate(-335.798 469.026)"/>
    <path id="Path_38" data-name="Path 38" d="M184.952-411.655a1.346,1.346,0,0,0-.742,1.139,1.346,1.346,0,0,0,.629,1.205,1.364,1.364,0,0,0,1.376.034,1.364,1.364,0,0,0,.7-1.183,1.348,1.348,0,0,0-.648-1.15,1.348,1.348,0,0,0-1.32-.045Z" transform="translate(-181.776 417.387)"/>
    <path id="Path_39" data-name="Path 39" d="M241.952-411.655a1.346,1.346,0,0,0-.742,1.139,1.346,1.346,0,0,0,.629,1.205,1.364,1.364,0,0,0,1.376.034,1.364,1.364,0,0,0,.7-1.183,1.348,1.348,0,0,0-.648-1.15,1.348,1.348,0,0,0-1.32-.045Z" transform="translate(-233.409 417.387)"/>
    <path id="Path_40" data-name="Path 40" d="M298.7-411.779a1.245,1.245,0,0,0-.7,1.158,1.216,1.216,0,0,0,.687,1.2,1.367,1.367,0,0,0,1.406-.059,1.367,1.367,0,0,0,.609-1.269,1.372,1.372,0,0,0-.73-1.041A1.372,1.372,0,0,0,298.7-411.779Z" transform="translate(-284.853 417.52)"/>
    <path id="Path_41" data-name="Path 41" d="M355.01-411.767a1.344,1.344,0,0,0-.719,1.457,1.344,1.344,0,0,0,1.209,1.085,1.308,1.308,0,0,0,1.224-.537,1.016,1.016,0,0,0,.245-.8,1.015,1.015,0,0,0-.245-.8A1.357,1.357,0,0,0,355.01-411.767Z" transform="translate(-335.818 417.489)"/>
    <path id="Path_42" data-name="Path 42" d="M184.911-354.792a1.369,1.369,0,0,0-.557,1.552,1.369,1.369,0,0,0,1.339.962,1.475,1.475,0,0,0,1.12-.678,1.466,1.466,0,0,0-.113-1.544,1.363,1.363,0,0,0-1.789-.292Z" transform="translate(-181.848 365.938)"/>
    <path id="Path_43" data-name="Path 43" d="M241.839-354.732a1.347,1.347,0,0,0-.629,1.206,1.347,1.347,0,0,0,.742,1.139,1.353,1.353,0,0,0,1.59-.28,1.353,1.353,0,0,0,.19-1.6,1.361,1.361,0,0,0-.849-.63,1.361,1.361,0,0,0-1.044.168Z" transform="translate(-233.409 365.878)"/>
    <path id="Path_44" data-name="Path 44" d="M298.549-354.806a1.4,1.4,0,0,0-.664.91,1.4,1.4,0,0,0,.221,1.1,1.308,1.308,0,0,0,1.224.537,1.35,1.35,0,0,0,1.121-.786,1.35,1.35,0,0,0-.142-1.361,1.426,1.426,0,0,0-1.76-.405Z" transform="translate(-284.714 365.886)"/>
    <path id="Path_45" data-name="Path 45" d="M354.831-354.762a1.351,1.351,0,0,0-.637,1.468,1.351,1.351,0,0,0,1.211,1.046,1.307,1.307,0,0,0,1.224-.537,1.463,1.463,0,0,0,.056-1.554,1.416,1.416,0,0,0-1.854-.423Z" transform="translate(-335.723 365.88)"/>
    <g id="Rectangle_903" data-name="Rectangle 903" transform="translate(5.786 17)" stroke="#000" stroke-linecap="round" stroke-linejoin="round" stroke-width="2">
      <rect width="2" height="18" rx="1" stroke="none"/>
      <rect x="1" y="1" height="16" fill="none"/>
    </g>
    <g id="Rectangle_904" data-name="Rectangle 904" transform="translate(10.786 17)" stroke="#000" stroke-linecap="round" stroke-linejoin="round" stroke-width="2">
      <rect width="2" height="18" rx="1" stroke="none"/>
      <rect x="1" y="1" height="16" fill="none"/>
    </g>
    <g id="Rectangle_905" data-name="Rectangle 905" transform="translate(15.786 17)" stroke="#000" stroke-linecap="round" stroke-linejoin="round" stroke-width="2">
      <rect width="2" height="18" rx="1" stroke="none"/>
      <rect x="1" y="1" height="16" fill="none"/>
    </g>
  </g>
</svg>
