<?xml version="1.0" encoding="UTF-8"?>
<svg fill="none" height="26" viewBox="0 0 26 26" width="26" xmlns="http://www.w3.org/2000/svg">
    <path
        d="M2.16699 8.66663V13.001H3.25033V19.5H2.16699V22.75H19.5003L22.7503 22.751V22.75H23.8337V19.5H22.7503V13.001H23.8337V8.66663L13.0003 2.16663L2.16699 8.66663ZM6.50033 19.5V13.001H8.66699V19.5H6.50033ZM11.917 19.5V13.001H14.0837V19.5H11.917ZM19.5003 19.5H17.3337V13.001H19.5003V19.5ZM15.167 8.66663C15.1669 8.95123 15.1108 9.23303 15.0018 9.49594C14.8928 9.75885 14.7331 9.99772 14.5319 10.1989C14.3306 10.4001 14.0916 10.5597 13.8286 10.6685C13.5657 10.7774 13.2838 10.8334 12.9992 10.8333C12.7146 10.8332 12.4328 10.7771 12.1699 10.6681C11.907 10.5591 11.6681 10.3994 11.467 10.1981C11.2658 9.99685 11.1062 9.7579 10.9973 9.49494C10.8885 9.23197 10.8325 8.95014 10.8326 8.66554C10.8327 8.09076 11.0612 7.53958 11.4677 7.13325C11.8743 6.72692 12.4255 6.49873 13.0003 6.49888C13.5751 6.49902 14.1263 6.72749 14.5326 7.13402C14.9389 7.54055 15.1671 8.09185 15.167 8.66663Z"
        fill="#E43D32" />
</svg>
