<?xml version="1.0" encoding="UTF-8"?>
<svg fill="none" height="26" viewBox="0 0 26 26" width="26" xmlns="http://www.w3.org/2000/svg">
    <g clip-path="url(#clip0_964_9763)" opacity="1.0">
        <path
            d="M13 18.6876C12.8586 18.6875 12.7196 18.6506 12.5968 18.5804L5.48438 14.5154C5.42257 14.4797 5.35246 14.4609 5.2811 14.4609C5.20974 14.461 5.13964 14.4798 5.07787 14.5155C5.01609 14.5512 4.96482 14.6026 4.9292 14.6645C4.89359 14.7263 4.8749 14.7964 4.875 14.8678V18.6876C4.87488 18.8326 4.91357 18.975 4.98706 19.1C5.06055 19.225 5.16616 19.3281 5.29293 19.3985L12.6054 23.461C12.7261 23.528 12.8619 23.5632 13 23.5632C13.1381 23.5632 13.2739 23.528 13.3946 23.461L20.7071 19.3985C20.8338 19.3281 20.9394 19.225 21.0129 19.1C21.0864 18.975 21.1251 18.8326 21.125 18.6876V14.8678C21.1251 14.7964 21.1064 14.7263 21.0708 14.6645C21.0352 14.6026 20.9839 14.5512 20.9221 14.5155C20.8604 14.4798 20.7903 14.461 20.7189 14.4609C20.6475 14.4609 20.5774 14.4797 20.5156 14.5154L13.4032 18.5804C13.2804 18.6506 13.1414 18.6875 13 18.6876Z"
            fill="#E43D32" />
        <path
            d="M25.1834 9.67378C25.1834 9.67378 25.1834 9.66972 25.1834 9.6682C25.1703 9.53941 25.1265 9.41562 25.0559 9.30715C24.9852 9.19868 24.8896 9.10866 24.7771 9.0446L13.4021 2.5446C13.2794 2.47442 13.1404 2.4375 12.9989 2.4375C12.8575 2.4375 12.7185 2.47442 12.5957 2.5446L1.22074 9.0446C1.09642 9.11568 0.993099 9.21836 0.921235 9.34222C0.849372 9.46609 0.811523 9.60675 0.811523 9.74996C0.811523 9.89316 0.849372 10.0338 0.921235 10.1577C0.993099 10.2816 1.09642 10.3842 1.22074 10.4553L12.5957 16.9553C12.7185 17.0255 12.8575 17.0624 12.9989 17.0624C13.1404 17.0624 13.2794 17.0255 13.4021 16.9553L23.4101 11.2368C23.4256 11.2279 23.4431 11.2232 23.461 11.2232C23.4789 11.2232 23.4964 11.228 23.5119 11.2369C23.5273 11.2459 23.5401 11.2588 23.549 11.2743C23.5579 11.2898 23.5625 11.3073 23.5625 11.3252V18.6646C23.5625 19.1018 23.8986 19.4771 24.3359 19.4989C24.4457 19.5042 24.5555 19.4872 24.6586 19.4488C24.7616 19.4104 24.8558 19.3515 24.9355 19.2756C25.0151 19.1997 25.0785 19.1085 25.1218 19.0074C25.1651 18.9063 25.1874 18.7974 25.1875 18.6875V9.74996C25.1874 9.72451 25.186 9.69909 25.1834 9.67378Z"
            fill="#E43D32" />
    </g>
    <defs>
        <clipPath id="clip0_964_9763">
            <rect fill="white" height="26" width="26" />
        </clipPath>
    </defs>
</svg>
