<?xml version="1.0" encoding="UTF-8"?>
<svg fill="none" height="20" viewBox="0 0 20 20" width="20" xmlns="http://www.w3.org/2000/svg">
    <path d="M19.7313 0.74585C19.6848 0.529785 19.4712 0.316162 19.2544 0.269775C17.9967 0 17.012 0 16.0315 0C11.999 0 9.58082 2.15637 7.77548 5H3.7046C3.06602 5.00061 2.31567 5.46387 2.02934 6.03455L0.0982664 9.89441C0.0385895 10.026 0.0052086 10.1681 0 10.3125C8.97915e-05 10.5612 0.0989219 10.7996 0.274767 10.9754C0.450612 11.1512 0.689075 11.25 0.937727 11.25H4.99282L4.11491 12.1277C3.67095 12.5715 3.60725 13.3878 4.11491 13.8953L6.10335 15.8838C6.53914 16.3208 7.35945 16.3977 7.872 15.8838L8.74991 15.0061V19.0625C8.75 19.3112 8.84883 19.5496 9.02468 19.7254C9.20052 19.9012 9.43898 20 9.68764 20C9.8321 19.9947 9.97415 19.9613 10.1059 19.9017L13.9625 17.9724C14.5339 17.6874 14.9979 16.9373 14.9979 16.2982V12.2186C17.8338 10.4095 19.9993 7.98401 19.9993 3.97278C20.0029 2.98828 20.0029 2.00378 19.7313 0.74585ZM15.0016 6.5625C14.6926 6.56243 14.3905 6.47072 14.1336 6.29899C13.8767 6.12725 13.6765 5.8832 13.5583 5.59768C13.4401 5.31217 13.4092 4.99801 13.4695 4.69494C13.5299 4.39187 13.6787 4.11349 13.8972 3.89501C14.1158 3.67653 14.3942 3.52775 14.6973 3.4675C15.0003 3.40724 15.3145 3.4382 15.6 3.55647C15.8855 3.67475 16.1295 3.87502 16.3012 4.13196C16.4728 4.3889 16.5645 4.69098 16.5645 5C16.5642 5.41439 16.3995 5.81174 16.1064 6.10472C15.8134 6.39771 15.416 6.56236 15.0016 6.5625Z"
        fill="#E43D32"
        opacity="1.0" />
</svg>
