<svg width="8" height="10" viewBox="0 0 8 10" fill="none" xmlns="http://www.w3.org/2000/svg">
<path d="M1.25336 6.06008H5.21781C5.38297 6.06008 5.51695 5.92599 5.51695 5.76084V5.47357H0.954102V5.76084C0.954102 5.92599 1.08801 6.06008 1.25336 6.06008Z" fill="#3F6499"/>
<path d="M3.79258 3.60511V3.36636C3.79258 3.24407 3.69332 3.14484 3.57096 3.14484H2.89992C2.77754 3.14484 2.6783 3.24409 2.6783 3.36636V3.60511C1.84004 3.80941 1.17807 4.46351 0.963379 5.29757H5.5075C5.29281 4.46351 4.63074 3.80941 3.79258 3.60511Z" fill="#3F6499"/>
<path d="M0 9.74569C0 9.88616 0.11377 9.99999 0.254121 9.99999C0.394473 9.99999 0.508223 9.88614 0.508223 9.74569C0.508223 9.60526 0.254121 9.29309 0.254121 9.29309C0.254121 9.29309 0 9.60524 0 9.74569Z" fill="#3F6499"/>
<path d="M1.49072 9.74569C1.49072 9.88616 1.60449 9.99999 1.74482 9.99999C1.88518 9.99999 1.99895 9.88614 1.99895 9.74569C1.99895 9.60526 1.74482 9.29309 1.74482 9.29309C1.74482 9.29309 1.49072 9.60524 1.49072 9.74569Z" fill="#3F6499"/>
<path d="M2.98145 9.74569C2.98145 9.88616 3.09512 9.99999 3.23547 9.99999C3.37592 9.99999 3.48957 9.88614 3.48957 9.74569C3.48957 9.60526 3.23547 9.29309 3.23547 9.29309C3.23547 9.29309 2.98145 9.60524 2.98145 9.74569Z" fill="#3F6499"/>
<path d="M4.47168 9.74569C4.47168 9.88616 4.58543 9.99999 4.72578 9.99999C4.86613 9.99999 4.9799 9.88614 4.9799 9.74569C4.9799 9.60526 4.72578 9.29309 4.72578 9.29309C4.72578 9.29309 4.47168 9.60524 4.47168 9.74569Z" fill="#3F6499"/>
<path d="M5.9624 9.74569C5.9624 9.88616 6.07617 9.99999 6.2165 9.99999C6.35686 9.99999 6.47061 9.88614 6.47061 9.74569C6.47061 9.60526 6.2165 9.29309 6.2165 9.29309C6.2165 9.29309 5.9624 9.60524 5.9624 9.74569Z" fill="#3F6499"/>
<path d="M0.745605 8.40231C0.745605 8.54256 0.859277 8.65623 0.999629 8.65623C1.14008 8.65623 1.25373 8.54256 1.25373 8.40231C1.25373 8.26184 0.999629 7.94949 0.999629 7.94949C0.999629 7.94949 0.745605 8.26186 0.745605 8.40231Z" fill="#3F6499"/>
<path d="M2.23584 8.40231C2.23584 8.54256 2.34969 8.65623 2.48994 8.65623C2.63029 8.65623 2.74414 8.54256 2.74414 8.40231C2.74414 8.26184 2.49004 7.94949 2.49004 7.94949C2.49004 7.94949 2.23584 8.26186 2.23584 8.40231Z" fill="#3F6499"/>
<path d="M3.72656 8.40231C3.72656 8.54256 3.84041 8.65623 3.98066 8.65623C4.12102 8.65623 4.23486 8.54256 4.23486 8.40231C4.23486 8.26184 3.98066 7.94949 3.98066 7.94949C3.98066 7.94949 3.72656 8.26186 3.72656 8.40231Z" fill="#3F6499"/>
<path d="M5.2168 8.40231C5.2168 8.54256 5.33066 8.65623 5.471 8.65623C5.61135 8.65623 5.7251 8.54256 5.7251 8.40231C5.7251 8.26184 5.471 7.94949 5.471 7.94949C5.471 7.94949 5.2168 8.26186 5.2168 8.40231Z" fill="#3F6499"/>
<path d="M1.49072 7.19242C1.49072 7.33285 1.60449 7.44672 1.74482 7.44672C1.88518 7.44672 1.99895 7.33285 1.99895 7.19242C1.99895 7.05217 1.74482 6.73981 1.74482 6.73981C1.74482 6.73981 1.49072 7.05219 1.49072 7.19242Z" fill="#3F6499"/>
<path d="M2.98145 7.19242C2.98145 7.33285 3.09512 7.44672 3.23547 7.44672C3.37592 7.44672 3.48957 7.33285 3.48957 7.19242C3.48957 7.05217 3.23547 6.73981 3.23547 6.73981C3.23547 6.73981 2.98145 7.05219 2.98145 7.19242Z" fill="#3F6499"/>
<path d="M4.47168 7.19242C4.47168 7.33285 4.58543 7.44672 4.72578 7.44672C4.86613 7.44672 4.9799 7.33285 4.9799 7.19242C4.9799 7.05217 4.72578 6.73981 4.72578 6.73981C4.72578 6.73981 4.47168 7.05219 4.47168 7.19242Z" fill="#3F6499"/>
<path d="M6.44287 0.355996V1.76137C6.63678 1.97969 6.91945 2.11734 7.23451 2.11734V0C6.91945 0 6.63676 0.137832 6.44287 0.355996Z" fill="#3F6499"/>
<path d="M3.56406 2.66432C3.56406 2.47971 3.60123 2.30553 3.66846 2.14654C3.7692 1.90819 3.9384 1.70444 4.15094 1.56082C4.25711 1.48908 4.37414 1.43235 4.49887 1.3936C4.62357 1.35483 4.75615 1.33367 4.89473 1.33367H6.17352V0.688752H4.89473C4.62273 0.688556 4.36207 0.743986 4.12555 0.844181C3.77051 0.994357 3.46957 1.24436 3.25656 1.55949C3.15002 1.71717 3.06557 1.89113 3.00779 2.07707C2.94994 2.26283 2.91895 2.46059 2.91895 2.66432V2.88942H3.56406V2.66432Z" fill="#3F6499"/>
</svg>
