<svg width="12" height="20" viewBox="0 0 12 20" fill="none" xmlns="http://www.w3.org/2000/svg">
<g clip-path="url(#clip0_580_3306)">
<path d="M4.31083 0.00911154C4.22942 0.0163313 4.14858 0.0284219 4.06862 0.0453158C3.98417 0.0609359 3.90214 0.0878595 3.82488 0.125373C3.58326 0.227651 3.36882 0.384678 3.19836 0.58413C3.07955 0.717114 2.98399 0.869155 2.91569 1.03388C2.87692 1.11356 2.84996 1.1985 2.83563 1.28595C2.81761 1.37116 2.805 1.45733 2.79799 1.54414C2.78706 1.63105 2.78706 1.71915 2.79799 1.80607C2.80472 1.89287 2.81703 1.97904 2.83487 2.06425C2.84936 2.15153 2.87663 2.23626 2.91569 2.31564C3.01877 2.56011 3.17694 2.77732 3.37793 2.95049C3.51252 3.06212 3.66234 3.15407 3.82284 3.22347C3.90269 3.26257 3.98786 3.28976 4.07559 3.30421C4.16118 3.32285 4.24789 3.3356 4.33522 3.34245C4.42174 3.35229 4.5091 3.35229 4.59562 3.34245C4.68295 3.33561 4.76975 3.32287 4.85534 3.30421C4.94307 3.28975 5.02815 3.26256 5.108 3.22347C5.26867 3.15411 5.41853 3.06192 5.55291 2.94981C5.75421 2.77721 5.91245 2.56012 6.01515 2.31564C6.05391 2.23663 6.08117 2.15237 6.09597 2.06561C6.11402 1.98044 6.12634 1.89425 6.13285 1.80743C6.14419 1.71914 6.14419 1.62971 6.13285 1.54142C6.12622 1.45461 6.11391 1.36826 6.09597 1.28306C6.08103 1.19558 6.05355 1.11083 6.01447 1.03116C5.9121 0.789226 5.75449 0.57453 5.55427 0.404469C5.49273 0.347945 5.42581 0.297703 5.35446 0.254213C5.27091 0.198649 5.18181 0.151845 5.08854 0.114835C5.01722 0.08246 4.94212 0.0591758 4.86503 0.0453158C4.78097 0.0275565 4.69588 0.0152463 4.61024 0.00843165C4.51093 -0.00571499 4.41007 -0.00549683 4.31083 0.00911154Z" fill="#293241"/>
<path d="M3.12381 3.91961C3.06431 3.92785 3.00526 3.93912 2.94696 3.9536C2.88837 3.96535 2.83239 3.98791 2.78191 4.01989C2.67819 4.08166 2.58439 4.15855 2.5035 4.24816C2.45476 4.30247 2.25352 4.59627 1.29414 6.01027C0.661286 6.94389 0.12382 7.74035 0.100845 7.78003C0.0704893 7.83099 0.0470924 7.88587 0.031241 7.94304L0.00268555 8.03278V8.23743C0.00268555 8.35021 0.00689272 9.15854 0.0159434 10.0351C0.0340449 11.8403 0.0291544 11.7011 0.0855474 11.825C0.124647 11.9131 0.184613 11.9903 0.26028 12.0499C0.338099 12.1095 0.430403 12.1472 0.527647 12.1592C0.575663 12.1689 0.625128 12.1689 0.673144 12.1592C0.722506 12.1525 0.770908 12.1399 0.817281 12.1217C0.865079 12.1073 0.908234 12.0806 0.942551 12.0443C0.977165 12.012 1.00973 11.9777 1.04003 11.9413C1.071 11.9038 1.09461 11.8608 1.10963 11.8145C1.16394 11.6753 1.16188 11.8041 1.13751 10.074C1.11662 8.61195 1.11592 8.55284 1.12706 8.46094C1.13876 8.34171 1.17406 8.22599 1.23082 8.12049C1.27956 8.02998 2.1595 6.73856 2.20545 6.68983C2.22273 6.6683 2.24776 6.65422 2.27514 6.65073C2.28839 6.64524 2.30271 6.64287 2.31704 6.64359C2.33137 6.64432 2.34536 6.64819 2.358 6.65498C2.38493 6.66636 2.4088 6.6839 2.42777 6.70614C2.44675 6.72838 2.46029 6.75476 2.46729 6.78314C2.47426 6.81656 2.43734 7.49249 2.12335 13.0308C1.7286 20.0013 1.76063 19.3496 1.80797 19.4951C1.84507 19.6064 1.90809 19.7074 1.99179 19.7896C2.03165 19.8334 2.07872 19.8699 2.131 19.8976C2.27748 19.9849 2.4495 20.0193 2.61831 19.995C2.7354 19.9816 2.84715 19.9385 2.94279 19.8697C3.08793 19.7752 3.19128 19.6288 3.23166 19.4604C3.24837 19.3908 3.33826 18.7933 3.65642 16.6212C3.91263 14.8744 4.06578 13.8475 4.07413 13.8071C4.09546 13.7258 4.13799 13.6515 4.19736 13.5919C4.22602 13.5637 4.25978 13.5413 4.29688 13.5258L4.3568 13.4988H4.57054L4.63037 13.528C4.66877 13.5434 4.70327 13.5671 4.73133 13.5975C4.78747 13.6559 4.82752 13.7279 4.84759 13.8064C4.85734 13.8468 5.00701 14.8466 5.2653 16.6171C5.58347 18.7844 5.67257 19.3838 5.68998 19.4555C5.71415 19.5676 5.76914 19.6708 5.84873 19.7534C5.9664 19.8859 6.12827 19.971 6.30409 19.9929C6.47291 20.0172 6.64492 19.9829 6.7914 19.8955C6.84381 19.868 6.891 19.8315 6.9307 19.7876C7.01333 19.7073 7.07562 19.6085 7.1124 19.4993C7.16322 19.3476 7.20288 20.0563 6.75104 13.0245C6.39597 7.50222 6.3528 6.80807 6.35976 6.78161C6.36463 6.76163 6.37397 6.74302 6.38712 6.72722C6.40028 6.71141 6.41689 6.69893 6.43565 6.69051C6.4544 6.68623 6.47399 6.68697 6.49234 6.69271C6.51068 6.69846 6.52715 6.70893 6.5401 6.72314C6.56238 6.74681 7.35743 8.09888 7.40407 8.19426C7.42814 8.24141 7.45733 8.28573 7.4911 8.32649C7.54122 8.38776 9.83871 10.9722 9.90276 11.0418C9.93241 11.0703 9.96436 11.0964 9.9982 11.1198L10.0678 11.1713C10.0678 11.1713 10.3609 13.1312 10.7146 15.522C11.1009 18.1369 11.362 19.878 11.3676 19.892C11.3764 19.9094 11.3885 19.9251 11.4031 19.938C11.4101 19.9454 11.4187 19.9511 11.4282 19.9549C11.4377 19.9586 11.4479 19.9601 11.4581 19.9594C11.4723 19.9599 11.4864 19.9576 11.4997 19.9525C11.5129 19.9474 11.525 19.9397 11.5352 19.9299C11.5454 19.92 11.5535 19.9081 11.5591 19.895C11.5646 19.882 11.5674 19.8679 11.5674 19.8537C11.5674 19.8349 11.3843 18.2678 11.0578 15.5373C10.7751 13.1792 10.5433 11.2423 10.5426 11.2332C10.5419 11.2242 10.5426 11.2144 10.5934 11.1914C10.6318 11.1721 10.6679 11.1489 10.7013 11.1219C10.7394 11.0946 10.7713 11.0595 10.7946 11.0189C10.8487 10.9433 10.8848 10.8564 10.9004 10.7648C10.9107 10.7189 10.9107 10.6712 10.9004 10.6254C10.8876 10.5305 10.8543 10.4397 10.8029 10.3589C10.7709 10.3101 10.4967 10.001 9.5561 8.9525L8.35091 7.60955L8.27501 7.49601C8.21932 7.41177 7.9722 6.97872 7.33447 5.84251C6.48718 4.33382 6.46839 4.30179 6.40225 4.21825C6.36178 4.15921 6.30903 4.1096 6.24766 4.07275C6.19062 4.03292 6.12975 3.99887 6.06596 3.97111L5.96993 3.92861L5.84873 3.91604C5.73177 3.9042 5.6831 3.90361 4.46473 3.90431C3.30136 3.90849 3.20527 3.90986 3.12381 3.91961Z" fill="black"/>
</g>
<defs>
<clipPath id="clip0_580_3306">
<rect width="11.578" height="20" fill="white"/>
</clipPath>
</defs>
</svg>
