<svg width="20" height="23" viewBox="0 0 20 23" fill="none" xmlns="http://www.w3.org/2000/svg">
<g clip-path="url(#clip0_580_3293)">
<path d="M1.02828 0.516041C0.885531 0.528616 0.746887 0.570404 0.621 0.638865C0.551793 0.672979 0.487699 0.716566 0.430578 0.768437C0.252715 0.911966 0.122863 1.10632 0.0583385 1.32557C-0.00308843 1.52951 -0.00309218 1.23893 -0.00309218 4.61557C-0.00309218 8.00695 -0.00800259 7.71211 0.0583385 7.90437C0.125767 8.11857 0.253779 8.30873 0.426904 8.45176C0.54449 8.54611 0.678358 8.61811 0.821883 8.66426C1.00616 8.72569 0.626535 8.7208 4.95099 8.7208C9.20604 8.7208 8.8645 8.72505 9.08318 8.67161C9.16357 8.65418 9.24141 8.6265 9.31477 8.58928C9.39104 8.55633 9.46268 8.51357 9.52791 8.4621C9.72534 8.32807 9.88266 8.14304 9.98308 7.92657C10.0156 7.85465 10.0411 7.77976 10.0593 7.70296C10.1152 7.4806 10.1109 7.73433 10.1109 4.50204C10.1109 1.28696 10.1152 1.53135 10.0611 1.32557C10.0445 1.24934 10.0161 1.17617 9.97695 1.10872L9.92105 1.00194L9.76565 0.847621L9.61084 0.692853L9.50642 0.639465C9.37471 0.570212 9.2303 0.528447 9.08196 0.516641C8.96709 0.503741 8.88785 0.502515 5.04928 0.503744C1.34769 0.500672 1.13209 0.501299 1.02828 0.516041ZM9.02176 1.22239C9.06796 1.22834 9.11246 1.2436 9.15259 1.26723C9.23725 1.31563 9.30696 1.38641 9.35408 1.47179C9.41182 1.5799 9.4069 1.2974 9.4069 4.50204C9.4069 7.7331 9.41242 7.44675 9.35038 7.59049C9.32859 7.64371 9.29966 7.69368 9.26439 7.73911C9.23184 7.78666 9.19006 7.82724 9.14153 7.85833C9.09283 7.89034 9.04169 7.91846 8.98858 7.94246C8.84792 8.00389 9.2472 7.9972 4.95714 7.9972C1.61183 7.9972 1.14867 7.99715 1.09093 7.9867C1.02361 7.97812 0.9595 7.95292 0.904459 7.91322C0.849418 7.87352 0.805194 7.82067 0.775805 7.7595C0.719292 7.63665 0.724197 7.92229 0.724197 4.60462C0.724197 1.73476 0.724213 1.65606 0.737113 1.58726C0.74651 1.5191 0.772468 1.45425 0.812734 1.39845C0.853001 1.34266 0.906333 1.29763 0.968064 1.26723C1.08355 1.2058 0.65725 1.21132 5.05972 1.21009C8.79448 1.20764 8.95235 1.20832 9.02176 1.21999V1.22239Z" fill="black"/>
<path d="M4.93003 2.56942C4.85445 2.57259 4.77964 2.58614 4.70767 2.60946C4.69502 2.61394 4.68178 2.6164 4.66838 2.61681C4.64872 2.61937 4.62959 2.62508 4.61184 2.6339C4.59525 2.64238 4.57742 2.64824 4.55901 2.65115C4.45443 2.69499 4.35286 2.74572 4.25495 2.80292C4.24205 2.81213 4.21994 2.82995 4.2052 2.84101C4.19607 2.85052 4.18524 2.85815 4.17326 2.86366C4.15646 2.87474 4.14099 2.88772 4.12718 2.90235C4.11129 2.91807 4.09382 2.93214 4.07499 2.94419C4.06823 2.94419 4.06269 2.951 4.06269 2.95469C4.04827 2.97682 4.0316 2.99732 4.01294 3.01602C3.96622 3.06434 3.92501 3.11772 3.89008 3.17514C3.88143 3.19056 3.87199 3.20552 3.86181 3.21998C3.85455 3.22827 3.84893 3.23779 3.84524 3.24817C3.84045 3.26056 3.83384 3.27225 3.82559 3.28267C3.79207 3.33171 3.76618 3.38557 3.74881 3.44238C3.72375 3.51474 3.72214 3.5931 3.7442 3.66643C3.76625 3.73977 3.81086 3.80436 3.87167 3.8509C3.91522 3.88672 3.96727 3.91069 4.0228 3.92048C4.07833 3.93027 4.13545 3.92545 4.18863 3.90668C4.24607 3.8854 4.29855 3.85265 4.34291 3.8104C4.38727 3.76816 4.42255 3.71737 4.44661 3.66104C4.46439 3.62451 4.48491 3.58946 4.50802 3.55606C4.51613 3.54782 4.5228 3.53818 4.52771 3.52771C4.56345 3.48331 4.60474 3.44374 4.65057 3.40984C4.70723 3.37346 4.76778 3.34357 4.83113 3.32076C4.84826 3.31825 4.86502 3.31353 4.88092 3.30666C4.93739 3.29065 4.99619 3.28459 5.05473 3.28882C5.26543 3.28329 5.33609 3.29741 5.42332 3.3656C5.46632 3.39877 5.50807 3.427 5.53264 3.44358C5.55366 3.46054 5.56941 3.4831 5.57808 3.50867C5.57877 3.51416 5.58116 3.51926 5.58487 3.52337C5.59754 3.54764 5.60823 3.57294 5.61681 3.59895C5.63336 3.64047 5.6427 3.68461 5.64444 3.72927C5.65033 3.82309 5.63545 3.91706 5.60084 4.00446C5.59586 4.01181 5.5927 4.0201 5.59162 4.02891C5.57818 4.06777 5.55729 4.10373 5.53017 4.13464C5.51861 4.14863 5.50834 4.16364 5.49946 4.17948C5.48895 4.19599 5.47659 4.21122 5.46261 4.22492C5.4461 4.24145 5.43052 4.25885 5.41593 4.27711C5.36003 4.32461 5.29806 4.36455 5.23166 4.39573C5.21494 4.40213 5.19889 4.41019 5.18374 4.41972C5.16879 4.42922 5.15293 4.43714 5.13643 4.44357C5.06174 4.48186 4.99454 4.53329 4.93802 4.59534C4.84702 4.68725 4.77686 4.79771 4.73226 4.91912C4.72835 4.93854 4.72235 4.95736 4.71442 4.97551C4.69654 5.06734 4.69242 5.16139 4.70216 5.25445C4.70216 5.39082 4.70583 5.52598 4.70891 5.55423C4.7235 5.62469 4.75929 5.68902 4.81148 5.73854C4.83705 5.77025 4.87022 5.79494 4.90791 5.81038L4.96936 5.83797H5.06212C5.11163 5.84534 5.16218 5.83749 5.20706 5.81533C5.27938 5.78067 5.33877 5.72377 5.3766 5.65306C5.41714 5.57382 5.42148 5.54927 5.42639 5.33243C5.43069 5.14815 5.43129 5.13468 5.4448 5.11933C5.4526 5.1111 5.45886 5.10144 5.46325 5.09098C5.49238 5.06629 5.52653 5.0483 5.56335 5.03819C5.57508 5.03507 5.58599 5.0295 5.59529 5.0217C5.60952 5.01139 5.62477 5.00241 5.64077 4.99515C5.66074 4.98566 5.67966 4.97419 5.69727 4.96081C5.71187 4.94922 5.72771 4.93927 5.74455 4.93127C5.76113 4.92635 5.77465 4.91538 5.85942 4.84473C5.92082 4.79078 5.97888 4.73313 6.03327 4.67212C6.12947 4.54312 6.21185 4.4043 6.279 4.25806C6.279 4.24639 6.28759 4.22802 6.29066 4.21697C6.30289 4.18293 6.31254 4.14807 6.31953 4.11259C6.32291 4.08251 6.33011 4.05295 6.34101 4.02471C6.35322 3.93572 6.36019 3.84608 6.36189 3.75627C6.36027 3.67723 6.3531 3.59839 6.34041 3.52037C6.33621 3.51001 6.33393 3.49899 6.33366 3.48782C6.33422 3.48072 6.33202 3.47369 6.32751 3.46818C6.32189 3.45751 6.31855 3.44571 6.31769 3.43368C6.31417 3.41258 6.3082 3.39206 6.29988 3.37235C6.29213 3.35513 6.28595 3.33714 6.28143 3.31881C6.27854 3.30426 6.27268 3.29051 6.26423 3.27832C6.25697 3.26912 6.25249 3.25803 6.25133 3.24637C6.25078 3.23741 6.2471 3.22888 6.24091 3.22238C6.23486 3.21702 6.2311 3.20958 6.23045 3.20153C6.22847 3.19073 6.22385 3.18068 6.21695 3.17214C6.21017 3.16422 6.2055 3.15461 6.20341 3.1444C6.20215 3.13692 6.19822 3.13015 6.19235 3.12535C6.18383 3.11658 6.17661 3.10675 6.17087 3.09596C6.15654 3.07376 6.13986 3.0531 6.12112 3.03447C6.08302 2.9955 6.04829 2.95333 6.0173 2.9085C6.0173 2.9085 6.0093 2.89991 5.99886 2.895C5.98571 2.888 5.97356 2.87933 5.96264 2.8692C5.92388 2.83182 5.88124 2.79873 5.83547 2.77038C5.82009 2.76412 5.80595 2.75519 5.7937 2.74398C5.74366 2.70903 5.68965 2.68008 5.63278 2.6579C5.61981 2.65422 5.60708 2.64972 5.59469 2.6444C5.54255 2.62373 5.48841 2.60851 5.43314 2.59896L5.35081 2.58426C5.21146 2.56451 5.07042 2.55946 4.93003 2.56942Z" fill="black"/>
<path d="M4.97497 6.09542C4.90902 6.10787 4.84985 6.14392 4.80851 6.19679C4.75552 6.24718 4.72073 6.31378 4.7096 6.38605C4.70471 6.42378 4.70471 6.46186 4.7096 6.49958C4.71139 6.53696 4.72395 6.57314 4.74582 6.60351C4.76915 6.65387 4.80486 6.69742 4.84952 6.73038C4.89418 6.76334 4.94636 6.78457 5.00137 6.79202C5.04782 6.8001 5.09546 6.79887 5.14144 6.78842C5.18742 6.77797 5.23089 6.7585 5.26928 6.73113C5.30768 6.70376 5.34024 6.66906 5.36511 6.629C5.38999 6.58895 5.40664 6.54433 5.41415 6.49778C5.42588 6.46207 5.42588 6.42357 5.41415 6.38785C5.4034 6.33186 5.38018 6.27897 5.34614 6.23324C5.3121 6.1875 5.26817 6.15013 5.21762 6.12376C5.17811 6.10062 5.13239 6.09026 5.08677 6.09422C5.04953 6.09179 5.01215 6.09218 4.97497 6.09542Z" fill="black"/>
<path d="M10.8953 8.32403C10.838 8.33072 10.7822 8.34664 10.73 8.37127C10.673 8.39369 10.6205 8.42637 10.5753 8.4677C10.4826 8.54271 10.4099 8.63959 10.364 8.74964C10.337 8.80508 10.3208 8.86515 10.3161 8.9266C10.305 8.98629 10.305 9.04747 10.3161 9.10716C10.3211 9.16778 10.3373 9.22689 10.364 9.28157C10.4098 9.39169 10.4825 9.48859 10.5753 9.56351C10.6222 9.60641 10.677 9.63971 10.7368 9.66129C10.7917 9.688 10.8511 9.70417 10.9119 9.70913C10.9728 9.72031 11.0353 9.72031 11.0962 9.70913C11.1583 9.70495 11.2189 9.68896 11.2749 9.66189C11.4388 9.58586 11.5685 9.45135 11.6385 9.28472C11.6647 9.22983 11.6811 9.17084 11.6871 9.11031C11.6993 9.04949 11.6993 8.98681 11.6871 8.926C11.6812 8.86547 11.6648 8.80632 11.6385 8.75144C11.5917 8.64054 11.518 8.54308 11.4242 8.4677C11.3793 8.42647 11.327 8.39413 11.27 8.37247C11.2151 8.34719 11.1564 8.33164 11.0962 8.32643C11.0301 8.31179 10.9617 8.31101 10.8953 8.32403Z" fill="black"/>
<path d="M12.4427 9.48742C12.3818 9.4932 12.3224 9.5101 12.2675 9.53721C12.2107 9.56139 12.1566 9.59145 12.106 9.6269C12.0549 9.65816 12.0111 9.70003 11.9776 9.74972C11.9045 9.84525 11.8579 9.95837 11.8425 10.0777C11.8303 10.1398 11.8303 10.2037 11.8425 10.2658C11.8468 10.3282 11.8628 10.3893 11.8898 10.4457C11.9124 10.501 11.9425 10.5529 11.9794 10.5999C12.013 10.6493 12.0565 10.6911 12.1072 10.7227C12.1571 10.757 12.2102 10.7865 12.2657 10.8106C12.3215 10.8376 12.3816 10.8545 12.4433 10.8604C12.5041 10.8727 12.5668 10.8727 12.6276 10.8604C12.6875 10.8548 12.746 10.8385 12.8002 10.8124C12.9109 10.7652 13.0086 10.6921 13.0852 10.5993C13.1266 10.5563 13.1568 10.5038 13.173 10.4463C13.1956 10.3871 13.2102 10.3251 13.2161 10.262C13.2283 10.1995 13.2283 10.1354 13.2161 10.0729C13.2086 10.0139 13.1947 9.95579 13.1748 9.89969C13.159 9.84207 13.1287 9.78942 13.087 9.74672C12.976 9.60848 12.8183 9.51575 12.6435 9.48622L12.5508 9.47333C12.5146 9.47618 12.4785 9.48086 12.4427 9.48742Z" fill="black"/>
<path d="M15.5434 9.85036C15.2 9.87667 14.8649 9.96893 14.5563 10.122C14.2332 10.2748 13.9452 10.493 13.7105 10.7626C13.6285 10.8535 13.5545 10.9512 13.4893 11.0549C13.4226 11.1568 13.3611 11.2621 13.305 11.3701C13.2492 11.4735 13.2029 11.5816 13.1663 11.6932C13.1273 11.8005 13.0973 11.9109 13.0766 12.0231C13.0497 12.1418 13.0336 12.2626 13.0286 12.3842C13.016 12.5123 13.016 12.6413 13.0286 12.7693C13.0335 12.891 13.0496 13.0119 13.0766 13.1306C13.0979 13.2454 13.1286 13.3581 13.1687 13.4677C13.2057 13.5816 13.2534 13.6917 13.3112 13.7965C13.575 14.3358 14.011 14.772 14.5502 15.0361C14.6547 15.0963 14.7666 15.1423 14.8831 15.173C14.9969 15.2096 15.1128 15.2393 15.2302 15.2621C15.3477 15.2884 15.4673 15.3038 15.5877 15.3082C15.7066 15.3194 15.8263 15.3194 15.9452 15.3082C16.1809 15.2923 16.4137 15.2477 16.6387 15.1754C16.7584 15.1422 16.8739 15.095 16.9827 15.0348C17.0921 14.9823 17.1969 14.9208 17.296 14.8506C17.4932 14.7155 17.6737 14.5573 17.8335 14.3794C17.9159 14.2924 17.9893 14.1974 18.0527 14.0957C18.1731 13.9109 18.2709 13.7122 18.3439 13.504C18.3697 13.4285 18.3942 13.3604 18.3979 13.353C18.4223 13.2747 18.4409 13.1945 18.4533 13.1134C18.4791 12.9975 18.4943 12.8795 18.4987 12.7608C18.51 12.6382 18.51 12.5148 18.4987 12.3922C18.4939 12.2725 18.4785 12.1536 18.4527 12.0366C18.4318 11.9194 18.4007 11.8043 18.3598 11.6926C18.2842 11.4649 18.1789 11.2482 18.0466 11.0482C17.9828 10.945 17.9082 10.8491 17.8237 10.762C17.6636 10.5849 17.4826 10.4276 17.2849 10.2938C17.1873 10.2237 17.0822 10.1646 16.9716 10.1176C16.865 10.068 16.7559 10.0239 16.6448 9.98548C16.5331 9.94453 16.4181 9.91376 16.3009 9.8934C16.1856 9.86732 16.0682 9.85121 15.9502 9.84541C15.8148 9.83294 15.6784 9.83462 15.5434 9.85036Z" fill="black"/>
<path d="M13.6632 16.253C13.4139 16.2785 13.1768 16.3734 12.9789 16.527C12.9069 16.5747 12.8425 16.6328 12.7879 16.6996C12.6251 16.8839 12.7123 16.7162 11.2823 19.6401C10.5752 21.0849 9.99235 22.2815 9.98129 22.3005C9.97373 22.3134 9.9695 22.328 9.96899 22.3429C10.1561 22.3594 10.3441 22.3627 10.5317 22.3528H11.0906L11.9138 20.8785C12.439 19.935 12.7454 19.3932 12.7608 19.3766C12.772 19.3654 12.7854 19.3567 12.8002 19.3511C12.8149 19.3454 12.8308 19.343 12.8466 19.3439C12.8624 19.3448 12.8778 19.3491 12.8918 19.3565C12.9058 19.3638 12.9182 19.374 12.9279 19.3864C12.9451 19.4054 12.9543 19.4302 12.9537 19.4558C12.9537 19.4902 12.9064 19.7716 12.6957 20.9184C12.552 21.6991 12.4365 22.3423 12.4384 22.3466C12.4402 22.3509 13.0618 22.3558 15.514 22.3558C18.1461 22.3558 18.5854 22.3558 18.5909 22.3459C18.5964 22.3361 18.5663 21.97 18.5294 21.5222C18.4938 21.0646 18.468 20.688 18.468 20.6622C18.468 20.6223 18.4741 20.6119 18.4907 20.5941C18.5044 20.5787 18.5212 20.5664 18.5399 20.5579C18.5586 20.5495 18.5789 20.5451 18.5994 20.545C18.6203 20.552 18.6393 20.5635 18.6552 20.5787C18.6711 20.5939 18.6835 20.6123 18.6916 20.6328C18.6965 20.6481 18.7665 21.0345 18.8476 21.4928C18.9287 21.951 18.9969 22.3313 18.9987 22.3399L19.0024 22.3558H19.4981C19.6644 22.3656 19.8312 22.3623 19.9969 22.3459C19.9969 22.341 19.8065 21.2268 19.567 19.8692C19.2598 18.1057 19.1278 17.3673 19.1063 17.2801C19.0869 17.2014 19.0614 17.1244 19.0301 17.0497C19.0014 16.9753 18.9626 16.9052 18.9146 16.8415C18.8694 16.7737 18.8159 16.7118 18.7555 16.6572C18.5876 16.4831 18.3751 16.3584 18.1412 16.2967C17.9145 16.2389 18.0583 16.242 15.7824 16.2432C13.9212 16.2401 13.775 16.242 13.6632 16.253Z" fill="black"/>
</g>
<defs>
<clipPath id="clip0_580_3293">
<rect width="20" height="21.852" fill="white" transform="translate(0 0.5)"/>
</clipPath>
</defs>
</svg>
