<svg width="20" height="20" viewBox="0 0 20 20" fill="none" xmlns="http://www.w3.org/2000/svg">
<g clip-path="url(#clip0_582_1113)">
<path d="M16.6888 1.41459C15.7212 2.38156 15.2738 2.8329 15.2749 2.84189C15.3373 2.91065 15.4055 2.97395 15.4789 3.03089C15.6188 3.14891 15.752 3.2748 15.8776 3.40807C15.9844 3.5205 16.1463 3.69532 16.2368 3.80157C16.4649 4.06725 16.6716 4.35058 16.8551 4.64884C16.9012 4.72887 16.9528 4.80566 17.0092 4.87874C17.0149 4.87874 17.6895 4.20866 18.5097 3.38899L19.9989 1.89964V0.952454V0.00512695H19.0517H18.1044L16.6888 1.41459Z" fill="black"/>
<path d="M10.5478 2.45455C10.2164 2.46265 9.88609 2.49645 9.55995 2.55571C9.39157 2.57995 9.22544 2.61766 9.06302 2.66826C8.58426 2.80129 8.12271 2.98998 7.68787 3.23045C7.54126 3.3102 7.39952 3.3986 7.26342 3.49521C6.98802 3.68201 6.72666 3.88862 6.48141 4.11354C6.35858 4.22646 6.24221 4.34631 6.13285 4.47232C6.01804 4.59807 5.91065 4.73031 5.81127 4.86858C5.40918 5.40009 5.09787 5.99457 4.88988 6.62776C4.83456 6.7871 4.78765 6.94924 4.74933 7.1135C4.71673 7.24674 4.6897 7.36085 4.6897 7.36591C4.6897 7.37097 4.69588 7.37657 4.70431 7.37882C4.77852 7.39624 5.92651 7.62219 5.93439 7.62107C5.96607 7.5494 5.98782 7.4738 5.99903 7.39625C6.03162 7.25122 6.07429 7.10863 6.12668 6.96952C6.17559 6.83347 6.22901 6.69916 6.29029 6.56311C6.46791 6.15736 6.70493 5.78031 6.99357 5.44436C7.17856 5.2198 7.38574 5.01445 7.61197 4.83152C7.72778 4.73431 7.84968 4.64454 7.97686 4.56277C8.07862 4.49531 8.24954 4.38965 8.35692 4.32725C8.48175 4.24904 8.61345 4.18242 8.75043 4.12823C9.02551 4.01285 9.30962 3.92037 9.59989 3.85166C9.74171 3.81315 9.88653 3.78657 10.0328 3.77233C10.1964 3.75209 10.2959 3.74425 10.4691 3.73582C10.6162 3.72565 10.7638 3.72565 10.9109 3.73582C11.2047 3.74978 11.4965 3.79046 11.7829 3.85729C11.9279 3.88677 12.0702 3.92794 12.2085 3.98041C12.6293 4.12643 13.0296 4.32572 13.3998 4.57348C13.524 4.65192 13.6419 4.74009 13.7522 4.83714C13.9747 5.02697 14.1804 5.23569 14.3667 5.4611C14.6554 5.79514 14.8925 6.17065 15.07 6.57492C15.1341 6.71145 15.1884 6.85235 15.2325 6.99656C15.2826 7.14892 15.3207 7.2827 15.3573 7.43056C15.3966 7.57612 15.4252 7.72428 15.4428 7.87403C15.4844 8.16364 15.4996 8.45652 15.4883 8.74888C15.4881 8.89362 15.4755 9.0381 15.4506 9.18069C15.376 9.76755 15.1884 10.3344 14.898 10.8498C14.6886 11.2361 14.4276 11.5919 14.1222 11.9078C14.0196 12.0159 13.9105 12.1176 13.7955 12.2125C13.5131 12.4521 13.2431 12.706 12.9866 12.9732C12.8487 13.1136 12.7197 13.2625 12.6003 13.419C12.4671 13.5876 12.3642 13.7253 12.2428 13.9002C12.1288 14.0599 12.0236 14.2258 11.9279 14.3972C11.811 14.6012 11.7593 14.6996 11.657 14.9132C11.5701 15.0894 11.4924 15.27 11.4242 15.4542C11.3494 15.6492 11.291 15.8145 11.228 16.0113C11.1887 16.1468 11.141 16.2797 11.0852 16.4093C10.9818 16.6494 10.8226 16.8615 10.6209 17.0278C10.4244 17.2016 10.1916 17.3292 9.93946 17.4015C9.85883 17.4247 9.77699 17.4435 9.69432 17.4578C9.60771 17.4748 9.51945 17.4813 9.43127 17.4774C9.34316 17.4808 9.25493 17.4746 9.16816 17.4589C8.82482 17.4033 8.50268 17.2566 8.23545 17.0339C8.20039 17.0026 8.16281 16.9741 8.12304 16.949C8.10955 16.949 7.23645 17.8345 7.23645 17.8486C7.27561 17.8951 7.31868 17.9381 7.36519 17.9773C7.44764 18.0555 7.53642 18.1267 7.63057 18.1903C7.7059 18.2426 7.83627 18.3241 7.92004 18.3719C8.01907 18.4316 8.12336 18.4823 8.23154 18.5232C8.54856 18.6544 8.88564 18.7304 9.22828 18.748C9.34332 18.7565 9.45876 18.7584 9.57402 18.7536C9.68747 18.754 9.8006 18.7418 9.91132 18.7171C10.0052 18.6997 10.1582 18.6654 10.2487 18.6412C10.4708 18.5849 10.6849 18.5004 10.8856 18.3899C11.1908 18.2222 11.4676 18.0074 11.7058 17.7534C11.9374 17.5037 12.1253 17.2169 12.2613 16.9047C12.3219 16.7755 12.3689 16.6404 12.4013 16.5015C12.4456 16.3368 12.4998 16.175 12.5638 16.0169C12.8589 15.2354 13.3002 14.5172 13.8641 13.9009C14.0928 13.6569 14.337 13.4277 14.595 13.2149C14.7074 13.1182 14.8761 12.9665 14.9733 12.8698C15.0943 12.7565 15.207 12.6347 15.3106 12.5054C15.3983 12.3997 15.5356 12.2243 15.6188 12.1119C15.8168 11.8431 15.9897 11.5567 16.1354 11.2562C16.2133 11.1064 16.2818 10.9519 16.3406 10.7936C16.3934 10.6564 16.4586 10.4715 16.5025 10.3343C16.5544 10.1799 16.5967 10.0223 16.629 9.86256C16.6683 9.69583 16.6974 9.52692 16.7161 9.35665C16.7412 9.18566 16.7561 9.0132 16.7606 8.84043C16.7696 8.62624 16.7701 8.54542 16.765 8.33122C16.7632 8.16696 16.7523 8.00292 16.7324 7.83985C16.7167 7.67825 16.6923 7.51749 16.6593 7.3585C16.6293 7.19276 16.5897 7.02901 16.5408 6.86782C16.4955 6.70435 16.4412 6.54341 16.3783 6.38592C16.2579 6.07607 16.1151 5.77551 15.951 5.48649C15.8731 5.34201 15.7852 5.20317 15.6879 5.07103C15.4018 4.65499 15.0638 4.27715 14.6821 3.94664C14.4341 3.72956 14.1697 3.532 13.8911 3.35576C13.7473 3.26391 13.598 3.18068 13.4442 3.10665C13.2823 3.02625 13.1338 2.95767 12.9848 2.89582C12.8344 2.82981 12.6798 2.77359 12.5222 2.72728C12.3612 2.67483 12.1974 2.63185 12.0314 2.59853C11.8476 2.55862 11.7166 2.53438 11.5311 2.5074C11.3739 2.48075 11.2152 2.46363 11.056 2.4562L10.8075 2.44165C10.7952 2.45065 10.6776 2.4523 10.5478 2.45455Z" fill="black"/>
<path d="M10.3842 4.96415C10.2819 4.9737 10.1594 4.99056 10.0379 5.01136C9.91418 5.03048 9.79201 5.05892 9.6725 5.09632C9.4333 5.16699 9.20168 5.26115 8.98101 5.37742C8.86907 5.43255 8.76185 5.49689 8.66053 5.56971C8.5762 5.62593 8.44352 5.72771 8.36481 5.79124C8.07422 6.03222 7.82444 6.31839 7.62501 6.63892C7.55715 6.74218 7.49755 6.85073 7.44679 6.96339C7.40406 7.05559 7.33435 7.21126 7.29725 7.31133C7.24693 7.42959 7.2092 7.55286 7.18477 7.67903C7.16764 7.74258 7.1547 7.80718 7.146 7.87242C7.15387 7.87973 7.77113 7.99717 7.77675 7.99211C7.78237 7.98705 7.80317 7.9095 7.82959 7.81505C7.85995 7.70599 7.90103 7.58239 7.94207 7.47782C7.9806 7.36564 8.03009 7.25756 8.08989 7.15513C8.14682 7.0503 8.21048 6.94922 8.28047 6.85263C8.4865 6.56479 8.74218 6.3159 9.0355 6.11777C9.13127 6.04693 9.23394 5.98592 9.34192 5.93563C9.44974 5.88083 9.56065 5.8325 9.67415 5.79069C9.78441 5.74573 9.89894 5.7119 10.016 5.68995C10.1273 5.66513 10.2399 5.64644 10.3533 5.63381C10.4722 5.61831 10.5921 5.61213 10.712 5.61528C10.8338 5.61012 10.9557 5.61839 11.0757 5.63999C11.3087 5.67232 11.5371 5.73136 11.7566 5.81595C11.866 5.85677 11.9723 5.90545 12.0747 5.96157C12.183 6.01632 12.2857 6.08162 12.3811 6.15661C12.5723 6.29423 12.7479 6.45247 12.9046 6.62835C13.1397 6.89498 13.3221 7.20379 13.442 7.53848C13.4863 7.64742 13.52 7.76044 13.5427 7.87585C13.5683 7.99214 13.5871 8.10982 13.5989 8.22832C13.616 8.34614 13.6233 8.4652 13.6207 8.58422C13.6234 8.70043 13.6162 8.8166 13.5994 8.93161C13.5879 9.05034 13.5647 9.16768 13.5302 9.28188C13.4108 9.74472 13.1817 10.1719 12.8624 10.5276C12.7855 10.6179 12.7015 10.7017 12.611 10.7784C12.5104 10.8655 12.4818 10.8942 12.4835 10.9044C12.4874 10.9263 12.8545 11.4164 12.8674 11.417C12.9223 11.3797 12.9745 11.3385 13.0237 11.2939C13.119 11.2146 13.2086 11.1288 13.2919 11.037C13.4636 10.8479 13.6184 10.6442 13.7546 10.4281C13.8234 10.3232 13.8836 10.2129 13.9344 10.0981C13.9908 9.9825 14.0383 9.86281 14.0767 9.74004C14.1093 9.63884 14.1566 9.48251 14.1813 9.39032C14.2154 9.2752 14.2376 9.15694 14.2476 9.0373C14.2639 8.89619 14.2707 8.80517 14.2757 8.66012C14.283 8.53338 14.2796 8.40624 14.2656 8.28007C14.248 8.02923 14.2028 7.78102 14.1306 7.54013C14.0634 7.29825 13.9677 7.06526 13.8456 6.8459C13.6045 6.40673 13.2767 6.02108 12.882 5.71246C12.7835 5.63155 12.6784 5.55897 12.5678 5.49546C12.4779 5.43924 12.3283 5.35836 12.2367 5.31058C12.1295 5.25134 12.0164 5.20339 11.8993 5.16769C11.8043 5.13621 11.6458 5.08895 11.5468 5.06366C11.4253 5.02872 11.3012 5.00334 11.1758 4.98775C11.0406 4.96462 10.9036 4.95431 10.7665 4.95687C10.639 4.94975 10.5113 4.95216 10.3842 4.96415Z" fill="black"/>
<path d="M2.77723 15.3287L0 18.1019V19.0493V19.9966H0.947859H1.89515L4.66846 17.2188C6.35503 15.5271 7.44174 14.4365 7.44174 14.4292C7.44174 14.4129 5.57976 12.552 5.56346 12.552C5.54715 12.552 4.59311 13.515 2.77723 15.3287Z" fill="black"/>
<path d="M3.53735 13.9581C3.53735 13.9609 3.54187 13.9643 3.54693 13.9643C3.55199 13.9643 3.55647 13.9609 3.55647 13.9581C3.55647 13.9553 3.55199 13.9519 3.54693 13.9519C3.54187 13.9519 3.53735 13.9519 3.53735 13.9581Z" fill="black"/>
<path d="M1.76929 15.7173C1.76929 15.7198 1.77031 15.7223 1.7721 15.7241C1.77389 15.7259 1.77633 15.7269 1.77886 15.7269C1.78012 15.7269 1.78134 15.7266 1.7825 15.7262C1.78366 15.7257 1.7847 15.725 1.78559 15.7241C1.78647 15.7232 1.7872 15.7222 1.78768 15.721C1.78816 15.7198 1.7884 15.7186 1.7884 15.7173C1.7884 15.716 1.78816 15.7148 1.78768 15.7137C1.7872 15.7125 1.78647 15.7115 1.78559 15.7106C1.7847 15.7097 1.78366 15.709 1.7825 15.7085C1.78134 15.708 1.78012 15.7078 1.77886 15.7078C1.77633 15.7078 1.77389 15.7088 1.7721 15.7106C1.77031 15.7124 1.76929 15.7148 1.76929 15.7173Z" fill="black"/>
<path d="M0.0134277 17.4859C0.0134277 17.4871 0.013668 17.4884 0.0141483 17.4895C0.0146286 17.4907 0.0153368 17.4917 0.0162243 17.4926C0.0171118 17.4935 0.0181701 17.4942 0.0193297 17.4947C0.0204892 17.4952 0.021729 17.4954 0.022984 17.4954C0.0242391 17.4954 0.0254789 17.4952 0.0266384 17.4947C0.027798 17.4942 0.0288563 17.4935 0.0297438 17.4926C0.0306313 17.4917 0.0313395 17.4907 0.0318198 17.4895C0.0323001 17.4884 0.0325404 17.4871 0.0325404 17.4859C0.0325404 17.4834 0.0315361 17.4809 0.0297438 17.4791C0.0279515 17.4773 0.0255188 17.4763 0.022984 17.4763C0.0204493 17.4763 0.0180166 17.4773 0.0162243 17.4791C0.0144319 17.4809 0.0134277 17.4834 0.0134277 17.4859Z" fill="black"/>
</g>
<defs>
<clipPath id="clip0_582_1113">
<rect width="20" height="19.9994" fill="white"/>
</clipPath>
</defs>
</svg>
