<svg width="14" height="20" viewBox="0 0 14 20" fill="none" xmlns="http://www.w3.org/2000/svg">
<g clip-path="url(#clip0_580_3419)">
<path d="M6.35242 3.51633C6.13235 3.53819 5.91652 3.59139 5.7115 3.67432C5.60495 3.71326 5.5033 3.76438 5.4085 3.82667C5.31108 3.88413 5.22004 3.95187 5.13693 4.02858C4.87912 4.24847 4.67587 4.52522 4.54323 4.83703C4.49384 4.93855 4.45937 5.0467 4.4409 5.15808C4.41722 5.26836 4.4011 5.3801 4.39258 5.49257C4.37874 5.60779 4.37874 5.72421 4.39258 5.83942C4.4007 5.95283 4.41664 6.06546 4.44035 6.17667C4.45795 6.28686 4.49309 6.39353 4.54439 6.49263C4.68233 6.80411 4.88532 7.08253 5.13975 7.30904C5.22076 7.38693 5.31237 7.45292 5.41186 7.50519C5.49226 7.55016 5.62829 7.61764 5.71712 7.65699C5.82544 7.70588 5.93845 7.74352 6.05443 7.76941L6.22875 7.81278H6.8528L7.02711 7.76941C7.14306 7.74339 7.25606 7.70574 7.36442 7.65699C7.45831 7.61595 7.58932 7.55245 7.6714 7.50354C7.7699 7.45214 7.86072 7.38723 7.94125 7.31069C8.19734 7.08055 8.40195 6.79894 8.54169 6.48426C8.59026 6.38724 8.62365 6.28328 8.64065 6.17612C8.66455 6.06493 8.68067 5.9523 8.68896 5.83887C8.70311 5.72312 8.70311 5.606 8.68896 5.49024C8.68041 5.37792 8.66404 5.26634 8.64003 5.15629C8.62167 5.04514 8.58745 4.93731 8.53832 4.83593C8.40556 4.52387 8.20234 4.24667 7.94461 4.02625C7.86143 3.94963 7.77039 3.88204 7.67305 3.82448C7.57808 3.76262 7.47646 3.71169 7.37005 3.67267C7.26571 3.63193 7.15881 3.59799 7.0501 3.57096C6.93999 3.54025 6.82692 3.52135 6.71279 3.51469C6.61722 3.50625 6.53287 3.5 6.52612 3.5L6.35242 3.51633Z" fill="black"/>
<path d="M4.39589 8.56042C4.32074 8.56981 4.24825 8.59439 4.1828 8.63248C4.06563 8.69574 3.95294 8.76688 3.84549 8.84551C3.67937 8.95702 3.52289 9.08228 3.37771 9.21995C3.24615 9.33801 2.99822 9.57299 2.82731 9.74221C2.63116 9.92914 2.44714 10.1284 2.27635 10.3387C2.11211 10.5291 1.95989 10.7295 1.82045 10.9387C1.70183 11.1107 1.51739 11.394 1.40888 11.5699C1.27537 11.778 1.15551 11.9946 1.05016 12.2182C0.826775 12.6673 0.636127 13.1319 0.479579 13.6085C0.378944 13.916 0.350794 14.015 0.270398 14.3394C0.2042 14.5826 0.15576 14.8303 0.125385 15.0804C0.0865927 15.3458 0.0612741 15.5578 0.0354125 15.8344L0 16.2194L0.0224417 16.3082C0.0395357 16.3945 0.0743764 16.4763 0.124699 16.5484C0.175021 16.6205 0.239741 16.6813 0.314801 16.7271C0.412288 16.7853 0.521668 16.8209 0.634749 16.8312C0.694511 16.8406 0.755597 16.8353 0.81291 16.8159C0.923861 16.7874 1.0262 16.7322 1.11103 16.6552C1.19587 16.5782 1.26069 16.4818 1.29983 16.3741C1.3402 16.2427 1.35917 16.1055 1.35604 15.9681C1.37628 15.7207 1.39651 15.5499 1.43249 15.302C1.46034 15.0865 1.5011 14.8727 1.55451 14.6621C1.61467 14.4102 1.64611 14.2989 1.73213 14.0341C1.79662 13.8234 1.87397 13.617 1.96375 13.4158C2.03346 13.2539 2.15603 12.9873 2.23586 12.8226C2.42881 12.4257 2.65724 12.0471 2.91838 11.6914C3.16123 11.347 3.43166 11.0229 3.72689 10.7222C3.74573 10.7115 3.7667 10.705 3.78832 10.7034C3.80994 10.7018 3.83166 10.705 3.85187 10.7129C3.87207 10.7208 3.89027 10.7331 3.90512 10.7489C3.91998 10.7647 3.93111 10.7837 3.93772 10.8043C3.94672 10.8246 3.94897 11.2816 3.95234 13.3163L3.95625 15.8034H4.04677C4.15359 15.8034 4.14007 15.8265 4.15919 15.6472C4.16486 15.5648 4.18266 15.4836 4.21203 15.4064C4.26674 15.247 4.34941 15.0986 4.45608 14.968C4.50554 14.8996 4.56658 14.8404 4.6365 14.7932C4.70853 14.7413 4.7849 14.6957 4.86476 14.657C4.94263 14.6125 5.02769 14.5819 5.11608 14.5666C5.19592 14.5487 5.27721 14.5382 5.35896 14.5351C5.44433 14.5279 5.53028 14.5329 5.61419 14.5502C5.86292 14.5856 6.09425 14.6983 6.27536 14.8724C6.3401 14.9297 6.39686 14.9956 6.44405 15.0681C6.50421 15.1547 6.52332 15.1776 6.53794 15.1776C6.55255 15.1776 6.57166 15.1546 6.63182 15.0692C6.67892 14.9963 6.73561 14.9301 6.80044 14.8724C6.98089 14.6984 7.21168 14.5858 7.4599 14.5508C7.54381 14.5335 7.62983 14.5285 7.7152 14.5357C7.79694 14.5388 7.87824 14.5493 7.95808 14.5671C8.04804 14.5827 8.13448 14.6143 8.21331 14.6604C8.37122 14.7291 8.51037 14.8346 8.61918 14.968C8.72529 15.099 8.80751 15.2476 8.86206 15.4071C8.89143 15.4843 8.90923 15.5654 8.9149 15.6477C8.93289 15.8271 8.91888 15.8062 9.02738 15.8039H9.1179L9.12182 13.3168C9.12519 11.2822 9.12744 10.8251 9.13643 10.8049C9.14304 10.7842 9.15418 10.7652 9.16903 10.7494C9.18389 10.7336 9.20209 10.7215 9.22229 10.7136C9.24249 10.7057 9.26422 10.7024 9.28584 10.704C9.30746 10.7056 9.32843 10.712 9.34726 10.7228C9.49426 10.8612 9.62947 11.0116 9.75149 11.1724C10.035 11.5099 10.2923 11.8686 10.5212 12.2452C10.6386 12.4318 10.7445 12.6254 10.8382 12.8249C10.9186 12.9896 11.0406 13.2571 11.1109 13.4196C11.1988 13.6162 11.275 13.8178 11.3391 14.0234C11.4212 14.277 11.4516 14.3895 11.5157 14.6515C11.5713 14.866 11.6132 15.0838 11.641 15.3036C11.677 15.551 11.6973 15.7208 11.7175 15.9648C11.7145 16.1024 11.7335 16.2396 11.7738 16.3712C11.8122 16.4799 11.8768 16.5774 11.962 16.6551C12.0471 16.7327 12.15 16.7881 12.2617 16.8165C12.319 16.8358 12.3802 16.8411 12.44 16.8317C12.553 16.8215 12.6623 16.7859 12.7598 16.7277C12.8354 16.6811 12.9006 16.6195 12.9512 16.5465C13.0018 16.4735 13.0368 16.3909 13.0539 16.3038L13.0747 16.2178L13.0393 15.8337C13.0134 15.5566 12.9881 15.3469 12.9499 15.081C12.919 14.8309 12.8704 14.5832 12.8043 14.3399C12.6252 13.6064 12.3634 12.8956 12.0239 12.2211C11.9185 11.9943 11.7975 11.775 11.6618 11.5649C11.5556 11.3928 11.3723 11.1151 11.2548 10.9425C11.116 10.733 10.964 10.5327 10.7994 10.3427C10.6293 10.1334 10.446 9.93504 10.2508 9.74894C10.0821 9.58028 9.83416 9.34589 9.70036 9.22558C9.55391 9.08691 9.39607 8.96078 9.2286 8.84839C9.12115 8.76993 9.00845 8.69883 8.89129 8.63578C8.82342 8.596 8.748 8.57099 8.66983 8.56221L8.55734 8.54299H6.52778H4.49822L4.39589 8.56042Z" fill="black"/>
<path d="M5.27904 14.9876C5.07735 15.0247 4.89562 15.1328 4.76686 15.2924C4.71749 15.3462 4.6793 15.4092 4.65444 15.4779C4.58136 15.651 4.58753 15.3885 4.58753 18.4907C4.58753 21.593 4.58192 21.331 4.65444 21.5025C4.67955 21.5705 4.71772 21.633 4.76686 21.6863C4.85537 21.7965 4.96997 21.8829 5.10026 21.9376C5.16534 21.969 5.23569 21.9881 5.30772 21.9938C5.37702 22.0068 5.44816 22.0068 5.51745 21.9938C5.73175 21.9645 5.92669 21.8543 6.06223 21.6858C6.11039 21.6323 6.14845 21.5706 6.17464 21.5036C6.20614 21.4366 6.22518 21.3644 6.23085 21.2905C6.24716 21.1781 6.24719 21.1219 6.24719 18.4885C6.24719 15.8461 6.24716 15.7989 6.23085 15.6842C6.22475 15.6104 6.20573 15.5383 6.17464 15.4711C6.14909 15.4038 6.11095 15.3419 6.06223 15.2889C5.93123 15.1258 5.74429 15.0172 5.5377 14.9842C5.45196 14.9702 5.36438 14.9714 5.27904 14.9876Z" fill="black"/>
<path d="M7.52348 14.9893C7.32424 15.0254 7.14463 15.132 7.01747 15.2896C6.96881 15.3433 6.93063 15.4056 6.90499 15.4734C6.87375 15.5411 6.85473 15.6138 6.84878 15.6882C6.83248 15.8006 6.83252 15.8568 6.83252 18.4869C6.83252 21.1169 6.83248 21.1719 6.84878 21.2888C6.85434 21.3638 6.87337 21.4371 6.90499 21.5053C6.93116 21.5723 6.9693 21.6341 7.01747 21.6875C7.15305 21.856 7.34797 21.9662 7.56225 21.9956C7.63156 22.0084 7.7026 22.0084 7.77191 21.9956C7.84395 21.9898 7.9143 21.9708 7.97938 21.9394C8.10945 21.8845 8.22386 21.7981 8.31223 21.6881C8.36153 21.6348 8.39972 21.5723 8.42464 21.5042C8.49773 21.3322 8.4921 21.5925 8.4921 18.4908C8.4921 15.3891 8.49776 15.6516 8.42636 15.4807C8.40149 15.412 8.36323 15.349 8.31388 15.2952C8.18373 15.1314 7.99709 15.022 7.79051 14.9888C7.70226 14.9721 7.61166 14.9723 7.52348 14.9893Z" fill="black"/>
<path d="M2.93184 15.9609C2.85923 15.9887 2.79414 16.0332 2.74181 16.0907C2.68948 16.1482 2.65136 16.2171 2.63049 16.292C2.60182 16.3927 1.79899 22.8991 1.79899 23.0256C1.79489 23.078 1.80499 23.1307 1.82822 23.178C1.85598 23.2509 1.9002 23.3163 1.95745 23.3693C2.0147 23.4222 2.08344 23.4612 2.15826 23.4832C2.20602 23.5018 2.25798 23.5067 2.30835 23.4973C2.36144 23.4912 2.41406 23.4815 2.46578 23.4681C2.5174 23.4596 2.56498 23.435 2.60181 23.3978C2.68034 23.3271 2.73957 23.2375 2.77386 23.1375C2.87616 22.6177 2.94564 22.0919 2.98187 21.5633C3.08082 20.743 3.16402 20.06 3.16683 20.0453L3.17074 20.0195H3.73295C4.04104 20.0195 4.29517 20.0161 4.3036 20.0127C4.31796 19.8719 4.32061 19.7301 4.31149 19.5888V19.1723H3.7954C3.28154 19.1723 3.27869 19.1722 3.27869 19.1537C3.27869 19.1351 3.35406 18.5476 3.44738 17.8274C3.60537 16.586 3.61603 16.5124 3.60928 16.4219C3.61135 16.3121 3.57566 16.2049 3.50812 16.1183C3.45909 16.0558 3.39574 16.0059 3.32344 15.973C3.25114 15.94 3.172 15.9249 3.09264 15.9288C3.03711 15.9244 2.98142 15.9355 2.93184 15.9609Z" fill="black"/>
<path d="M9.82842 15.9529C9.72806 15.9793 9.63964 16.0387 9.57724 16.1216C9.54163 16.1619 9.51645 16.2104 9.50408 16.2627C9.45629 16.4207 9.44788 16.3476 9.63791 17.8251C9.72955 18.5469 9.8066 19.1457 9.8066 19.1552V19.1733H9.29051H8.77318V19.5899C8.76401 19.7311 8.76691 19.873 8.78169 20.0138C8.78731 20.0172 9.04417 20.0205 9.35282 20.0205H9.91503L9.92011 20.0503C9.92011 20.0672 10.005 20.7463 10.1033 21.5599C10.1403 22.0859 10.2097 22.6092 10.3109 23.1267C10.3428 23.2307 10.4026 23.3238 10.484 23.396C10.5208 23.4332 10.5685 23.4577 10.6201 23.4663C10.6719 23.4797 10.7243 23.4895 10.7774 23.4955C10.8276 23.5049 10.8794 23.5002 10.927 23.482C11.0017 23.4598 11.0703 23.4207 11.1276 23.3678C11.1848 23.3149 11.2291 23.2495 11.257 23.1768C11.2803 23.1289 11.2904 23.0757 11.2862 23.0227C11.2862 22.8996 10.4835 16.392 10.456 16.2908C10.4345 16.2151 10.3955 16.1456 10.3422 16.0877C10.2888 16.0299 10.2226 15.9855 10.1489 15.958C10.1007 15.9349 10.0471 15.9251 9.99381 15.9299C9.93784 15.9286 9.88192 15.9364 9.82842 15.9529Z" fill="black"/>
<path d="M1.84406 16.2695C1.7983 16.2791 1.75545 16.2994 1.71901 16.3287C1.68258 16.358 1.65356 16.3955 1.63432 16.4381C1.62814 16.4606 1.46567 17.7638 1.26496 19.3706C0.991731 21.5801 0.90855 22.2727 0.912486 22.3076C0.918237 22.3414 0.928054 22.3744 0.941722 22.4059C0.959491 22.455 0.993767 22.4964 1.03869 22.523C1.08362 22.5495 1.1364 22.5596 1.18796 22.5516C1.23695 22.5457 1.28355 22.527 1.32302 22.4974C1.3625 22.4677 1.39348 22.4283 1.41286 22.3829C1.43085 22.33 2.13868 16.6006 2.13868 16.5117C2.14199 16.4918 2.14089 16.4715 2.13545 16.452C2.13001 16.4326 2.12034 16.4146 2.10718 16.3993C2.08416 16.3514 2.04576 16.3125 1.99806 16.289C1.95036 16.2654 1.89612 16.2586 1.84406 16.2695Z" fill="black"/>
<path d="M11.1076 16.2768C11.0505 16.3039 11.0026 16.3474 10.9703 16.4017C10.957 16.4169 10.9474 16.4349 10.9419 16.4543C10.9365 16.4738 10.9354 16.4942 10.9389 16.5141C10.9389 16.6018 11.6478 22.3346 11.6647 22.3863C11.6841 22.4317 11.7151 22.4712 11.7546 22.5008C11.7941 22.5304 11.8406 22.5491 11.8895 22.555C11.9408 22.5631 11.9933 22.5531 12.0381 22.5269C12.0828 22.5006 12.1172 22.4598 12.1352 22.4111C12.1498 22.379 12.1597 22.3448 12.1645 22.3099C12.1684 22.27 12.0981 21.6786 11.8131 19.3712C11.6129 17.7515 11.451 16.4646 11.4437 16.4421C11.4165 16.378 11.3664 16.3264 11.3032 16.2971C11.2422 16.2681 11.1732 16.2609 11.1076 16.2768Z" fill="black"/>
<path d="M3.96022 17.2394C3.95684 17.2428 3.95459 17.5418 3.95459 17.9045V18.5634H4.1311H4.30707V17.2428H4.13845C4.04287 17.2354 3.96359 17.2371 3.96022 17.2394Z" fill="black"/>
<path d="M8.77152 17.2443C8.77152 17.25 8.76815 17.5479 8.77152 17.9072V18.5593H8.94803H9.124V17.8976V17.2348H8.95146C8.81485 17.2342 8.77377 17.2359 8.77152 17.2443Z" fill="black"/>
</g>
<defs>
<clipPath id="clip0_580_3419">
<rect width="13.0764" height="20" fill="white"/>
</clipPath>
</defs>
</svg>
