<svg width="20" height="19" viewBox="0 0 20 19" fill="none" xmlns="http://www.w3.org/2000/svg">
<g clip-path="url(#clip0_580_3548)">
<path d="M5.09242 0.97201C4.64942 1.23109 4.28308 1.44853 4.27857 1.45454C4.27643 1.45727 4.27492 1.46046 4.27414 1.46384C4.27336 1.46722 4.27335 1.47073 4.27408 1.47412C4.27658 1.48063 5.01423 2.73495 5.85562 4.16266L5.92429 4.27999L5.63413 4.40527C5.47477 4.47393 5.20216 4.59715 5.02877 4.67884C4.82438 4.77065 4.62575 4.87477 4.43394 4.99057C4.28009 5.07927 4.02151 5.23811 3.85864 5.34134C3.28355 5.70625 2.74501 6.1258 2.25051 6.59416C1.75804 7.05017 1.30956 7.55152 0.910997 8.09155C0.634897 8.45672 0.383762 8.84014 0.159306 9.23915C0.0999134 9.33567 0.0471867 9.43605 0.00146484 9.53975C0.00597499 9.55228 1.09091 10.1326 1.11045 10.1326C1.12097 10.1326 1.14954 10.0895 1.25127 9.91364C1.32193 9.79337 1.43619 9.6039 1.50635 9.49265L1.63262 9.29224L2.65944 11.0402C3.22421 12.0014 3.69126 12.7941 3.69627 12.8021C3.70128 12.8101 3.70829 12.8151 3.72383 12.8081C3.77094 12.788 4.26506 12.4909 4.26756 12.4814C4.27007 12.4719 3.81303 11.6967 3.16057 10.5907C2.55019 9.55687 2.05007 8.70944 2.05007 8.70743C2.05007 8.70543 2.13926 8.59722 2.25051 8.46592C2.41238 8.27199 2.45098 8.22827 2.45749 8.23579C2.46401 8.24331 3.21518 9.51878 4.13174 11.0763C5.04831 12.6338 5.80301 13.9136 5.80802 13.9196C5.81053 13.9226 5.81367 13.925 5.81722 13.9267C5.82078 13.9283 5.82466 13.9292 5.82857 13.9291C5.84862 13.9256 6.3753 13.6124 6.37981 13.6019C6.38432 13.5913 5.80651 12.6122 4.65442 10.6603L2.92604 7.72977L2.95009 7.70567C3.03327 7.62499 3.36302 7.32175 3.36753 7.32175C3.37204 7.32175 4.31416 8.9204 5.46475 10.8743C6.78171 13.1098 7.56147 14.4278 7.56949 14.4324C7.57751 14.4369 8.1112 14.1216 8.11772 14.1056C8.11943 14.0977 8.11819 14.0896 8.11422 14.0826C8.1062 14.0665 3.93181 6.96643 3.90475 6.92033L3.88721 6.89133L4.12323 6.72042C4.25302 6.62621 4.36077 6.55058 4.36177 6.55158C4.36277 6.55258 5.43167 8.36213 6.73711 10.5721C8.04255 12.7821 9.11546 14.5941 9.12198 14.5986C9.12849 14.6031 9.15906 14.5926 9.39459 14.4518C9.53741 14.3661 9.65969 14.292 9.66521 14.287C9.67103 14.2827 9.67511 14.2764 9.67672 14.2694C9.67672 14.2639 8.26505 11.8685 8.1528 11.6841C8.13476 11.6545 8.13526 11.6545 8.22396 11.7257C8.27407 11.7648 8.3743 11.84 8.45247 11.8911C8.62767 12.0135 8.81845 12.1119 9.01974 12.1838C9.07223 12.2007 9.12347 12.2213 9.17309 12.2454C9.1781 12.2519 9.4873 12.772 9.85863 13.4029C10.4054 14.3295 10.5377 14.55 10.5477 14.55C10.5577 14.55 10.6805 14.4784 10.8263 14.3908C10.9216 14.3443 11.0109 14.2866 11.0924 14.2189C11.0924 14.2113 10.8489 13.7918 10.5517 13.2872C10.2545 12.7826 10.014 12.3686 10.0185 12.3676L10.1799 12.3561C10.2835 12.3516 10.3867 12.3381 10.4881 12.316C10.5402 12.3047 10.5929 12.296 10.6459 12.29C10.6539 12.297 11.8356 14.2979 13.0012 16.2744C13.6667 17.4049 14.2139 18.3291 14.2179 18.3341C14.221 18.3355 14.2243 18.3362 14.2277 18.3362C14.2311 18.3362 14.2344 18.3355 14.2375 18.3341C14.245 18.3301 14.6093 18.1161 15.0488 17.8575C15.3231 17.7108 15.5892 17.5493 15.8461 17.3739C15.8461 17.3664 15.4953 16.7675 15.0689 16.0424C14.6424 15.3173 14.2901 14.7205 14.2886 14.7159C14.3859 14.6581 14.4886 14.6098 14.5953 14.5721C14.8132 14.4809 15.0263 14.3788 15.2337 14.266C15.6614 14.0443 16.0744 13.7952 16.47 13.5203C16.668 13.3874 16.8592 13.2445 17.0428 13.0923C17.5997 12.6447 18.1165 12.1493 18.5873 11.6119C18.7877 11.3824 18.8469 11.3113 19.0383 11.0608C19.2297 10.8102 19.2889 10.7249 19.4587 10.4679C19.6286 10.2108 19.6848 10.117 19.8326 9.85895C19.9283 9.69007 20.0065 9.54926 20.0065 9.54526C20.0065 9.54125 19.9298 9.40243 19.8351 9.23756C19.7098 9.01856 19.6141 8.86124 19.4783 8.65177C19.3563 8.45838 19.2245 8.27142 19.0834 8.09155C18.8079 7.72794 18.513 7.37948 18.1999 7.04769C17.8797 6.71643 17.5414 6.40306 17.1866 6.10906C17.0156 5.96024 16.8355 5.82219 16.6474 5.69565C16.4971 5.58991 16.239 5.41647 16.0766 5.31173C15.8855 5.18465 15.688 5.06758 15.4848 4.96097C15.2929 4.85673 15.0774 4.74548 14.8734 4.64776C14.5933 4.51196 14.5226 4.48095 14.2285 4.36319C13.8064 4.19431 13.3744 4.05096 12.9351 3.93412C12.7138 3.86888 12.4889 3.81651 12.2615 3.77727C11.8145 3.69258 11.3846 3.63149 10.921 3.58739L10.5873 3.55583L10.2285 3.54983C9.88269 3.54332 9.85713 3.54433 9.52338 3.55986C9.20917 3.5744 9.14553 3.57939 8.83683 3.61296C8.58878 3.64002 8.40637 3.66306 8.16482 3.70215C7.95986 3.73422 7.83107 3.7523 7.82807 3.74779C7.82506 3.74328 7.3971 3.01959 6.87593 2.13711C6.35475 1.25462 5.92679 0.528503 5.92128 0.523491C5.91716 0.520166 5.91237 0.517814 5.90724 0.516518C5.90724 0.516518 5.53541 0.712426 5.09242 0.97201ZM10.7867 4.84217L11.0969 4.86774L11.3139 4.93038C11.6045 5.01269 11.8867 5.12213 12.1568 5.25716C12.293 5.3232 12.4246 5.39836 12.5507 5.48216C12.6825 5.56585 12.8013 5.64954 12.9175 5.73774C13.274 6.01075 13.5886 6.33457 13.8511 6.69888C14.1191 7.05796 14.333 7.45435 14.4861 7.87548C14.5412 8.01653 14.5877 8.16082 14.6254 8.30749C14.6651 8.44918 14.6966 8.59314 14.7196 8.73851C14.7463 8.88109 14.7642 9.02511 14.7732 9.1699C14.7862 9.31635 14.7902 9.46353 14.7852 9.61047C14.7856 9.76455 14.7748 9.91843 14.7531 10.071C14.7381 10.2228 14.7129 10.3735 14.6775 10.5219C14.6424 10.6828 14.6128 10.7976 14.5647 10.9554C14.5263 11.0978 14.476 11.2369 14.4144 11.3709C14.3643 11.4816 14.2801 11.6641 14.2235 11.7768C14.1599 11.9151 14.0825 12.0466 13.9924 12.1692C13.9193 12.2754 13.804 12.4322 13.7263 12.5315C13.6385 12.6471 13.542 12.7559 13.4377 12.8568C13.3545 12.9395 13.2873 13.0071 13.2843 13.0046C13.2813 13.0021 12.2545 11.2566 12.2525 11.2506C12.2785 11.2028 12.308 11.1569 12.3407 11.1134C12.4049 11.023 12.4611 10.9273 12.5086 10.8272C12.5617 10.721 12.6048 10.6217 12.6439 10.52C12.6849 10.418 12.7165 10.3126 12.7381 10.2048C12.7652 10.084 12.7817 9.99278 12.7977 9.868C12.8148 9.75828 12.8222 9.64734 12.8198 9.53632C12.8207 9.42601 12.8152 9.31566 12.8033 9.20599C12.7964 9.09165 12.7764 8.97855 12.7436 8.86881C12.6355 8.43002 12.4265 8.02251 12.1333 7.67863C11.9893 7.51358 11.8267 7.36569 11.6487 7.23806C11.5577 7.1699 11.4611 7.10962 11.36 7.05772C11.0673 6.89579 10.7478 6.7877 10.4169 6.73852C10.3077 6.71573 10.1961 6.70623 10.0846 6.71039C9.99594 6.71039 9.85814 6.7144 9.77695 6.72042C9.69577 6.72643 9.6216 6.72951 9.61058 6.728C9.39933 6.44251 9.21273 6.13951 9.05282 5.8224C8.75716 5.32578 8.51712 4.92035 8.51962 4.92035C8.52213 4.92035 8.66445 4.90281 8.83534 4.88377C9.25248 4.83544 9.67226 4.81374 10.0922 4.81868H10.478L10.7867 4.84217ZM7.24576 6.51953C7.60407 7.1279 7.89722 7.62902 7.89722 7.63153C7.89722 7.63403 7.85113 7.69461 7.797 7.76427C7.73051 7.84659 7.66892 7.93284 7.61258 8.02242C7.58756 8.06661 7.55872 8.10854 7.52639 8.1477C7.51186 8.13317 6.04306 5.6315 6.04707 5.62799C6.05107 5.62449 6.58577 5.40897 6.59228 5.40997C6.5988 5.41098 6.88745 5.91066 7.24576 6.51953ZM6.3312 7.42806C6.82531 8.26194 7.22921 8.95096 7.22921 8.95897C7.22921 8.96699 7.2202 9.03716 7.21017 9.11533C7.20015 9.19351 7.18562 9.33137 7.18011 9.42107L7.16959 9.5849L7.18662 9.75471C7.19614 9.85143 7.21168 9.96474 7.2232 10.0184C7.23033 10.05 7.23586 10.0819 7.23975 10.114C7.23975 10.114 6.71606 9.2336 6.07863 8.15468C5.4412 7.07575 4.92103 6.19071 4.92604 6.1887C4.93105 6.1867 5.42717 5.91159 5.43168 5.91159C5.43619 5.91159 5.83709 6.59369 6.3312 7.42806ZM15.7729 6.6382C15.9455 6.75315 16.1114 6.87802 16.2696 7.01209C16.5917 7.27129 16.8992 7.54819 17.1906 7.84147C17.6206 8.28177 18.0096 8.76033 18.3528 9.2712C18.4455 9.41102 18.5216 9.5273 18.5216 9.53131C18.5216 9.53532 18.4455 9.65098 18.3528 9.79129C18.0103 10.3006 17.6225 10.778 17.1941 11.2176C16.9009 11.5123 16.5918 11.7906 16.2681 12.0514C16.1111 12.1842 15.9468 12.308 15.776 12.4222C15.5104 12.6041 15.0623 12.8923 15.0684 12.8762C15.0684 12.8712 15.121 12.7845 15.1811 12.6828C15.2412 12.5811 15.3425 12.3987 15.4056 12.2754C15.4865 12.1225 15.5579 11.9649 15.6196 11.8034C15.6893 11.629 15.7424 11.4822 15.7975 11.3123C15.8543 11.1512 15.8987 10.986 15.9303 10.8181C15.9688 10.6491 15.9973 10.4779 16.0155 10.3055C16.0388 10.1337 16.0528 9.96073 16.0576 9.78738C16.0676 9.61664 16.0676 9.44549 16.0576 9.27475C16.0528 9.10174 16.0387 8.92899 16.0155 8.75747C15.9973 8.58505 15.9688 8.41389 15.9303 8.24484C15.8987 8.077 15.8543 7.9119 15.7975 7.75081C15.7424 7.58143 15.6888 7.4336 15.6196 7.26021C15.5575 7.09641 15.485 6.93667 15.4026 6.78208C15.338 6.6563 15.2372 6.47241 15.1781 6.37369C15.119 6.27497 15.0699 6.19029 15.0679 6.18528C15.0618 6.16824 15.5099 6.4578 15.7729 6.6382Z" fill="black"/>
</g>
<defs>
<clipPath id="clip0_580_3548">
<rect width="20" height="17.8271" fill="white" transform="translate(0 0.5)"/>
</clipPath>
</defs>
</svg>
