<?xml version="1.0" encoding="utf-8"?>
<!-- Generator: Adobe Illustrator 27.5.0, SVG Export Plug-In . SVG Version: 6.00 Build 0)  -->
<svg version="1.1" xmlns="http://www.w3.org/2000/svg" xmlns:xlink="http://www.w3.org/1999/xlink" x="0px" y="0px"
	 viewBox="0 0 1122 1122" style="enable-background:new 0 0 1122 1122;" xml:space="preserve">
<g id="BG">
	<rect style="fill:#FFDA5E;" width="1122" height="1122"/>
</g>
<g id="Shadow">
	<g>
		<path style="fill:#FFFFFF;" d="M446.837,439.044c-15.736-11.428-25.131-29.495-25.131-48.33v-50.805
			c0-26.639-19.128-48.883-44.367-53.751c-1.064-15.503-9.517-27.213-20.119-27.213h-18.679V0h-8.641v258.946h-18.646
			c-10.601,0-19.054,11.71-20.118,27.213c-22.971,4.43-40.863,23.256-43.896,46.688c-0.011,0.055-0.012,0.112-0.021,0.168
			c-0.285,2.26-0.449,4.558-0.449,6.895v50.805c0,18.835-9.395,36.902-25.13,48.33c-52.248,37.943-81.794,99.127-79.034,163.667
			c2.008,46.951,21.493,91.569,54.863,125.636c33.381,34.077,77.587,54.456,124.474,57.382c4.09,0.255,8.227,0.384,12.296,0.384
			c4.069,0,8.206-0.129,12.296-0.384c46.886-2.926,91.091-23.305,124.473-57.382c33.371-34.066,52.855-78.685,54.863-125.636
			C528.63,538.172,499.085,476.988,446.837,439.044z M255.41,339.909c0-0.62,0.022-1.235,0.047-1.85h157.562
			c0.024,0.615,0.047,1.23,0.047,1.85v34.019H255.41V339.909z M311.255,267.587h45.965c4.853,0,10.188,7.05,11.353,17.613
			c-0.539-0.016-1.076-0.041-1.619-0.041h-65.433c-0.543,0-1.08,0.025-1.619,0.041C301.067,274.636,306.402,267.587,311.255,267.587
			z M301.521,293.799h65.433c21.816,0,40.129,15.234,44.893,35.62H256.628C261.392,309.033,279.705,293.799,301.521,293.799z
			 M517.238,602.342c-1.917,44.816-20.527,87.418-52.403,119.959c-31.884,32.549-74.088,52.012-118.838,54.805
			c-7.824,0.486-15.695,0.486-23.518,0c-44.75-2.793-86.955-22.256-118.838-54.805c-31.876-32.541-50.486-75.143-52.403-119.959
			c-2.636-61.638,25.58-120.07,75.478-156.306c17.967-13.048,28.694-33.729,28.694-55.321v-8.145h157.656v8.145
			c0,21.592,10.727,42.273,28.694,55.321C491.658,482.272,519.873,540.704,517.238,602.342z"/>
		<path style="fill:#FFFFFF;" d="M473.042,623.915c0.251,0.044,0.502,0.065,0.749,0.065c2.06,0,3.884-1.479,4.251-3.577
			c1.45-8.299,2.186-16.811,2.186-25.302c0-3.56-0.13-7.154-0.385-10.685c-0.173-2.379-2.24-4.172-4.621-3.996
			c-2.38,0.172-4.169,2.241-3.997,4.621c0.241,3.323,0.363,6.708,0.363,10.06c0,7.993-0.692,16.006-2.057,23.814
			C469.119,621.265,470.691,623.504,473.042,623.915z"/>
		<path style="fill:#FFFFFF;" d="M461.929,645.798c-12.492,31.435-36.063,57.09-66.37,72.238c-2.134,1.067-2.999,3.661-1.933,5.796
			c0.757,1.514,2.283,2.39,3.868,2.39c0.649,0,1.308-0.148,1.928-0.457c32.208-16.099,57.259-43.365,70.536-76.775
			c0.881-2.218-0.202-4.729-2.419-5.61C465.321,642.498,462.809,643.582,461.929,645.798z"/>
	</g>
	<g>
		<g>
			<g>
				<path style="fill:#FFFFFF;" d="M488.209,416.27c-1.08,0-2.16-0.412-2.984-1.236c-1.648-1.648-1.648-4.321,0-5.969l23.977-23.977
					c1.649-1.648,4.32-1.648,5.969,0c1.648,1.648,1.648,4.321,0,5.969l-23.977,23.977
					C490.369,415.857,489.289,416.27,488.209,416.27z"/>
			</g>
			<g>
				<path style="fill:#FFFFFF;" d="M512.186,416.27c-1.08,0-2.16-0.412-2.984-1.236l-23.977-23.977
					c-1.648-1.648-1.648-4.321,0-5.969c1.648-1.648,4.32-1.648,5.969,0l23.977,23.977c1.648,1.648,1.648,4.321,0,5.969
					C514.346,415.857,513.266,416.27,512.186,416.27z"/>
			</g>
		</g>
		<g>
			<path style="fill:#FFFFFF;" d="M578.893,452.398c-9.996,0-18.128-8.132-18.128-18.128s8.132-18.128,18.128-18.128
				s18.128,8.132,18.128,18.128S588.889,452.398,578.893,452.398z M578.893,424.584c-5.341,0-9.687,4.345-9.687,9.686
				c0,5.341,4.346,9.686,9.687,9.686c5.341,0,9.687-4.345,9.687-9.686C588.58,428.929,584.234,424.584,578.893,424.584z"/>
		</g>
		<g>
			<path style="fill:#FFFFFF;" d="M155.184,416.654l-22.71-22.71c-1.066-1.066-1.483-2.62-1.092-4.077
				c0.39-1.456,1.528-2.594,2.984-2.984l31.023-8.312c1.456-0.39,3.011,0.026,4.077,1.092l0,0c1.066,1.066,1.483,2.62,1.092,4.077
				l-8.313,31.022c-0.391,1.457-1.528,2.594-2.984,2.984C157.804,418.137,156.25,417.72,155.184,416.654z M143.612,393.145
				l12.371,12.371l4.529-16.899L143.612,393.145z"/>
		</g>
		<g>
			<path style="fill:#FFFFFF;" d="M546.385,774.621l22.71,22.71c1.066,1.066,1.483,2.62,1.092,4.077
				c-0.39,1.456-1.528,2.594-2.984,2.984l-31.023,8.312c-1.456,0.39-3.011-0.026-4.077-1.092l0,0
				c-1.066-1.066-1.483-2.62-1.092-4.077l8.313-31.022c0.391-1.457,1.528-2.594,2.984-2.984
				C543.765,773.138,545.319,773.555,546.385,774.621z M557.957,798.13l-12.371-12.371l-4.529,16.899L557.957,798.13z"/>
		</g>
		<g>
			<path style="fill:#FFFFFF;" d="M565.052,501.74c0,2.368-1.919,4.287-4.287,4.287s-4.287-1.919-4.287-4.287
				c0-2.368,1.919-4.287,4.287-4.287S565.052,499.372,565.052,501.74z"/>
		</g>
		<g>
			<g>
				<path style="fill:#FFFFFF;" d="M192.389,794.126c1.08,0,2.16,0.412,2.984,1.236c1.648,1.648,1.648,4.321,0,5.969l-23.977,23.977
					c-1.648,1.648-4.32,1.648-5.969,0c-1.648-1.648-1.648-4.321,0-5.969l23.977-23.977
					C190.229,794.539,191.309,794.126,192.389,794.126z"/>
			</g>
			<g>
				<path style="fill:#FFFFFF;" d="M168.412,794.126c1.08,0,2.16,0.412,2.984,1.236l23.977,23.977c1.648,1.648,1.648,4.321,0,5.969
					c-1.648,1.648-4.32,1.648-5.969,0l-23.977-23.977c-1.648-1.648-1.648-4.321,0-5.969
					C166.252,794.539,167.332,794.126,168.412,794.126z"/>
			</g>
		</g>
		<g>
			<path style="fill:#FFFFFF;" d="M117.2,744.51c0-2.368,1.92-4.287,4.287-4.287s4.287,1.919,4.287,4.287s-1.919,4.287-4.287,4.287
				S117.2,746.878,117.2,744.51z"/>
		</g>
	</g>
	<g>
		<path style="fill:#FFFFFF;" d="M643.896,616.804v-71.584h18.901v71.584H643.896z"/>
		<path style="fill:#FFFFFF;" d="M695.772,545.219h29.257c7.908,0,14.729,1.425,20.459,4.273c5.732,2.85,10.12,6.954,13.171,12.315
			c3.049,5.363,4.574,11.73,4.574,19.102c0,7.44-1.508,13.859-4.523,19.254c-3.017,5.396-7.39,9.518-13.121,12.366
			c-5.73,2.85-12.584,4.273-20.56,4.273h-29.257V545.219z M723.722,601.722c6.971,0,12.182-1.725,15.634-5.178
			c3.452-3.451,5.178-8.662,5.178-15.634c0-13.739-6.937-20.61-20.812-20.61h-9.048v41.422H723.722z"/>
		<path style="fill:#FFFFFF;" d="M794.4,616.804v-71.584h51.073v14.478h-32.675v13.473h30.563v14.478h-30.563v14.679h32.675v14.478
			H794.4z"/>
		<path style="fill:#FFFFFF;" d="M928.922,616.804l-6.334-14.779h-31.771l-6.334,14.779h-18.901l33.479-71.584h14.88l33.58,71.584
			H928.922z M896.95,587.848h19.505l-9.753-22.621L896.95,587.848z"/>
		<path style="fill:#FFFFFF;" d="M980.7,615.597c-5.228-1.408-9.485-3.318-12.768-5.731l5.932-13.371
			c3.484,2.212,7.188,3.905,11.11,5.077c3.921,1.173,7.857,1.759,11.813,1.759c4.021,0,7.104-0.553,9.25-1.658
			c2.145-1.106,3.217-2.664,3.217-4.675c0-1.81-0.972-3.301-2.915-4.475c-1.945-1.172-5.598-2.328-10.959-3.469
			c-6.771-1.34-12.031-2.999-15.784-4.977c-3.755-1.976-6.385-4.306-7.893-6.987c-1.508-2.68-2.263-5.932-2.263-9.752
			c0-4.357,1.24-8.295,3.721-11.813c2.479-3.519,5.965-6.267,10.456-8.244c4.489-1.977,9.617-2.966,15.382-2.966
			c5.161,0,10.17,0.721,15.031,2.161c4.858,1.442,8.661,3.335,11.411,5.681l-5.832,13.372c-3.151-2.212-6.469-3.904-9.953-5.077
			c-3.485-1.172-6.972-1.76-10.456-1.76c-3.418,0-6.167,0.653-8.244,1.961c-2.078,1.307-3.116,3.066-3.116,5.277
			c0,1.207,0.367,2.212,1.106,3.017c0.737,0.805,2.111,1.593,4.122,2.362c2.011,0.771,5.027,1.594,9.049,2.464
			c6.5,1.407,11.612,3.101,15.332,5.077c3.72,1.977,6.35,4.29,7.893,6.937c1.541,2.649,2.312,5.816,2.312,9.501
			c0,6.972-2.714,12.451-8.143,16.438c-5.429,3.988-13.069,5.982-22.923,5.982C991.223,617.709,985.929,617.005,980.7,615.597z"/>
	</g>
</g>
<g id="Object">
	<g>
		<g>
			<g>
				<path style="fill:#272525;" d="M326.233,783.11c-4.069,0-8.206-0.129-12.296-0.384c-46.887-2.926-91.092-23.305-124.474-57.382
					c-33.371-34.066-52.855-78.685-54.863-125.636c-2.76-64.54,26.786-125.724,79.034-163.666
					c15.736-11.428,25.13-29.495,25.13-48.33v-50.805c0-30.19,24.561-54.751,54.752-54.751h65.433
					c30.19,0,54.752,24.561,54.752,54.751v50.805c0,18.835,9.395,36.902,25.131,48.33c52.248,37.943,81.793,99.127,79.033,163.666
					c-2.008,46.951-21.493,91.569-54.863,125.636c-33.382,34.077-77.587,54.456-124.473,57.382
					C334.439,782.981,330.302,783.11,326.233,783.11z M143.233,599.34c1.917,44.817,20.527,87.418,52.403,119.959
					c31.884,32.549,74.088,52.012,118.838,54.805c7.822,0.486,15.693,0.486,23.518,0c44.749-2.793,86.954-22.256,118.838-54.805
					c31.875-32.541,50.486-75.143,52.403-119.959c2.636-61.637-25.58-120.069-75.478-156.306
					c-17.967-13.048-28.694-33.729-28.694-55.321v-50.805c0-25.425-20.685-46.11-46.111-46.11h-65.433
					c-25.426,0-46.111,20.685-46.111,46.11v50.805c0,21.592-10.727,42.273-28.694,55.321
					C168.813,479.27,140.598,537.702,143.233,599.34L143.233,599.34z"/>
			</g>
			<g>
				<path style="fill:#272525;" d="M408.973,335.058H243.461c-2.386,0-4.32-1.935-4.32-4.32c0-2.386,1.935-4.32,4.32-4.32h165.511
					c2.386,0,4.32,1.935,4.32,4.32C413.293,333.123,411.358,335.058,408.973,335.058z"/>
			</g>
			<g>
				<path style="fill:#272525;" d="M408.989,379.567H243.477c-2.386,0-4.32-1.935-4.32-4.32c0-2.386,1.935-4.32,4.32-4.32h165.511
					c2.386,0,4.32,1.935,4.32,4.32C413.309,377.633,411.374,379.567,408.989,379.567z"/>
			</g>
			<g>
				<path style="fill:#272525;" d="M365.129,290.797c-2.386,0-4.32-1.935-4.32-4.32c0-12.901-6.11-21.892-11.593-21.892H303.25
					c-5.483,0-11.593,8.991-11.593,21.892c0,2.386-1.935,4.32-4.32,4.32c-2.386,0-4.32-1.935-4.32-4.32
					c0-17.121,8.888-30.533,20.234-30.533h45.965c11.346,0,20.234,13.412,20.234,30.533
					C369.45,288.863,367.515,290.797,365.129,290.797z"/>
			</g>
			<g>
				<path style="fill:#272525;" d="M465.785,620.979c-0.246,0-0.497-0.022-0.749-0.065c-2.351-0.411-3.923-2.649-3.512-5
					c1.365-7.808,2.057-15.82,2.057-23.813c0-3.352-0.122-6.736-0.363-10.06c-0.172-2.38,1.617-4.449,3.997-4.621
					c2.381-0.176,4.448,1.617,4.621,3.996c0.255,3.53,0.385,7.125,0.385,10.685c0,8.49-0.735,17.003-2.186,25.302
					C469.669,619.5,467.846,620.979,465.785,620.979z"/>
			</g>
			<g>
				<path style="fill:#272525;" d="M389.489,723.22c-1.585,0-3.111-0.876-3.868-2.39c-1.067-2.135-0.202-4.729,1.933-5.796
					c30.307-15.148,53.878-40.803,66.37-72.238c0.88-2.216,3.393-3.3,5.61-2.419c2.217,0.881,3.301,3.392,2.419,5.61
					c-13.277,33.41-38.328,60.677-70.536,76.775C390.797,723.072,390.138,723.22,389.489,723.22z"/>
			</g>
		</g>
		<path style="fill:#272525;" d="M321.896,260.265c0,2.386,1.935,4.32,4.32,4.32c2.386,0,4.32-1.935,4.32-4.32V0h-8.641V260.265z"/>
	</g>
	<g>
		<g>
			<g>
				<path style="fill:#272525;" d="M482.205,409.265c-1.08,0-2.16-0.412-2.984-1.236c-1.648-1.648-1.648-4.321,0-5.969
					l23.977-23.977c1.648-1.648,4.32-1.648,5.969,0c1.648,1.648,1.648,4.321,0,5.969l-23.977,23.977
					C484.365,408.853,483.285,409.265,482.205,409.265z"/>
			</g>
			<g>
				<path style="fill:#272525;" d="M506.182,409.265c-1.08,0-2.16-0.412-2.984-1.236l-23.977-23.977
					c-1.648-1.648-1.648-4.321,0-5.969c1.648-1.648,4.32-1.648,5.969,0l23.977,23.977c1.648,1.648,1.648,4.321,0,5.969
					C508.342,408.853,507.262,409.265,506.182,409.265z"/>
			</g>
		</g>
		<g>
			<path style="fill:#272525;" d="M572.89,445.394c-9.996,0-18.128-8.132-18.128-18.128c0-9.996,8.132-18.127,18.128-18.127
				s18.128,8.132,18.128,18.127C591.018,437.261,582.886,445.394,572.89,445.394z M572.89,417.58c-5.341,0-9.687,4.345-9.687,9.686
				c0,5.341,4.346,9.687,9.687,9.687c5.341,0,9.687-4.345,9.687-9.687C582.576,421.925,578.23,417.58,572.89,417.58z"/>
		</g>
		<g>
			<path style="fill:#272525;" d="M149.18,409.65l-22.71-22.71c-1.066-1.066-1.483-2.62-1.093-4.077
				c0.39-1.456,1.528-2.594,2.984-2.984l31.023-8.312c1.456-0.39,3.011,0.026,4.077,1.092l0,0c1.066,1.066,1.483,2.62,1.092,4.077
				l-8.313,31.022c-0.391,1.457-1.528,2.594-2.984,2.985C151.8,411.133,150.246,410.716,149.18,409.65z M137.608,386.141
				l12.371,12.371l4.529-16.899L137.608,386.141z"/>
		</g>
		<g>
			<path style="fill:#272525;" d="M540.382,767.617l22.71,22.71c1.066,1.066,1.483,2.62,1.092,4.077
				c-0.39,1.456-1.528,2.594-2.984,2.984l-31.023,8.312c-1.456,0.39-3.011-0.026-4.077-1.092l0,0
				c-1.066-1.066-1.483-2.62-1.092-4.077l8.313-31.022c0.391-1.457,1.528-2.594,2.984-2.985
				C537.762,766.134,539.316,766.55,540.382,767.617z M551.953,791.126l-12.371-12.371l-4.529,16.899L551.953,791.126z"/>
		</g>
		<g>
			<path style="fill:#272525;" d="M559.049,494.735c0,2.368-1.919,4.287-4.287,4.287s-4.287-1.919-4.287-4.287
				c0-2.368,1.919-4.287,4.287-4.287S559.049,492.367,559.049,494.735z"/>
		</g>
		<g>
			<g>
				<path style="fill:#272525;" d="M186.386,787.122c1.08,0,2.16,0.412,2.984,1.236c1.648,1.648,1.648,4.321,0,5.969l-23.977,23.977
					c-1.648,1.648-4.32,1.648-5.969,0c-1.648-1.648-1.648-4.321,0-5.969l23.977-23.977
					C184.226,787.534,185.306,787.122,186.386,787.122z"/>
			</g>
			<g>
				<path style="fill:#272525;" d="M162.409,787.122c1.08,0,2.16,0.412,2.984,1.236l23.977,23.977c1.648,1.648,1.648,4.321,0,5.969
					c-1.648,1.648-4.32,1.648-5.969,0l-23.977-23.977c-1.648-1.648-1.648-4.321,0-5.969
					C160.249,787.534,161.329,787.122,162.409,787.122z"/>
			</g>
		</g>
		<g>
			<path style="fill:#272525;" d="M111.197,737.506c0-2.368,1.92-4.287,4.287-4.287c2.368,0,4.287,1.919,4.287,4.287
				s-1.919,4.287-4.287,4.287C113.116,741.793,111.197,739.874,111.197,737.506z"/>
		</g>
	</g>
	<g>
		<path style="fill:#272525;" d="M633.89,606.797v-71.584h18.901v71.584H633.89z"/>
		<path style="fill:#272525;" d="M685.766,535.214h29.257c7.908,0,14.729,1.425,20.459,4.273c5.732,2.85,10.12,6.954,13.171,12.315
			c3.049,5.363,4.574,11.73,4.574,19.102c0,7.44-1.508,13.859-4.523,19.254c-3.017,5.396-7.39,9.518-13.121,12.366
			c-5.731,2.85-12.584,4.272-20.56,4.272h-29.257V535.214z M713.716,591.716c6.971,0,12.182-1.725,15.634-5.178
			c3.452-3.451,5.178-8.662,5.178-15.634c0-13.739-6.936-20.61-20.811-20.61h-9.048v41.422H713.716z"/>
		<path style="fill:#272525;" d="M784.394,606.797v-71.584h51.073v14.478h-32.675v13.473h30.563v14.478h-30.563v14.679h32.675
			v14.477H784.394z"/>
		<path style="fill:#272525;" d="M918.916,606.797l-6.334-14.779h-31.77l-6.334,14.779h-18.901l33.48-71.584h14.88l33.58,71.584
			H918.916z M886.944,577.842h19.505l-9.753-22.621L886.944,577.842z"/>
		<path style="fill:#272525;" d="M970.694,605.591c-5.227-1.408-9.485-3.318-12.768-5.731l5.932-13.371
			c3.484,2.212,7.188,3.905,11.11,5.077c3.921,1.173,7.857,1.759,11.813,1.759c4.022,0,7.105-0.553,9.25-1.658
			c2.145-1.106,3.217-2.664,3.217-4.675c0-1.811-0.972-3.301-2.915-4.475c-1.945-1.172-5.598-2.328-10.959-3.469
			c-6.771-1.34-12.031-2.999-15.784-4.977c-3.755-1.976-6.385-4.306-7.893-6.987c-1.508-2.68-2.263-5.932-2.263-9.752
			c0-4.357,1.24-8.295,3.721-11.813c2.479-3.519,5.965-6.267,10.456-8.244c4.489-1.977,9.617-2.966,15.382-2.966
			c5.161,0,10.17,0.721,15.031,2.161c4.858,1.442,8.661,3.335,11.411,5.681l-5.832,13.372c-3.151-2.212-6.469-3.904-9.953-5.077
			c-3.485-1.172-6.972-1.76-10.456-1.76c-3.418,0-6.167,0.653-8.244,1.961c-2.078,1.307-3.116,3.066-3.116,5.277
			c0,1.207,0.367,2.212,1.105,3.017c0.737,0.805,2.111,1.593,4.122,2.362c2.011,0.771,5.027,1.594,9.049,2.464
			c6.5,1.407,11.612,3.101,15.332,5.077c3.72,1.977,6.35,4.29,7.893,6.936c1.541,2.649,2.311,5.816,2.311,9.501
			c0,6.972-2.714,12.451-8.143,16.438c-5.429,3.988-13.069,5.982-22.923,5.982C981.217,607.703,975.923,606.999,970.694,605.591z"/>
	</g>
</g>
</svg>
