<svg width="100%" height="100%" viewBox="0 0 37 36" version="1.1" xmlns="http://www.w3.org/2000/svg" xmlns:xlink="http://www.w3.org/1999/xlink" xml:space="preserve"><path d="M27.4,31.09l-2.003,-3.274l5.234,-3.054l-0.025,-6.137l3.866,-0.014c-0.199,5.215 -2.966,9.786 -7.072,12.479M18.909,33.647l-8.887,0.012l0.001,0l-7.541,0l0.715,-14.872l3.874,-0.017l0.025,6.087l5.14,2.941l0.41,0.235l0.245,0.14l1.049,0.602l4.95,2.83l5.461,-3.183l2.013,3.294c-2.215,1.219 -4.754,1.919 -7.455,1.931M10.494,4.788l2.015,3.294l-5.469,3.188l0.025,6.292l-3.852,0.016c0.146,-5.376 3.015,-10.085 7.281,-12.79M18.784,2.361c2.664,-0.009 5.175,0.651 7.379,1.823l-1.936,3.358l-5.448,-3.117l-5.228,3.047l-2.013,-3.294c2.166,-1.148 4.629,-1.806 7.246,-1.817M27.43,17.981l-4.034,7.053l-8.124,0.033l-4.092,-7.021l4.036,-7.054l8.124,-0.033l4.09,7.022ZM34.472,17.402l-3.871,0.014l-0.022,-6.242l-5.301,-3.031l1.931,-3.348c4.208,2.674 7.06,7.302 7.263,12.607M18.773,0.012c-9.875,0.04 -17.88,8.068 -17.917,17.924l-0.004,0l-0.819,17.985l20.405,0c9.208,-0.813 16.437,-8.582 16.398,-17.991c-0.038,-9.92 -8.143,-17.959 -18.063,-17.918"></path>
</svg>