<?xml version="1.0" encoding="utf-8"?>
<!-- Generator: Adobe Illustrator 27.6.0, SVG Export Plug-In . SVG Version: 6.00 Build 0)  -->
<svg version="1.1" id="Layer_1" xmlns="http://www.w3.org/2000/svg" xmlns:xlink="http://www.w3.org/1999/xlink" x="0px" y="0px"
	 viewBox="0 0 306 280" style="enable-background:new 0 0 306 358;" xml:space="preserve">
<style type="text/css">
	.st0{fill:none;}
</style>
<g>
	<path d="M22.7,115.7c4.4,0,8-14.5,8-32.4c0-17.9-3.6-32.4-8-32.4c-4.4,0-8,14.5-8,32.4C14.7,101.2,18.3,115.7,22.7,115.7z"/>
	<path d="M257.6,18c-4.2,0-7.9,9.3-10.5,24.2C242.9,16.7,236.2,0,228.6,0c-9,0-16.9,23.5-20.6,57.7c-3.6-24.9-9.1-40.8-15.3-40.8
		c-8.6,0-16,31.2-18.7,74.7c-5.1-22.3-12.5-36.3-20.7-36.3c-8.2,0-15.6,14-20.7,36.3C129.8,48.2,122.5,17,113.8,17
		c-6.2,0-11.7,15.9-15.3,40.8C94.8,23.5,87,0,77.9,0c-7.6,0-14.4,16.7-18.5,42.3C56.9,27.4,53.1,18,48.9,18
		c-7.8,0-14.1,32.4-14.1,72.4c0,40,6.3,72.4,14.1,72.4c3.2,0,6.2-5.5,8.5-14.7c3.7,33.8,11.5,57,20.5,57c7,0,13.2-13.9,17.4-35.9
		c2.9,41.8,10.1,71.5,18.5,71.5c5.3,0,10.1-11.8,13.7-30.9c4.3,39.5,14.2,67.2,25.8,67.2s21.5-27.7,25.8-67.2
		c3.6,19.1,8.4,30.9,13.7,30.9c8.4,0,15.6-29.7,18.5-71.5c4.2,22,10.4,35.9,17.4,35.9c9,0,16.8-23.2,20.5-57
		c2.4,9.2,5.3,14.7,8.5,14.7c7.8,0,14.1-32.4,14.1-72.4C271.7,50.5,265.4,18,257.6,18L257.6,18z"/>
	<path d="M283.8,115.7c4.4,0,8-14.5,8-32.4c0-17.9-3.6-32.4-8-32.4s-8,14.5-8,32.4C275.8,101.2,279.4,115.7,283.8,115.7z"/>
</g>
</svg>
