<svg xmlns="http://www.w3.org/2000/svg" width="200" height="200" viewBox="0 0 200 200">
  <defs>
    <clipPath id="a" clipPathUnits="userSpaceOnUse">
      <path d="M0 0h612v792H0Z"/>
    </clipPath>
  </defs>
  <g transform="translate(-5, 28.4) scale(19.9)">
    <path style="fill:#100f0d;fill-opacity:1;fill-rule:nonzero;stroke:none" d="m0 0-4.729-4.73L-9.459 0l4.73 4.728Z" transform="matrix(.35278 0 0 -.35278 6.93839742 1.93272959)"/>
    <path style="fill:#100f0d;fill-opacity:1;fill-rule:nonzero;stroke:none" d="m0 0-4.729-4.73L-9.459 0l4.73 4.73Z" transform="matrix(.35278 0 0 -.35278 6.93839742 5.26979959)"/>
    <path style="fill:#100f0d;fill-opacity:1;fill-rule:nonzero;stroke:none" d="m0 0-4.73-4.73L-9.459 0l4.729 4.729Z" transform="matrix(.35278 0 0 -.35278 3.60150942 1.93286959)"/>
    <path style="fill:#100f0d;fill-opacity:1;fill-rule:nonzero;stroke:none" d="m0 0-4.729-4.73L-9.459 0l4.73 4.729Z" transform="matrix(.35278 0 0 -.35278 10.27511042 1.93286959)"/>
  </g>
</svg>