<svg width="20" height="21" viewBox="0 0 20 21" fill="none" xmlns="http://www.w3.org/2000/svg">
<g clip-path="url(#clip0_582_1146)">
<path d="M9.5565 0.255568C9.50413 0.265995 9.45485 0.288309 9.41245 0.320765C9.37005 0.353221 9.33564 0.394958 9.31191 0.442787C9.29419 0.477862 9.28348 0.516029 9.28041 0.555202C9.27478 0.598492 9.27313 1.09383 9.27313 2.21712V3.81714L8.93918 3.48429C8.75478 3.30157 8.58501 3.13635 8.56083 3.11836C8.50161 3.07514 8.42861 3.05509 8.35563 3.06208C8.28082 3.05415 8.20573 3.07423 8.1448 3.11836C8.08393 3.1625 8.03865 3.22484 8.01551 3.29638C7.99237 3.36792 7.99256 3.44497 8.01605 3.5164C8.02583 3.54622 8.03882 3.5748 8.05483 3.60178C8.08294 3.64394 9.36811 4.93083 9.42377 4.97244C9.48473 5.01272 9.55625 5.0342 9.62932 5.0342C9.70238 5.0342 9.77383 5.01272 9.83479 4.97244C9.89101 4.93083 11.1756 3.64394 11.2032 3.60178C11.2193 3.57479 11.2325 3.54622 11.2425 3.5164C11.266 3.4452 11.2662 3.36841 11.2432 3.29707C11.2202 3.22572 11.1751 3.16348 11.1144 3.11945C11.0532 3.07486 10.9776 3.05475 10.9024 3.06318C10.8296 3.05633 10.7568 3.07638 10.6977 3.11945C10.6741 3.13744 10.5038 3.30267 10.3199 3.48538L9.98543 3.81823V2.21822C9.98543 1.0938 9.98546 0.59959 9.97816 0.5563C9.97019 0.480084 9.93573 0.409105 9.88084 0.355629C9.84 0.312369 9.78869 0.280379 9.73185 0.262842C9.675 0.245306 9.61461 0.242832 9.5565 0.255568Z" fill="black"/>
<path d="M0.250187 2.51467C0.178882 2.54377 0.116449 2.59102 0.0691437 2.65179C0.0259222 2.71314 0.00186566 2.78596 0 2.86097C0.00286784 2.92975 0.0235974 2.99659 0.0601533 3.05492C0.0730841 3.07347 0.600997 3.6065 1.23292 4.23561L2.38153 5.38583H1.90195C1.63827 5.38583 1.40047 5.38918 1.37292 5.39256C1.29827 5.40382 1.22955 5.43988 1.17778 5.49481C1.126 5.54975 1.09415 5.62044 1.08732 5.69562C1.07849 5.76683 1.08978 5.83914 1.11992 5.90425C1.15727 5.97163 1.21358 6.02656 1.28185 6.06224L1.33298 6.08804H3.33389L3.39404 6.06169C3.43293 6.04797 3.46695 6.02303 3.49187 5.99018C3.5147 5.96235 3.53484 5.93245 3.55203 5.90082C3.59925 5.80693 3.59701 5.85759 3.59701 4.83268C3.59701 3.80778 3.597 3.86673 3.54921 3.7644C3.51619 3.69961 3.46396 3.64659 3.39967 3.6126C3.33065 3.57635 3.25153 3.56409 3.17477 3.57773C3.10399 3.58673 3.03929 3.6223 2.99377 3.67725C2.94036 3.7295 2.90409 3.79676 2.88976 3.87009C2.8687 4.04469 2.86419 4.2209 2.87627 4.39634V4.86411L1.7406 3.72899C1.03391 3.02286 0.586391 2.58104 0.556032 2.56024C0.512542 2.52847 0.461991 2.50764 0.40872 2.49971C0.355449 2.49178 0.301046 2.49695 0.250187 2.51467Z" fill="black"/>
<path d="M18.8024 2.51377C18.7655 2.52545 18.7308 2.54312 18.6996 2.56607C18.6693 2.58743 18.2218 3.02995 17.5162 3.73496L16.3798 4.87008V4.40285C16.3798 3.87381 16.3799 3.87156 16.3237 3.76474C16.2934 3.70455 16.2455 3.655 16.1864 3.62254C16.1561 3.59887 16.1192 3.58526 16.0807 3.5837C16.0425 3.57891 16.0038 3.57891 15.9656 3.5837C15.9257 3.58551 15.8871 3.59752 15.8532 3.61856C15.789 3.65243 15.7367 3.70526 15.7036 3.76982C15.653 3.86989 15.6558 3.8092 15.6558 4.83467C15.6558 5.86013 15.6558 5.80723 15.7008 5.90281C15.718 5.93445 15.7381 5.96434 15.7609 5.99216C15.7859 6.02492 15.82 6.0497 15.8588 6.06354L15.9195 6.09058H17.921L17.9771 6.06244C18.0506 6.02406 18.1098 5.96289 18.1458 5.88812C18.1683 5.84371 18.1765 5.79354 18.1694 5.74427V5.65149L18.1424 5.59521C18.1195 5.5429 18.0838 5.49733 18.0385 5.46262C17.9931 5.42791 17.9397 5.40532 17.8832 5.39687C17.8557 5.3935 17.6179 5.39001 17.3542 5.39001H16.8741L18.0159 4.25105C18.7592 3.51005 19.1695 3.09621 19.1892 3.07035C19.2163 3.0322 19.2356 2.98915 19.2459 2.94353C19.2562 2.8979 19.2573 2.85071 19.2493 2.80462C19.2413 2.75854 19.2243 2.71439 19.1992 2.67491C19.1742 2.63543 19.1416 2.60139 19.1033 2.57458C19.0627 2.5393 19.0135 2.51508 18.9608 2.50444C18.9081 2.4938 18.8535 2.49701 18.8024 2.51377Z" fill="black"/>
<path d="M9.33772 8.28054C9.03179 8.29901 8.72801 8.3438 8.42976 8.41437C8.27738 8.44655 8.12714 8.48819 7.97996 8.53914C7.82927 8.5867 7.68219 8.64497 7.53978 8.71345C7.10782 8.90885 6.70227 9.15806 6.33273 9.45506C6.20636 9.55624 6.0862 9.66486 5.97291 9.7805C5.85359 9.89574 5.74203 10.0188 5.63896 10.1488C5.33813 10.5206 5.08626 10.9295 4.88953 11.3654C4.82319 11.5063 4.7668 11.6517 4.72084 11.8005C4.66968 11.9546 4.63032 12.0901 4.58928 12.2565C4.54461 12.4144 4.51472 12.576 4.49993 12.7394C4.47744 12.9266 4.46788 13.0419 4.45889 13.2173C4.4486 13.3714 4.4486 13.5259 4.45889 13.68C4.46788 13.8565 4.47744 13.9707 4.49993 14.1585C4.51436 14.3209 4.5439 14.4817 4.58818 14.6386C4.7008 15.1059 4.87648 15.5556 5.11045 15.9755C5.26383 16.2489 5.44169 16.5078 5.64178 16.7491C5.94843 17.1244 6.30831 17.4527 6.70999 17.7239C6.83976 17.8187 6.97594 17.9044 7.11757 17.9803C7.53322 18.2071 7.9768 18.3783 8.43703 18.4896C8.58741 18.5312 8.74109 18.5599 8.89637 18.5752C9.07121 18.5971 9.1865 18.6066 9.37821 18.6162C9.54662 18.6292 9.7158 18.6292 9.88421 18.6162C10.0759 18.6061 10.1895 18.5971 10.3654 18.5752C10.5207 18.5599 10.6744 18.5312 10.8248 18.4896C11.285 18.3785 11.7287 18.2072 12.1443 17.9803C12.2864 17.9043 12.4229 17.8184 12.553 17.7233C12.8145 17.5448 13.0592 17.3427 13.2839 17.1195C13.4023 17.0057 13.5131 16.8842 13.6156 16.7558C13.9205 16.3895 14.173 15.9828 14.3661 15.5471C14.4954 15.259 14.5973 14.9593 14.6703 14.6521C14.7163 14.4908 14.747 14.3255 14.7619 14.1585C14.7844 13.9713 14.7939 13.8565 14.8029 13.6805C14.8133 13.5265 14.8133 13.3719 14.8029 13.2178C14.7945 13.0413 14.7844 12.9271 14.7619 12.7394C14.7472 12.576 14.7175 12.4144 14.6731 12.2565C14.632 12.0878 14.5927 11.9546 14.5415 11.8005C14.4956 11.6517 14.4393 11.5063 14.3729 11.3654C14.177 10.9335 13.9281 10.5275 13.6319 10.1571C13.5307 10.0306 13.4218 9.91047 13.3058 9.79738C13.1898 9.6767 13.0659 9.56395 12.9347 9.46C12.562 9.16084 12.1528 8.91021 11.717 8.714C11.5762 8.64791 11.4309 8.59153 11.2824 8.54531C11.1301 8.49207 10.9744 8.44905 10.8163 8.41657C10.5025 8.34262 10.1826 8.29763 9.8606 8.28219C9.68665 8.2675 9.51176 8.26697 9.33772 8.28054ZM8.31789 11.8225C8.58438 12.0541 8.82107 12.2632 8.84188 12.2863L8.88175 12.3284V12.3734C8.88345 12.3885 8.88191 12.4037 8.87715 12.418C8.87239 12.4324 8.86457 12.4456 8.85423 12.4566C8.83343 12.4853 8.65354 12.6432 8.13012 13.0907C7.74726 13.418 7.42337 13.6924 7.41213 13.7014C7.39904 13.7103 7.3839 13.7156 7.36814 13.7169C7.35237 13.7182 7.33657 13.7153 7.32222 13.7087C7.31198 13.7004 7.30422 13.6894 7.29985 13.677C7.29548 13.6646 7.29464 13.6513 7.29745 13.6384C7.30082 13.6266 7.4729 13.3573 7.67923 13.0391C8.09302 12.4027 8.08849 12.4111 8.07275 12.3324C8.06769 12.3088 7.99685 12.1267 7.89734 11.886C7.83349 11.7452 7.77723 11.601 7.72871 11.4542C7.72793 11.4455 7.72961 11.4367 7.73359 11.429C7.73757 11.4212 7.74364 11.4147 7.75116 11.4103C7.7576 11.4037 7.76567 11.399 7.77456 11.3966C7.78344 11.3941 7.79288 11.394 7.8018 11.3963C7.83048 11.398 7.8715 11.4318 8.31789 11.8214V11.8225ZM11.5045 11.4115C11.5121 11.4157 11.5183 11.4219 11.5223 11.4297C11.5263 11.4374 11.5279 11.4461 11.527 11.4548C11.4789 11.6021 11.4226 11.7466 11.3583 11.8877C11.2588 12.1272 11.1896 12.3093 11.1829 12.3329C11.1694 12.4111 11.1655 12.4032 11.5765 13.0379C11.7828 13.3561 11.9543 13.6255 11.9576 13.6384C11.9608 13.6513 11.9601 13.6648 11.9558 13.6774C11.9516 13.6899 11.9438 13.7009 11.9335 13.7092C11.9208 13.7154 11.9068 13.7187 11.8927 13.7187C11.8786 13.7187 11.8646 13.7154 11.8519 13.7092C11.8435 13.7036 11.5197 13.4281 11.1312 13.0969C10.5926 12.637 10.4194 12.4853 10.4003 12.4561C10.3907 12.4454 10.3834 12.4328 10.379 12.4191C10.3745 12.4055 10.373 12.391 10.3744 12.3767C10.3744 12.3363 10.3745 12.3335 10.411 12.2941C10.4526 12.2463 11.4162 11.4053 11.4347 11.4003C11.4465 11.3957 11.4592 11.3944 11.4716 11.3966C11.484 11.3988 11.4956 11.4043 11.505 11.4126L11.5045 11.4115ZM9.66268 14.9163C9.66942 14.9202 9.89095 15.0849 10.1541 15.2862C10.66 15.6696 10.655 15.6668 10.7073 15.6534C10.7163 15.6534 10.9563 15.5038 11.2397 15.3261C11.4123 15.2047 11.5938 15.0965 11.7828 15.0023C11.7935 15.0013 11.8044 15.0036 11.8137 15.0091C11.8137 15.013 12.033 15.2564 12.2949 15.5493C12.5569 15.8422 12.7751 16.0902 12.7801 16.0992C12.7852 16.1082 12.7869 16.1194 12.7745 16.1391C12.7481 16.183 12.761 16.1879 12.2578 15.967C11.9992 15.8545 11.7918 15.767 11.7845 15.7681C11.7772 15.7692 11.5315 15.9209 11.2397 16.1053C10.9479 16.2897 10.7039 16.4427 10.6977 16.4427C10.687 16.4438 10.6761 16.4415 10.6668 16.436C10.6561 16.4304 10.4324 16.2628 10.1709 16.0638C9.89546 15.8546 9.68293 15.6984 9.66494 15.6927C9.64597 15.6867 9.62579 15.6854 9.6062 15.6889C9.5866 15.6924 9.56815 15.7007 9.55246 15.7129C9.53616 15.7247 9.32087 15.8878 9.0735 16.0756C8.82613 16.2633 8.6125 16.4236 8.59845 16.432C8.58733 16.4391 8.57451 16.4432 8.56132 16.4438C8.55514 16.4438 8.31841 16.2932 8.03562 16.1149C7.75283 15.9367 7.5145 15.786 7.50663 15.7821C7.49507 15.7765 7.48235 15.7735 7.4695 15.7736C7.45657 15.7736 7.27613 15.8484 6.9939 15.9715C6.49747 16.1874 6.5098 16.1835 6.48337 16.1402C6.471 16.1205 6.47044 16.1154 6.47775 16.1014C6.48505 16.0873 6.70265 15.844 6.96295 15.5516C7.22325 15.2593 7.44137 15.0146 7.44418 15.0107C7.45353 15.0053 7.46437 15.0029 7.47513 15.004C7.66403 15.0981 7.84554 15.2064 8.01819 15.3278C8.29929 15.5054 8.54162 15.6527 8.55061 15.655C8.56588 15.6575 8.58147 15.6575 8.59673 15.655C8.71323 15.5921 8.82173 15.5155 8.91997 15.4267C9.61599 14.8983 9.59969 14.9106 9.62555 14.9106C9.63824 14.9098 9.65098 14.9112 9.66323 14.9146L9.66268 14.9163Z" fill="black"/>
<path d="M3.27818 8.60921C3.2404 8.61256 3.20395 8.62488 3.17191 8.64517C3.05441 8.70983 3.10221 8.63795 2.34997 9.90067C2.01356 10.3811 1.72915 10.896 1.50158 11.4366C1.43798 11.6211 1.3987 11.8132 1.38467 12.0079C1.37174 12.154 1.37061 12.2394 1.37061 13.6629C1.37061 15.0718 1.37061 15.1747 1.38354 15.3388C1.38726 15.4501 1.40444 15.5605 1.4347 15.6677C1.54835 16.048 1.70609 16.4138 1.90471 16.7574C2.07731 17.1099 2.23022 17.4259 2.24202 17.4601L2.26789 17.5214L2.27184 17.9565L2.2752 18.3917H3.23656H4.19795V17.6844V16.9766L4.16422 16.8736C4.14622 16.8174 4.03267 16.4701 3.9118 16.1029C3.79092 15.7358 3.68298 15.3929 3.67005 15.3423C3.62339 15.1556 3.62562 15.2449 3.62562 13.5994C3.62562 12.5767 3.62561 12.0876 3.61831 12.0302C3.62032 11.981 3.60588 11.9326 3.57727 11.8926C3.52596 11.8125 3.45786 11.7446 3.37769 11.6935C3.33952 11.6685 3.2956 11.6535 3.25008 11.6502C3.20111 11.6385 3.15006 11.6385 3.10108 11.6502C3.05632 11.6546 3.0132 11.6695 2.97515 11.6935C2.89548 11.7446 2.82762 11.8121 2.77613 11.8915C2.74666 11.933 2.73219 11.9833 2.73509 12.0342C2.73003 12.0938 2.72723 12.4452 2.72723 13.1586C2.72723 14.3016 2.73004 14.2319 2.68619 14.283C2.6727 14.2969 2.65565 14.3069 2.63691 14.3117C2.61817 14.3166 2.59845 14.3162 2.57992 14.3106C2.54225 14.3033 2.52369 14.2814 2.5012 14.2302C2.47148 13.8668 2.46697 13.5018 2.48771 13.1378C2.45163 12.649 2.46802 12.1579 2.53661 11.6727C2.55308 11.5764 2.57968 11.4822 2.61591 11.3916C2.64571 11.3106 2.8672 10.7973 3.1365 10.1851C3.39511 9.59925 3.61774 9.08937 3.63292 9.05283L3.65935 8.9853L3.65204 8.91626C3.64877 8.87177 3.63833 8.82811 3.62112 8.78696C3.60904 8.74602 3.5835 8.71026 3.54861 8.68566C3.51629 8.65579 3.47795 8.63321 3.43617 8.61937C3.3861 8.59849 3.3305 8.59489 3.27818 8.60921Z" fill="black"/>
<path d="M15.819 8.62836C15.7775 8.64253 15.7391 8.665 15.7064 8.69425C15.6724 8.71846 15.6476 8.75356 15.6361 8.79376C15.6188 8.83507 15.6084 8.87892 15.6053 8.9236C15.595 8.96263 15.5988 9.00401 15.616 9.04055C15.6261 9.06528 15.8486 9.57462 16.1112 10.1717C16.3861 10.7963 16.6116 11.3174 16.6414 11.3984C16.6776 11.489 16.7043 11.5832 16.7208 11.6795C16.7898 12.1709 16.8056 12.6684 16.768 13.1632C16.7838 13.5253 16.7789 13.8879 16.7533 14.2493C16.7473 14.2663 16.7371 14.2813 16.7236 14.2931C16.7102 14.3049 16.6938 14.3132 16.6763 14.3169C16.6499 14.3248 16.6215 14.3222 16.5969 14.3096C16.5724 14.297 16.5538 14.2754 16.5448 14.2493C16.5187 13.8731 16.5132 13.4956 16.5285 13.1188C16.5285 12.5099 16.5217 11.9983 16.5183 11.9814C16.4724 11.8641 16.3889 11.7653 16.281 11.7003C16.2429 11.6752 16.199 11.6603 16.1535 11.6571C16.1047 11.6453 16.0537 11.6453 16.005 11.6571C15.9602 11.6616 15.9172 11.6764 15.8791 11.7003C15.7994 11.7516 15.7316 11.8193 15.6801 11.8988C15.6517 11.939 15.6373 11.9873 15.639 12.0365C15.6334 12.0927 15.6318 12.5824 15.6318 13.6056C15.6318 15.2534 15.6317 15.1613 15.5862 15.3485C15.5733 15.4008 15.4676 15.7336 15.3512 16.0883C15.2348 16.4431 15.1213 16.7895 15.0993 16.8575L15.0588 16.9806V17.689V18.3962H16.0202H16.9815L16.985 17.9611L16.9888 17.5254L17.0164 17.4601C17.0316 17.4247 17.1851 17.1083 17.3538 16.758C17.5519 16.4155 17.7092 16.0508 17.8227 15.6718C17.8527 15.5668 17.8698 15.4587 17.8737 15.3496C17.8855 15.1933 17.8862 15.077 17.8862 13.6737C17.8862 12.2429 17.8861 12.1557 17.8732 12.0118C17.8528 11.721 17.7765 11.437 17.6483 11.1752C17.5921 11.0554 17.4797 10.8677 16.9091 9.90404C16.158 8.64132 16.2045 8.71275 16.0876 8.64923C16.0527 8.62698 16.0127 8.61424 15.9713 8.61217C15.9203 8.59863 15.866 8.60433 15.819 8.62836Z" fill="black"/>
<path d="M1.95312 19.5797V20.2499H4.39312V19.5797V18.9102H1.95312V19.5797Z" fill="black"/>
<path d="M14.8586 19.5797V20.2499H17.2987V19.5797V18.9102H14.8586V19.5797Z" fill="black"/>
</g>
<defs>
<clipPath id="clip0_582_1146">
<rect width="19.2573" height="20" fill="white" transform="translate(0 0.25)"/>
</clipPath>
</defs>
</svg>
