<svg width="22" height="17" viewBox="0 0 22 17" fill="none" xmlns="http://www.w3.org/2000/svg">
<path d="M1 8.31354C1 7.55733 1 7.17923 1.10094 6.87367C1.2996 6.27234 1.77131 5.80063 2.37264 5.60198C2.6782 5.50104 3.0563 5.50104 3.8125 5.50104H5.23583C5.51652 5.50104 5.65687 5.50104 5.78656 5.46551C5.90147 5.43404 6.00982 5.38229 6.10652 5.3127C6.21567 5.23415 6.30388 5.12499 6.4803 4.90667L8.15553 2.83357C9.02883 1.75286 9.46547 1.21251 9.84803 1.15369C10.1792 1.10277 10.5138 1.22109 10.7394 1.46883C11 1.75503 11 2.44975 11 3.8392V12.7879C11 14.1773 11 14.872 10.7394 15.1582C10.5138 15.406 10.1792 15.5243 9.84803 15.4734C9.46547 15.4146 9.02883 14.8742 8.15553 13.7935L6.4803 11.7204C6.30388 11.5021 6.21567 11.3929 6.10652 11.3144C6.00982 11.2448 5.90147 11.193 5.78656 11.1616C5.65687 11.126 5.51652 11.126 5.23583 11.126H3.8125C3.0563 11.126 2.6782 11.126 2.37264 11.0251C1.77131 10.8264 1.2996 10.3547 1.10094 9.7534C1 9.44784 1 9.06974 1 8.31354Z" fill="black"/>
<path d="M17.82 1C18.8191 1.93168 19.6167 3.0582 20.1636 4.31005C20.7105 5.5619 20.9952 6.91253 20.9999 8.27863C21.0047 9.64473 20.7295 10.9973 20.1914 12.253C19.6532 13.5086 18.8635 14.6406 17.8709 15.5793M15.092 3.92541C15.6915 4.48442 16.17 5.16033 16.4982 5.91144C16.8263 6.66255 16.9971 7.47293 17 8.29259C17.0028 9.11225 16.8377 9.9238 16.5148 10.6772C16.1919 11.4306 15.7181 12.1098 15.1225 12.673M6.4803 11.7204L8.15553 13.7935C9.02883 14.8742 9.46547 15.4146 9.84803 15.4734C10.1792 15.5243 10.5138 15.406 10.7394 15.1582C11 14.872 11 14.1773 11 12.7879V3.8392C11 2.44975 11 1.75503 10.7394 1.46883C10.5138 1.22109 10.1792 1.10277 9.84803 1.15369C9.46547 1.21251 9.02883 1.75286 8.15553 2.83357L6.4803 4.90667C6.30388 5.12499 6.21567 5.23415 6.10652 5.3127C6.00982 5.38229 5.90147 5.43404 5.78656 5.46551C5.65687 5.50104 5.51652 5.50104 5.23583 5.50104H3.8125C3.0563 5.50104 2.6782 5.50104 2.37264 5.60198C1.77131 5.80063 1.2996 6.27234 1.10094 6.87367C1 7.17923 1 7.55733 1 8.31354C1 9.06974 1 9.44784 1.10094 9.7534C1.2996 10.3547 1.77131 10.8264 2.37264 11.0251C2.6782 11.126 3.0563 11.126 3.8125 11.126H5.23583C5.51652 11.126 5.65687 11.126 5.78656 11.1616C5.90147 11.193 6.00982 11.2448 6.10652 11.3144C6.21567 11.3929 6.30388 11.5021 6.4803 11.7204Z" stroke="black" stroke-width="2" stroke-linecap="round" stroke-linejoin="round"/>
</svg>
