<svg version="1.2" xmlns="http://www.w3.org/2000/svg" viewBox="0 0.4492000000000189 841.8896 1190.5508" width="100" height="141"><path fill-rule="evenodd" style="fill:#b32016" d="m823.6 0v805.3h-805.2v-805.3z"/><path fill-rule="evenodd" style="fill:#fccc99" d="m440.9 724.7h-0.1c-6.3-14.6-10-28.3-11.8-39-1.4-8-1.8-15.1-1.8-21.3 0.1-6.2 0.6-11.7 1.2-16.5 1.2-9.6 2.5-16.7 0.4-22.8-3-1.7-19.3 18.9-30.2 20.6-18.1 2.8-20-10.8-33.4-15.9 9.8-3.8 17.1-3 25.6-7.4 7.4-3.8 12.6-11.6 20.8-14 5.7-1.6 12.2-0.9 19.3 2.7 2.4 0 0.6-5-1.6-11.5-1.7-5.1-4.1-11.3-4.2-16.7-0.1-4.8 1.7-8.9 5.8-11.5-4.1-7-6.7-14-7-19.1-0.9-11.7 3-17.9 2.5-26.2-0.3-6-0.2-14.7-2.5-18-8.8 3.3-23.4 53.1-24.5 62.4l-12.9-7.7-7.9 13.9c-3 5.3 12.3 21.2-4.1 29.7l-0.6-0.4c1.5-4.6 1.6-8.8-2-13.6-6.2-8-14.5-2.3-26.4-10.3-6.1-7-14.3-7.6-19.6-5.4-3.7 1.5-6.5 4.4-6.9 10l-0.7 0.3c-3.5-7.9-0.4-14.1 4.5-18 12-9.5 41.6 5.6 44.8 0l7.5-12.5-12.7-8c31.9-22.9 32.1-62 29.6-97.6l-2-1.1c-5.2 32.9-19.5 57.6-42.3 75.1-8.5 6.6-19.1 12.6-30.8 2.7 14.1-9.4 28-29 32.6-45.5 4.6-16.1 6.5-34.9 5.8-55.8l-1.6-1.4c-6.4 36.4-26.2 55.1-39.5 64.7-9.4 6.8-20.7 13-31.1 3.7 15.3-12.5 27.1-29 33.2-46.1 6.4-18 8.5-37.7 6.8-57.7l-1.4-1.9c-8 34-16.4 50.9-35.8 65.7-9.8 7.4-21 11.8-32.1 1.7 20.2-15.4 28.5-29.2 34.2-52.8 5.7-23.3 9.1-43.2 8.7-69.4l-1.5-5.3c-7.7 43.3-19.6 70.3-33.6 82.3-9.4 8-21.7 14-29.1 5.3 9.4-10.7 15.3-22.4 18.4-35 6.5-25.9 5.1-47.4 4.6-82-0.3-22.6 2.1-44.1 12.7-63.2 10.9-19.7 35.1-24.6 52.7-19.5 28.7 8.7 36.1 42.8 22.6 63.8-7.2 11.2-6.1 25.5-2.3 32.5 4.7 8.6 14.4 17.5 23.8 25.1 8.5 6.9 32.8 23.7 47.9 21.2-0.7-8.8 1.7-18.4 4.6-28.2 2.9-9.8 6.4-19.8 7.9-29.3 1.4-8.6 0.2-18.7-4.2-24.6-5-5.1-10.2-7.6-15.4-9.4-6.6-2.3-10.4-3.4-14.3-8.6-2-2.8-2.7-8-3.1-13.6 3.4 3.7 6.2 6.3 9.3 8 2.8 1.4 11 3.7 13.5 0.8-2.7-5.9-7.6-11-13.5-13.9-7.9-3.9-15.3-2.3-21.1 3.9-1.7-6.2-0.7-13.6 4.3-18.2 5.2-4.8 16-3 21.8 0-0.7-4.5 1.7-8.9 8.2-9.5 4.4-0.5 9 0.8 13.2 2 6.3 1.8 11.1 4.6 16.9 7.7zm-151.5-453.1c-5 0-9.1-4.4-9.1-9.7 0-5.3 4.1-9.6 9.1-9.6 5.1 0 9.2 4.3 9.2 9.6 0 5.3-4.1 9.7-9.2 9.7zm31-2.8c-5 0-9.1-4.3-9.1-9.7 0-5.3 4.1-9.6 9.1-9.6 5.1 0 9.2 4.3 9.2 9.6 0 5.4-4.1 9.7-9.2 9.7zm-16.7-17c5 0 9.1-4.3 9.1-9.6 0-5.4-4.1-9.7-9.1-9.7-5.1 0-9.2 4.3-9.2 9.7 0 5.3 4.1 9.6 9.2 9.6zm0.4 5.1c1.8 91.7 45.9 163 136.9 168.7v-25.7c-73.6-2.3-128.7-75-135.4-143zm103.2-29.7c2.1 1.1 4.2 2.8 5.8 4.6 2.4 2.9 10.1 1.5 14.5 2.8 2.7 0.8 4 1.9 4.2 1.4-1.4-2.7-2.3-5.4-4.5-7.6-4.9-4.6-19.6-7.8-20-1.2zm282.6-36.6h-248.8v34.4c5.9-3.1 10.6-5.9 17-7.7 4.2-1.2 8.7-2.4 13.2-2 6.5 0.7 8.9 5 8.2 9.6 5.7-3.1 16.5-4.8 21.7-0.1 5 4.6 6 12.1 4.4 18.3-5.8-6.3-13.3-7.8-21.2-4-5.9 2.9-10.8 8-13.5 14 2.5 2.9 10.8 0.5 13.6-0.9 3.1-1.6 5.8-4.2 9.3-8-0.5 5.6-1.2 10.9-3.2 13.6-3.9 5.3-7.7 6.4-14.3 8.7-5.1 1.7-10.3 4.2-15.4 9.4-4.4 5.8-5.5 16-4.2 24.6 1.5 9.4 5 19.4 7.9 29.2 3 9.8 5.3 19.4 4.6 28.3 15.1 2.4 39.4-14.4 47.9-21.3 9.4-7.6 19.1-16.5 23.8-25.1 3.8-7 4.9-21.3-2.2-32.4-13.6-21.1-6.2-55.1 22.5-63.8 17.6-5.2 41.8-0.2 52.7 19.4 10.6 19.1 13.1 40.7 12.7 63.3-0.5 34.6-1.8 56.1 4.6 81.9 3.1 12.6 9.1 24.3 18.4 35-7.3 8.8-19.6 2.8-29.1-5.3-14-11.9-25.9-38.9-33.6-82.3l-1.5 5.4c-0.3 26.1 3.1 46.1 8.7 69.4 5.7 23.6 14 37.3 34.3 52.8-11.1 10-22.4 5.7-32.1-1.8-19.5-14.8-27.9-31.6-35.8-65.7l-1.5 2c-1.7 19.9 0.4 39.7 6.8 57.6 6.1 17.2 18 33.6 33.2 46.1-10.3 9.3-21.7 3.2-31.1-3.7-13.2-9.6-33.1-28.2-39.4-64.7l-1.7 1.4c-0.7 20.9 1.3 39.7 5.8 55.8 4.6 16.5 18.6 36.1 32.6 45.6-11.7 9.9-22.2 3.8-30.8-2.8-22.7-17.5-37-42.2-42.3-75l-2 1c-2.5 35.7-2.3 74.8 29.7 97.6l-12.7 8 7.4 12.6c3.3 5.6 32.8-9.6 44.8 0 4.9 3.9 8 10.1 4.5 17.9l-0.7-0.3c-0.3-5.5-3.1-8.5-6.8-10-5.4-2.2-13.6-1.6-19.7 5.4-11.9 8-20.2 2.3-26.3 10.3-3.7 4.8-3.6 9-2.1 13.7l-0.6 0.4c-16.3-8.6-1-24.4-4.1-29.7l-7.9-14-12.8 7.8c-1.2-9.4-15.8-59.1-24.6-62.5-2.3 3.3-2.1 12-2.5 18-0.4 8.4 3.4 14.5 2.6 26.2-0.4 5.1-2.9 12.1-7 19.1 4 2.6 5.8 6.8 5.7 11.6-0.1 5.3-2.5 11.6-4.2 16.6-2.1 6.6-4 11.5-1.5 11.5 7-3.6 13.6-4.3 19.2-2.6 8.2 2.3 13.4 10.1 20.8 14 8.5 4.4 15.8 3.6 25.6 7.3-13.3 5.1-15.2 18.8-33.4 15.9-10.9-1.7-27.2-22.3-30.2-20.6-2.1 6.2-0.7 13.3 0.4 22.9 0.6 4.8 1.2 10.2 1.2 16.4 0.1 6.3-0.4 13.3-1.7 21.3-1.9 10.7-5.7 24.4-12 39.1h0.2c244.6-81.8 246.4-424.3 248.5-534.1zm-97.2 81c5.1 0 9.2-4.4 9.2-9.7 0-5.3-4.1-9.6-9.2-9.6-5 0-9.1 4.3-9.1 9.6 0 5.3 4.1 9.7 9.1 9.7zm-31-2.8c5.1 0 9.2-4.3 9.2-9.7 0-5.3-4.1-9.6-9.2-9.6-5 0-9.1 4.3-9.1 9.6 0 5.4 4.1 9.7 9.1 9.7zm16.8-17c-5 0-9.1-4.3-9.1-9.6 0-5.4 4.1-9.7 9.1-9.7 5.1 0 9.2 4.3 9.2 9.7 0 5.3-4.1 9.6-9.2 9.6zm-0.4 5.1c-1.8 91.7-46 163-137 168.7v-25.7c73.7-2.3 128.7-75 135.5-143zm-103.2-29.7c-2.1 1.1-4.2 2.8-5.9 4.6-2.4 2.9-10.1 1.5-14.5 2.8-2.7 0.8-3.9 1.9-4.1 1.4 1.3-2.7 2.3-5.4 4.5-7.6 4.9-4.6 19.6-7.8 20-1.2zm-271.5 497.5h-2.2l-48.9-605.4h1.1c8.4 23.5 31.1 29.5 50 16zm486.5-591.6l-498.4-52.6v1c22.5 9.4 29 36.6 11.9 53.9h486.5z"/><path fill-rule="evenodd" style="fill:#231f20" d="m90.4 936.6c0-18.1-12.8-28.8-36.6-28.8-10.1 0-19.1 1.2-27.3 1.2-2.4 0-4.9-0.2-8.1-0.5 0.7 17.4 1.1 36 1.1 56.1q0 28.6-1.1 55.7c2.9-0.5 5.6-0.8 8.3-0.8 2.3 0 4.5 0.3 6.8 0.6-0.6-11.7-0.8-20.9-0.8-27.6v-23.4c5.2 0.3 9.5 0.3 12.4 0.3 29.6 0 45.3-12 45.3-32.8zm-15.4 1.3q0 25.7-35.1 25.7c-2.5 0-4.9-0.2-7.4-0.4v-14.7c0-11.9 0.4-23.1 0.9-33.7 3.5-0.3 6.8-0.5 10.2-0.5 21.6 0 31.4 6 31.4 23.6zm56 83.9c-21.5 0-38.9-17.9-38.9-40.1 0-22.2 17.4-40.1 38.9-40.1 21.4 0 38.8 17.9 38.8 40.1 0 22.2-17.4 40.1-38.8 40.1zm-0.1-5c-13.8 0-24.9-15.7-24.9-35.2 0-19.4 11.1-35.1 24.9-35.1 13.7 0 24.8 15.7 24.8 35.1 0 19.5-11.1 35.2-24.8 35.2zm70.4 3.5c-0.5-14.2-0.7-38.3-0.7-72.2 0-18.6 0-35.3 0.7-50.4-2.2 0.2-4.7 0.4-7 0.4-2.1 0-4.4-0.2-6.6-0.4 0.7 9.1 0.7 19.6 0.7 32v42.9c0 20.9 0 36.8-0.7 47.7q3.3-0.5 6.6-0.5 3.5 0 7 0.5zm40.8-105.6c0-4.7-3.7-8.2-8.3-8.2-4.6 0-8.4 3.5-8.4 8.2 0 4.5 3.8 8.2 8.4 8.2 4.6 0 8.3-3.7 8.3-8.2zm-1.6 105.6c-0.5-13.4-0.9-27-0.9-40.5 0-12.6 0.4-24.7 0.9-36.7-2.1 0.5-4.4 0.6-6.7 0.6-2.2 0-4.4-0.1-6.7-0.6 0.5 11.9 0.8 24.1 0.8 36.7 0 13.5-0.3 27.1-0.8 40.5 2.3-0.5 4.5-0.8 6.7-0.8 2.3 0 4.6 0.3 6.7 0.8zm63.6-3.8l-1.2-3.7c-4.7 2.3-8.5 3.5-11.4 3.5-10.4 0-13.7-6.4-13.7-20.8 0-14.9 0.7-27.5 0.7-37.9 0-0.8 0.1-3.7 0.3-8.2 1.7-0.1 3.7-0.1 5.9-0.1q6.2 0 15 0.5v-1.4c0-2 0.2-3.8 0.5-5.3-8.2 0.6-15.2 0.8-21.2 0.8v-10.7c0-1.7 0.1-5.8 0.5-12.9-3.9 1.9-8.2 3.2-13.3 4.1 0.2 4.3 0.4 8.8 0.4 13.6v5.6c-3.4 0-7.1-0.2-10.4-0.5 0 0.6 0.2 1.5 0.2 2.5 0 1.3-0.2 2.8-0.4 4.3q4.3-0.5 8.6-0.5h1.6v5.6c0 21.4-0.8 36.3-0.8 44.5 0 15.4 5.7 22.5 20.9 22.5 6.2 0 12.4-2 17.8-5.5zm73.6-39.4c0-22.9-12.2-35.7-32.9-35.7-22.8 0-37.7 16.1-37.7 40.4 0 23.6 15.6 40 38.7 40 10 0 19.2-3.2 27.8-9.4v-2c0-1.8 0.1-4 0.3-6.2-7.7 7.6-15.7 11.1-25.3 11.1-17.7 0-27.4-11.9-27.4-34.2v-0.5h56.4c0-1.1 0.1-2.3 0.1-3.5zm-13.2-2.2h-43c0.7-17.5 10.4-28.4 22.6-28.4 12.6 0 20.4 9.4 20.4 25.8zm92.4-26.8q-12.8-6.6-26.6-6.6c-24.4 0-40.7 15.9-40.7 40.2 0 24.5 15.6 40.2 38.4 40.2 11.5 0 20.6-2.5 27.9-8.2-0.1-1-0.1-2.2-0.1-3.3 0-1.7 0.1-3.7 0.3-6.1-7.9 8.1-15.6 11.9-24.8 11.9-16.9 0-28.4-13.1-28.4-34.6 0-22.3 10.2-34.9 27.4-34.9 10.2 0 17.6 5.1 22.3 15.4 1-5.2 2.5-10 4.3-14zm79.9 72.2c-0.3-10.9-0.7-19.3-0.7-25.2 0-9.7 0.5-18.1 0.5-25.1 0-18.9-8.7-28.5-26.1-28.5-10.9 0-18.4 4.6-25.4 14.9 0-7.8-0.2-15.4-0.2-22.4 0-10.5 0.2-22.7 0.5-36.3-2 0.3-4.3 0.6-6.7 0.6-2 0-4.3-0.3-6.9-0.6 0.5 19.1 0.9 39.5 0.9 61.1 0 11.4-0.2 31.8-0.9 61.5 2.2-0.6 4.4-0.9 6.6-0.9 2.3 0 4.7 0.3 6.8 0.9-0.1-8.9-0.3-15.3-0.3-19.2v-11.7c0-13.7 0.3-23.2 3.2-28.9 3.7-7.1 9.9-10.8 17.6-10.8 13.9 0 18.5 8.6 18.5 27 0 10.9-0.3 25.4-0.8 43.6 2.4-0.6 4.5-0.9 6.7-0.9 2.4 0 4.7 0.3 6.7 0.9zm89.2 0c-0.3-9.3-0.5-17.8-0.5-25.9 0-7.7 0.4-15.7 0.4-23.7 0-19.6-8.7-29.3-26.1-29.3-11.1 0-19.5 5.2-25.7 15.9 0-2-0.1-4-0.1-6 0-2.7 0.1-5.4 0.3-8.3-2 0.5-4.2 0.7-6.5 0.7-2 0-4.4-0.2-6.7-0.7 0.6 11.6 0.6 23.8 0.6 37.2v11.6c0 9.8 0 19.2-0.6 28.5 2.3-0.6 4.5-0.9 6.7-0.9 2.3 0 4.7 0.3 6.8 0.9-0.3-8.4-0.3-18.5-0.3-30.7v-7.4c0-10.9 0.3-19.1 5.5-25.4 3.7-4.9 8.9-7.1 15.3-7.1q18.6 0 18.6 24.2c0 19.4-0.4 34.9-1.1 46.4 2.4-0.6 4.6-0.9 6.7-0.9 2.2 0 4.6 0.3 6.7 0.9zm40.9-105.7c0-4.7-3.7-8.2-8.4-8.2-4.5 0-8.3 3.5-8.3 8.2 0 4.5 3.8 8.2 8.3 8.2 4.7 0 8.4-3.7 8.4-8.2zm-1.7 105.7c-0.5-13.5-0.8-27.1-0.8-40.6 0-12.6 0.3-24.7 0.8-36.7-2 0.5-4.3 0.7-6.7 0.7-2.2 0-4.3-0.2-6.7-0.7 0.5 11.9 0.9 24.1 0.9 36.7 0 13.5-0.4 27.1-0.9 40.6 2.4-0.6 4.5-0.9 6.7-0.9 2.4 0 4.7 0.3 6.7 0.9zm92.8 0c-14.8-17.5-27.6-32.4-38.5-45.1l14.7-14c8.9-8.3 15.7-14.5 21.3-18.2-2.4 0.3-4.9 0.5-7.2 0.5-2.4 0-4.7-0.2-7.2-0.5-17.9 22.8-31.2 33.3-34.2 33.3-1.8 0-2.7-1-2.7-2.8v-5.5c0-20.5 0.2-43.8 0.9-70.3-2.2 0.3-4.6 0.6-6.9 0.6-2.2 0-4.5-0.3-6.9-0.6 0.7 20.6 0.9 41 0.9 61 0 15.8-0.2 36.2-0.9 61.6 2.4-0.6 4.7-0.9 6.9-0.9 2.3 0 4.7 0.3 6.9 0.9-0.9-12.8-0.9-22.7-0.9-29.2v-9.2c0-1.5 0-2.2 1.5-2.2 2.5 0 14.4 13.2 34.7 40.6 2.7-0.6 5.5-0.7 8.4-0.7 3 0 6.2 0.1 9.2 0.7zm75.5-2.8l-0.7-3.1c-1 0.1-2 0.1-2.8 0.1-6.2 0-7.2-3-7.2-10.9v-4.5l0.6-27.9v-2c0-18.6-7.2-27.5-25.7-27.5-10.3 0-19.5 3.2-26.5 9.2l-0.3 8.6h1.3q7.5-11.6 21.1-11.6c13.2 0 18.3 7 18.3 21.4v3.5c-4.2 3.7-14.1 4.4-28.5 7.4-12.9 2.9-19.1 9.7-19.1 21.4 0 12.8 8 20.2 22.6 20.2 9.4 0 17.6-3.9 24.4-11.1 1.1 6.5 3.4 9.5 9.1 9.5 4.7 0 8.9-1.3 13.4-2.7zm-22.3-16.7c0 2.3-0.2 4.4-2.8 7-4.4 4.4-11.1 7.2-16.4 7.2-9.1 0-14.6-5.6-14.6-15.5 0-12.9 10.2-15.9 33.8-19.8z"/><path fill-rule="evenodd" style="fill:#231f20" d="m173.4 1071.1c-1.8 0.5-3.6 0.7-5.4 0.7-1.9 0-3.5-0.2-5.2-0.7-8.2 31.8-17.6 63.2-28.3 94-11.4-31.6-21.8-63-31.2-94-1.9 0.5-3.7 0.7-5.4 0.7-1.8 0-3.4-0.2-5.3-0.7-9.1 33.6-19.4 65.4-30.4 95.7-10.7-33-20-64.9-28.3-95.7-2.5 0.5-5.1 0.7-7.6 0.7-2.7 0-5.4-0.2-7.9-0.7 12.7 39.6 24.3 76.5 34.8 111.2 2-0.6 3.8-0.9 5.7-0.9 2 0 3.8 0.3 5.6 0.9 4.8-13.4 14.8-43.6 30.4-90.9 11.2 31 21.3 61.2 30 91 2-0.7 3.8-0.8 5.8-0.8 2 0 3.8 0.1 5.7 0.7 12.1-36.3 24.2-73.2 37-111.2zm45.4 34.5c-2.6-0.5-4.6-0.9-6.1-0.9-8 0-14.5 6.4-20.3 18.7 0-6.7 0.3-12.7 0.8-17.8-2.1 0.5-4.5 0.6-6.8 0.6-2.2 0-4.5-0.1-7-0.6 0.7 6.9 0.9 14.8 0.9 23.4 0 23.8-0.4 41.6-0.9 53.1 2.2-0.4 4.2-0.5 6.2-0.5 2.3 0 4.8 0.1 7.1 0.7-0.5-7.4-0.8-18.4-0.8-32.8 0-22.1 4.7-33 17-33 2.6 0 5.1 0.7 7.8 2.2l1.3-0.8c0-4.7 0.2-9 0.8-12.3zm46.3 78.1c-21.4 0-38.6-17.8-38.6-39.8 0-22 17.2-39.8 38.6-39.8 21.3 0 38.6 17.8 38.6 39.8 0 22-17.3 39.8-38.6 39.8zm-0.1-5c-13.7 0-24.7-15.6-24.7-34.9 0-19.3 11-34.9 24.7-34.9 13.6 0 24.7 15.6 24.7 34.9 0 19.3-11.1 34.9-24.7 34.9zm116.8-68.1q-12.7-6.5-26.4-6.5c-24.3 0-40.4 15.8-40.4 39.9 0 24.3 15.4 39.9 38 39.9 11.5 0 20.5-2.5 27.8-8.2-0.1-1-0.1-2.1-0.1-3.3 0-1.6 0.1-3.6 0.3-6-7.8 8-15.5 11.8-24.6 11.8-16.8 0-28.3-12.9-28.3-34.4 0-22.1 10.1-34.6 27.3-34.6 10.1 0 17.4 5 22.1 15.3 1-5.1 2.5-10 4.3-13.9zm40.1-8.6v-8.6c-2.3 2-6.2 5.3-11.8 9.3v-1.9c0-15.4 0.3-30 0.8-40.3-2.1 0.1-4.6 0.3-7 0.3-2 0-4.3-0.2-6.5-0.3 0.7 13.4 0.9 28.7 0.9 46v4.3c-4.8 3.3-6.3 4.3-11.3 7.3v8.5c7-5.7 10.4-8.6 11.1-9v23.6c0 17.9-0.3 31.5-0.7 41.1 2.2-0.4 4.4-0.6 6.5-0.6 2.4 0 4.7 0.2 7 0.6-0.5-10.4-0.8-33.8-0.8-72.8 5-3.2 6.3-4.2 11.8-7.5zm76.7 77.6l-0.7-3.2c-1 0.2-2 0.2-2.8 0.2-6.2 0-7.2-3-7.2-10.8v-4.5l0.7-27.8v-2c0-18.5-7.2-27.3-25.6-27.3-10.2 0-19.3 3.2-26.3 9.2l-0.3 8.5h1.3q7.5-11.5 20.9-11.5c13.2 0 18.2 7 18.2 21.3v3.5c-4.2 3.6-14 4.3-28.3 7.3-12.8 2.8-19 9.6-19 21.3 0 12.6 8 19.9 22.5 19.9 9.3 0 17.5-3.8 24.3-11 1 6.5 3.3 9.5 9 9.5 4.6 0 8.8-1.3 13.3-2.6zm-22.2-16.7c0 2.4-0.1 4.4-2.8 7-4.3 4.3-11 7.2-16.3 7.2-9 0-14.5-5.7-14.5-15.5 0-12.8 10.2-15.8 33.6-19.6zm145.4-57.4c-1.5 0.1-3.2 0.3-4.8 0.3-1.7 0-3.2-0.2-5-0.3-10.2 29.7-18 49.5-22.6 59.2-5.2-10.5-12.5-30.3-20.3-59.2-1.7 0.3-3.4 0.4-4.9 0.4-1.5 0-3.1-0.1-4.8-0.4-6.1 21.6-13.1 41.4-21.3 59.4-10.8-27.8-17.4-47.6-20.3-59.4-2.4 0.4-4.9 0.6-7.3 0.6-2.5 0-4.8-0.2-7.1-0.6 15.6 37.9 25.1 63.5 28.3 76.7 1.6-0.4 2.9-0.4 4.6-0.4 1.5 0 3.2 0 4.7 0.4 3.3-14 9.9-33.6 20.4-58.8 12.5 33.3 19 52.8 20 58.8 1.6-0.4 3.1-0.5 4.6-0.5 1.7 0 3.4 0.1 5 0.5 4-15.2 14.8-40.5 30.8-76.7zm54 52.6c0-10.2-5-15.5-15.6-18.7l-11.1-3.3c-8.4-2.5-12.3-6.1-12.3-13.6 0-8.2 5.6-13.7 13.8-13.7 6.4 0 12.6 3.7 18.7 10.8 0.7-3.4 1.9-6.8 3.5-10.3-5.4-3.3-12.4-5.3-20.3-5.3-15.3 0-24.9 9.5-24.9 22.5 0 11.4 5.3 17.4 17.6 20.9l7.5 2.2c8.7 2.3 12.8 5.6 12.8 13.3 0 9.1-6.1 14.8-15.8 14.8-7.8 0-14.4-4.2-19.8-12.5-1 4.2-2.3 8.3-4 12.6 5.7 3.9 13 5.9 21.2 5.9 17.3 0 28.7-11.2 28.7-25.6zm82.7 24.1c-14.7-17.3-27.5-32.2-38.3-44.8l14.7-13.8c8.8-8.3 15.6-14.5 21.1-18.1-2.3 0.3-4.8 0.4-7.2 0.4-2.3 0-4.6-0.1-7.1-0.4-17.8 22.6-30.9 33.1-33.9 33.1-1.9 0-2.7-1-2.7-2.9v-5.4c0-20.3 0.2-43.5 0.8-69.9-2.1 0.3-4.5 0.7-6.8 0.7-2.1 0-4.5-0.4-6.8-0.7 0.7 20.6 0.8 40.8 0.8 60.7 0 15.7-0.1 35.9-0.8 61.1 2.3-0.5 4.7-0.9 6.8-0.9 2.3 0 4.7 0.4 6.8 0.9-0.8-12.7-0.8-22.5-0.8-29v-9.1c0-1.5 0-2.2 1.5-2.2 2.5 0 14.3 13.1 34.4 40.3 2.7-0.5 5.5-0.7 8.3-0.7 3 0 6.2 0.2 9.2 0.7zm75-2.7l-0.7-3.1c-1 0.1-2 0.1-2.8 0.1-6.2 0-7.2-3-7.2-10.8v-4.5l0.7-27.7v-2c0-18.5-7.1-27.3-25.6-27.3-10.1 0-19.3 3.1-26.3 9.1l-0.3 8.5h1.3q7.5-11.5 21-11.5c13.1 0 18.1 7 18.1 21.3v3.5c-4.2 3.7-14 4.3-28.3 7.3-12.8 2.9-18.9 9.7-18.9 21.3 0 12.7 8 20 22.4 20 9.3 0 17.5-3.9 24.3-11 1 6.5 3.3 9.5 9 9.5 4.6 0 8.8-1.4 13.3-2.7zm-22.1-16.6c0 2.3-0.2 4.3-2.9 7-4.3 4.3-10.9 7.1-16.3 7.1-8.9 0-14.4-5.6-14.4-15.4 0-12.8 10.1-15.8 33.6-19.7z"/></svg>